<?xml version="1.0" encoding="utf-8"?>
<!-- Generator: Adobe Illustrator 23.0.6, SVG Export Plug-In . SVG Version: 6.00 Build 0)  -->
<svg version="1.1" id="Слой_1" xmlns="http://www.w3.org/2000/svg" xmlns:xlink="http://www.w3.org/1999/xlink" x="0px" y="0px"
	 viewBox="0 0 350 350" style="enable-background:new 0 0 350 350;" xml:space="preserve">
<style type="text/css">
	.st0{fill:#770015;}
	.st1{fill:#FFFFFF;}
	.st2{fill:#3D0DB6;}
</style>
<g>
	<g>
		<title>putb</title>
		<circle cx="175.3" cy="175.2" r="167.5"/>
		<path class="st0" d="M175.2,13c89.7,0,162.3,72.6,162.4,162.2v0.3c0,89.6-72.6,162.2-162.2,162.2H175c-89.4,0-162-72.5-162-162
			v-0.4C12.9,85.6,85.6,13,175.2,13l0.6,0 M175.3,2.5C80,2.5,2.7,79.9,2.7,175.2S80,347.8,175.3,347.8S348,270.5,348,175.2
			S270.6,2.5,175.3,2.5z"/>
		<path class="st0" d="M175.3,45.4c71.6,0,129.7,58.1,129.7,129.7S247,304.9,175.3,304.9l0,0c-71.6,0.1-129.7-58-129.7-129.6
			c0-34.4,13.6-67.5,38-91.8C107.9,59.1,140.9,45.3,175.3,45.4 M175.3,39.8C100.6,39.8,40,100.5,40,175.2s60.6,135.4,135.4,135.4
			s135.4-60.6,135.4-135.4l0,0C310.7,100.5,250.1,39.8,175.3,39.8z"/>
		<path class="st1" d="M119.2,177c3.2-6.6,4.8-14.7,4.8-24.3v-1.2l-0.6-1.1c-0.4-0.9-0.4-2,0-2.9c0.2-0.6,0.7-1,1.2-1.2
			c0.2-0.1,0.3-0.1,0.6-0.1c1.3,0.2,2.5,0.8,3.4,1.9c1.9,2,1.8,5.3,1.8,7c-0.1,7.6-4.7,13.6-8.1,18
			C121.5,174.1,120.6,175.5,119.2,177z"/>
		<path class="st1" d="M125.4,141.1c-0.9,0-1.7,0.2-2.5,0.4c-1.7,0.8-3.1,2-4,3.6c-1.1,2.4-1.1,5.2,0,7.6c0,9.2-1.7,21.6-9.8,30
			c-7.5,7.7-18.2,9.7-17.7,11.3c0.1,0.6,1.3,0.8,3.1,0.8c3.3-0.1,6.7-0.7,9.9-1.7c12-3.7,19.3-13,22.3-16.9c3.7-4.8,9-11.8,9.2-21.1
			c0-2.5,0-7.3-3.1-10.7C131.1,142.8,128.4,141.1,125.4,141.1L125.4,141.1z"/>
		<path class="st1" d="M148,166.6c-4.4-5.8-10.9-11.1-19.4-15.5l-1-0.6h-1.2c-1-0.1-1.9-0.6-2.5-1.3c-0.3-0.4-0.4-1-0.4-1.7
			c0.1-1.2,1.9-2.4,3.4-2.9c0.4-0.1,0.9-0.2,1.3-0.1c2.2,0,4.4,1.2,5.7,1.9c6.6,3.6,9.9,10.5,12.2,15.5
			C146.5,163.1,147.3,164.6,148,166.6z"/>
		<path class="st1" d="M128.1,140.2c-0.9,0-1.9,0.1-2.8,0.3c-3,0.8-6.8,3.3-7.3,7.3c-0.1,1.9,0.3,3.7,1.4,5.2
			c2.3,3.3,6.3,3.4,6.6,3.5c8.1,4.3,18.5,11.3,22.1,22.6c3.4,10.2,0.2,20.6,1.9,21h0.1c1.3,0,4-5.7,5.2-12
			c2.2-12.3-2.6-23.1-4.7-27.5c-2.5-5.5-6.4-13.4-14.5-17.9C134.5,141.7,131.5,140.2,128.1,140.2L128.1,140.2z"/>
		<path class="st1" d="M161.4,129.9c-0.7-0.1-1.3-0.3-1.8-0.4c-5.2-1.3-12.1-3.1-16.7-8.7c-1-1.3-3.1-3.6-2.9-5.9
			c0.1-1.3,0.8-2.9,1.7-3.1c0.1,0,0.2-0.1,0.3-0.1c0.3,0,0.8,0.1,1.1,0.2c0.8,0.4,1.3,1.1,1.7,2l0.2,1.1l0.8,0.9
			C150.7,122.2,156,126.8,161.4,129.9z"/>
		<path class="st1" d="M141.9,106.5c-0.7,0-1.2,0.1-1.9,0.2c-3.6,1-5.2,5-5.3,7.8c-0.2,4.3,2.5,7.8,4.1,9.6
			c5.7,6.8,13.9,8.9,19.4,10.3c4.5,1.3,9.1,2,13.9,2c4.3,0,8.6-0.7,12.7-2.2c5.6-2.1,10.6-5.6,10-6.7c-0.1-0.1-0.3-0.2-0.8-0.2
			c-2.1,0-7.9,2.2-15,2.2c-1.4,0-2.8-0.1-4.2-0.3c-11.1-1.7-19.7-9.9-25.3-16.6c-0.7-2.4-2.3-4.4-4.6-5.5
			C144.1,106.7,143,106.5,141.9,106.5L141.9,106.5z"/>
		<path class="st1" d="M159.3,106.5c-4.4,0-8-3.5-8.3-7.9c-0.1-2.1,0.7-4.3,2.1-5.9c1.5-1.6,3.5-2.6,5.8-2.7h0.5
			c4.4,0,8,3.5,8.3,7.9c0.1,2.1-0.7,4.3-2.1,5.9c-1.5,1.7-3.5,2.6-5.8,2.7H159.3z"/>
		<path class="st1" d="M159.3,96.6c1.5,0,2.7,1.2,2.7,2.6c0.1,1.5-1.1,2.8-2.6,2.9h-0.1c-0.9,0-1.6-0.3-2.2-1.1
			c-0.9-1.2-0.8-2.7,0.1-3.6c0.4-0.5,1.2-0.9,1.9-0.9L159.3,96.6 M172.1,96c-1.3-6.1-6.9-10.4-13.2-10.4h-0.4c-8,0.4-14,7.8-12.3,16
			c1.3,6.1,6.9,10.4,13.2,10.4h0.4C167.8,111.7,173.8,104.2,172.1,96z"/>
		<path class="st2" d="M217.5,121.9c-1.1,0-2.6-1.3-3.4-2.5c-1.4-2.3-0.8-5.5-0.3-7.3c1.7-7.5,7.3-12.4,11.4-16.1
			c0.9-0.8,2.2-1.9,3.9-3.2c-4.4,5.9-7.6,13.5-9.4,22.9l-0.2,1.2l0.3,1.2c0.2,1,0,2-0.4,2.9c-0.3,0.4-0.8,0.8-1.3,0.9
			C217.8,121.9,217.7,121.9,217.5,121.9z"/>
		<path class="st2" d="M251.1,80.1c-1.4,0-2.8,0.1-4.2,0.2c-12.5,1.3-21.5,9-25.1,12.2c-4.5,4-11.1,9.9-13.1,18.9
			c-0.4,2.4-1.4,7,1,11.1c1.4,2.3,4.4,5.1,7.8,5.1c0.4,0,0.8,0,1.2-0.1c1.8-0.4,3.4-1.4,4.6-2.9c1.5-2.1,2.1-4.8,1.4-7.4
			c1.8-9,5.7-20.9,15.4-27.6c8.8-6.1,19.7-6.1,19.6-7.7C259.7,80.9,255.8,80.1,251.1,80.1z"/>
		<path class="st2" d="M215.3,122.9c-2.5,0-5-2-6.3-3.1c-5.8-4.8-7.7-12.2-9-17.6c-0.4-1.7-0.8-3.2-1-4.8c3.2,6.6,8.6,13,16.1,18.9
			l1,0.8l1.2,0.2c1,0.2,1.8,0.9,2.2,1.8c0.2,0.6,0.3,1.1,0.1,1.7c-0.4,1.1-2.3,2-4,2.1C215.5,122.9,215.4,122.9,215.3,122.9z"/>
		<path class="st2" d="M202.9,65.1c-1.3,0-5,5.1-7.3,10.8c-4.6,11.7-1.9,23.1-0.7,28c1.4,5.8,3.6,14.4,10.8,20.4
			c1.9,1.5,5.2,4.3,9.6,4.3h0.8c3.1-0.2,7.3-1.9,8.5-5.7c0.4-1.8,0.3-3.6-0.4-5.4c-1.2-2.3-3.3-4.1-5.8-4.7
			c-7.2-5.7-15.8-14.6-17.4-26.4c-1.3-10.7,3.7-20.2,2.2-20.9C203,65.1,203,65.1,202.9,65.1z"/>
		<path class="st2" d="M214.3,185.1c-0.6-0.4-1-0.8-1.5-1c-4.3-3.1-10.2-7.2-12.8-13.9c-0.6-1.5-1.7-4.4-0.7-6.6
			c0.4-1.1,1.7-2.4,2.5-2.4c0.6,0.1,1,0.3,1.3,0.8c0.6,0.7,0.9,1.5,0.8,2.5l-0.1,1.2l0.4,1.1C207,174.1,210.3,180.2,214.3,185.1z"/>
		<path class="st2" d="M201.9,155.4c-3.5,0-6.2,3-7.3,5.5c-1.7,4-0.2,8.1,0.6,10.5c3,8.4,9.9,13.2,14.6,16.4c3.9,2.8,13.2,9,25,9
			h0.1c5.9,0,11.8-1.7,11.7-2.9c-0.1-1.7-10.2-0.4-19.1-5.2c-9.9-5.3-15.1-16.1-17.9-24.3c0.2-2.5-0.6-5-2.3-6.7
			c-1.2-1.2-2.9-2-4.6-2.2C202.3,155.5,202.1,155.4,201.9,155.4z"/>
		<path class="st2" d="M175.2,163.8c-0.8,0-1.7-0.1-2.4-0.4c-4.2-1.3-6.5-5.8-5.2-10c1.1-3.3,4.1-5.6,7.6-5.6c0.8,0,1.7,0.1,2.4,0.4
			c4.2,1.3,6.5,5.7,5.2,9.9C181.7,161.5,178.6,163.8,175.2,163.8z"/>
		<path class="st2" d="M175.1,153.1L175.1,153.1c0.2,0,0.6,0.1,0.8,0.1c0.7,0.2,1.3,0.8,1.7,1.3c0.3,0.7,0.4,1.4,0.1,2.1
			c-0.3,1.1-1.4,2-2.6,1.9c-0.2,0-0.6-0.1-0.8-0.1c-0.7-0.2-1.3-0.8-1.7-1.3c-0.3-0.7-0.4-1.4-0.1-2.1
			C172.8,153.9,173.9,153.2,175.1,153.1 M175.1,142.6c-7.3,0-13.2,5.8-13.2,13.1c0,5.8,3.7,10.9,9.2,12.7c1.3,0.4,2.6,0.7,4,0.7
			c7.3,0,13.2-5.8,13.2-13.1c0-5.8-3.7-10.9-9.2-12.7C177.8,142.8,176.4,142.6,175.1,142.6L175.1,142.6z"/>
		<rect x="76.8" y="203.3" class="st2" width="198.1" height="7.7"/>
		<path class="st1" d="M76.8,251.3v-34.8c6.9,0,10.5,0.1,17.5,0.1c-0.2,14.1-0.6,28-0.8,42c-1.7-0.7-2.4-1-4-1.7
			c0.1-12.1,0.4-24.2,0.6-36.3c-3.6-0.1-5.5-0.2-9.1-0.4c-0.1,11-0.1,22-0.2,32.9C79.1,252.4,78.3,252,76.8,251.3z"/>
		<path class="st1" d="M96.7,216.5h4.2c1.3,6.2,2,9.4,3.3,16c1,4.7,1.4,7.2,2.4,12c1-4.6,1.4-6.8,2.5-11.6c1.5-6.4,2.2-9.7,3.7-16.4
			h4.3c-2.9,12.3-5.7,24.6-8.8,36.9c-0.3,1.5-0.8,3-1.3,4.4c-0.4,1-1,2-1.9,2.8c-0.8,0.8-1.8,1.1-2.9,1c-1.4-0.1-2.9-0.4-4.2-1
			c0-1.8,0.1-2.6,0.1-4.4c1.7,0.6,2.8,0.7,3.5,0.2c0.8-0.4,1.4-1.4,1.8-3.1c0.4-1.1,0.6-1.7,0.9-2.9
			C102.1,239.2,99.5,227.9,96.7,216.5z"/>
		<path class="st1" d="M118.8,221.7c0.1-2,0.1-3.1,0.1-5.2h17.9c-0.1,2.2-0.1,3.3-0.1,5.5c-2.8-0.1-4.1-0.1-6.9-0.1
			c-0.3,15.7-0.7,31.5-1,47.2c-1.7-0.3-2.5-0.6-4.2-0.9c0.3-15.5,0.7-30.9,1-46.4C122.8,221.9,121.5,221.8,118.8,221.7z"/>
		<path class="st1" d="M138.9,271c0.3-18.2,0.7-36.3,1-54.5h4.2c-0.1,8.7-0.2,13.1-0.3,21.7c1.5,0.1,2.2,0.1,3.7,0.2
			c5.8,0.3,8.7,4.8,8.7,14.1c0,2.8,0,4.1-0.1,6.8c-0.1,4.4-0.8,7.8-2.2,10c-1.4,2.2-3.6,3.2-6.5,2.9
			C144,271.9,142.3,271.6,138.9,271z M143.3,266.3c1.7,0.2,2.4,0.3,4.1,0.4c1.3,0.2,2.6-0.3,3.4-1.5c0.8-1.2,1-3.1,1.1-5.7
			c0-3,0.1-4.5,0.1-7.5c0-2.8-0.3-4.6-1-5.8c-0.8-1.2-2.1-2-3.5-2c-1.5-0.1-2.2-0.1-3.7-0.2C143.5,253,143.4,257.4,143.3,266.3
			L143.3,266.3z"/>
		<path class="st1" d="M168.2,273.8c0.1-19,0.1-38.2,0.2-57.2h4.2c0,9.2,0,18.5-0.1,27.6c3.4-9.2,6.6-18.5,9.9-27.6h4.2
			c-3.1,8.7-6.3,17.4-9.4,26.2c3.3,10.3,6.6,20.6,10.1,30.9c-1.8,0.1-2.6,0.1-4.4,0.1c-2.9-8.3-5.5-16.5-8.3-24.8
			c-0.9,2.2-1.3,3.4-2.2,5.7V274C170.7,273.8,170,273.8,168.2,273.8z"/>
		<path class="st1" d="M198.7,259.5c-0.1-9.7-0.2-19.4-0.3-29.1c-0.1-4.4,0.7-7.8,2-10.3c1.1-2.3,3.5-3.9,6.2-3.7
			c2.6-0.1,5.1,1.3,6.4,3.6c1.4,2.4,2.2,5.7,2.3,9.9c0,1.9,0.1,2.9,0.1,4.8c-1.7,0.1-2.3,0.1-4,0.2c0-2.1-0.1-3.1-0.1-5.2
			c-0.1-5.2-1.7-7.8-4.5-7.8c-1.4,0-2.8,0.9-3.3,2.2c-0.8,1.9-1.1,3.9-1,5.9c0.1,9.8,0.2,19.7,0.4,29.4c0,2.5,0.4,4.5,1.2,5.8
			c0.7,1.2,2,1.9,3.4,1.7c3-0.4,4.4-3.2,4.3-8.5c-0.1-2.9-0.1-4.3-0.1-7c1.7-0.1,2.4-0.2,4-0.4c0.1,2.6,0.1,4,0.1,6.6
			c0.1,4.2-0.6,7.6-1.9,10.2c-1.2,2.5-3.5,4.3-6.4,4.6c-2.5,0.6-5.2-0.7-6.4-2.9C199.4,267.2,198.7,263.8,198.7,259.5z"/>
		<path class="st1" d="M219.8,269.6c-0.3-17.6-0.8-35.3-1-53h15.3c0.1,2,0.1,3.1,0.1,5.1c-4.5,0.1-6.7,0.1-11.2,0.3
			c0.1,7.2,0.2,10.7,0.4,17.8c3.7-0.3,5.5-0.6,9.1-1c0.1,2,0.1,3.1,0.1,5.1c-3.6,0.6-5.5,0.8-9.1,1.2c0.1,7.5,0.2,11.1,0.4,18.5
			c4.5-0.9,6.7-1.3,11.2-2.5c0.1,2,0.1,3,0.1,5C229,267.7,226.1,268.4,219.8,269.6z"/>
		<path class="st1" d="M239.1,265.1c-0.4-16.1-0.8-32.2-1.1-48.3c6.3,0,9.5,0,15.7-0.1c0,1.8,0.1,2.6,0.1,4.4
			c-4.6,0.1-6.9,0.2-11.6,0.4c0.1,5.8,0.2,8.8,0.3,14.6c1.8-0.2,2.5-0.3,4.3-0.6c5.7-0.8,8.7,2.1,8.9,8.7c0,1.9,0.1,2.9,0.1,4.7
			c0.1,6.9-2.5,11.4-8.1,13.4C244.3,263.5,242.6,264.1,239.1,265.1z M243.1,259.1c1.9-0.4,2.8-0.8,4.5-1.3c1.3-0.3,2.5-1.2,3.3-2.5
			c0.7-1.5,1-3.2,1-4.8c-0.1-2.2-0.1-3.3-0.1-5.5c-0.1-2.1-0.4-3.4-1.2-4.2c-0.8-0.8-1.9-0.9-3.5-0.7c-1.8,0.3-2.5,0.4-4.3,0.8
			C242.9,248.2,242.9,251.8,243.1,259.1z"/>
		<path class="st1" d="M260.1,257.9c-0.2-13.8-0.8-41.4-0.8-41.4l15.5-0.1v3.5c0,0-6.6,0.3-10.6,0.6c0.1,5.4,0.1,8.1,0.1,13.4
			c3.3-0.7,8.3-1.8,8.3-1.8v3.8c0,0-5.4,1.3-9,2.2c0.1,5.6,0.1,8.5,0.2,14.1c4.3-1.7,10.5-4.3,9.9-4.3v3.5
			C274.4,251.4,265.9,255.5,260.1,257.9z"/>
	</g>
</g>
</svg>
