<?xml version="1.0" encoding="utf-8"?>
<!-- Generator: Adobe Illustrator 23.0.6, SVG Export Plug-In . SVG Version: 6.00 Build 0)  -->
<svg version="1.1" id="Слой_1" xmlns="http://www.w3.org/2000/svg" xmlns:xlink="http://www.w3.org/1999/xlink" x="0px" y="0px"
	 viewBox="0 0 1200 1200" style="enable-background:new 0 0 1200 1200;" xml:space="preserve">
<style type="text/css">
	.st0{fill:#AA3351;}
	.st1{fill:#FFFFFF;}
</style>
<g>
	<g>
		<path class="st0" d="M191.5,672.9c-0.7,0-1.4-0.3-2.3-0.9c-0.8-0.6-1.2-2.4-1-5.4c0.1-1.1,0.2-2,0.4-2.5c0.2-0.6,0.3-1.2,0.3-1.9
			c0.1-1.9-1-2.8-3.3-3c-1.3-0.1-3,0.3-5.2,1.2c-2.2,0.8-4,1.2-5.5,1.1l-0.3-7.8c-0.2-6-0.8-9-2-9c-0.5,0-1.1,0.5-1.9,1.6
			c-0.8,1.1-1.4,1.6-1.9,1.6c-0.6,0-1.1-0.5-1.6-1.5c-0.5-1-0.7-1.6-0.7-2c0-0.4,0.2-0.6,0.5-0.5l1,0.6c3.3,0.1,5.1-2.6,5.3-8.2
			c0.3-5.9-1-9-3.7-9.1c-1.1-0.1-4,1.9-8.5,5.8c-3.5-7.2-5.8-13.7-6.6-19.3c-1.3-7.1-2.2-19.1-2.8-35.9c-0.4-4.9-0.8-7.3-1.4-7.3
			c-1.8-0.1-3.5,1.9-4.9,5.9c-0.6,2.6-1.4,3.8-2.5,3.8c-1.1,0-1.7,1-1.8,3.3c0,0.8-0.2,1.3-0.4,1.7l-0.7,0c-0.2-0.4-0.3-3-0.3-7.8
			c0-4.8,0.1-10.6,0.4-17.3c0.6-19.7,0.4-31-0.4-33.8c-0.8-2.8-2-5.4-3.3-7.7c-3.7-6.1-5.5-14.8-5.3-26c0-0.7-0.1-1.6-0.3-2.5
			c-0.2-0.9-0.5-1.8-0.8-2.6c-1.5-1.9-2.4-7.9-2.8-18c-0.3-3-0.7-4.9-1.3-5.7c-1.7-2.7-2.3-8.7-1.9-18c0.3-5.9,0-10.1-0.9-12.3
			c-0.9-2.3-1.3-4-1.2-5.1c0-0.4,0.2-0.7,0.5-1.1c0.3-0.4,0.6-1.5,0.8-3.3l-0.1-9.5c0.1-2.6,0.5-3.9,1.2-3.9c0.9,0,1.3,0.6,1.3,1.7
			c-0.1,1.1,0.5,1.7,1.6,1.7c0.9,0,2.1-0.1,3.5-0.4c1.4-0.3,2.9-0.6,4.4-0.9c1.5-0.3,2.6-0.4,3.3-0.4c0.7,0,1.4-0.1,2.2-0.5
			c0.8-0.3,1.4-0.7,1.8-1c0.4-0.3,0.9-0.5,1.6-0.5l2,1.8c1.3,1.6,3.8,2.4,7.6,2.6c7.3,0.3,15.8-1.1,25.5-4.4
			c3.5-1.3,7.9-1.9,13.4-1.6c2.8,0.1,5.5-0.3,8.1-1.3c1.6-0.7,3.6-1.2,6.1-1.7c2.4-0.5,4.8-0.8,7.1-1.1c5.6,0.3,11.2,0.1,16.8-0.4
			c5.8,0.3,8.7,0.8,8.7,1.5c0,0.8,4,1.3,12.1,1.7c7-0.8,11.4-1.8,13.2-3c1.8-1.2,3.1-1.8,3.9-1.8c0.7,0,1.2,0.3,1.6,0.6
			c0.4,0.4,0.9,0.6,1.6,0.6c0.5,0,1.5-0.5,3.1-1.5c0.5,0,0.8,0.2,1,0.6c0.3,0,0.8-0.1,1.4-0.2c0.6-0.2,1.3-0.6,2.2-1.3
			c0.9-0.7,1.5-1.1,1.8-1s0.5,0.5,0.4,1.4s3.7,1.6,11.2,1.9c6.1,0.3,12.4,0,18.7-0.8c5.7-1.6,9.6-2.5,11.8-2.5
			c2.2-0.1,5.2-0.6,9-1.5c7.3-1.9,12.8-3.7,16.5-5.4c1.8-2.2,4.9-3.1,9.2-2.9c1.9,0.1,3.7,1.1,5.3,3l0,3.4c-0.1,2.2,0.8,3.4,2.7,3.5
			c0.7,0,1.7-0.3,3-1c1.3-0.7,3-2.7,5.2-6.2c2.1-3.4,4.6-5.3,7.3-5.5c1.3-0.3,2.5-0.8,3.6-1.5c1.1-0.7,2.1-1.6,3.1-2.7l1.4-1.6
			l-0.5,4.4c-0.7,3.7-2.4,5.5-4.9,5.4c-0.9,0-1.8,0.3-2.6,1c-2,1.4-3.1,3.2-3.2,5.4c0,0.8,0.1,1.3,0.4,1.7c1,0,2.3-0.6,3.7-2.1
			c2.7-2.1,4.9-3.1,6.6-3.1c1.7,0.1,2.7-0.6,3-2.1L392,390c0.3-6.3,2.8-9.9,7.7-10.8c6.9,0.3,10.5-0.6,10.6-2.9
			c0-0.7,0.1-1.3,0.2-1.7l6.2-0.3c11.4-3.6,18.7-5.5,21.8-5.7l0.2,0l-0.2,0.6c-1.6-0.1-2.4,1-2.5,3.2c0,0.8,0.2,1.4,0.6,2
			c0.4,0.6,0.9,0.9,1.4,0.9c0.5,0,0.8,0.1,1,0.3c0.2,0.2,0.2,0.5,0.2,0.8l-0.7,1.1c-0.4,0.7-1.5,1.1-3.3,1c-1.9-0.1-3.1-0.4-3.4-1
			c-0.3-0.6-0.9-1.1-1.6-1.5c-2.6-0.1-5.1,0.9-7.4,3c-2.3,2.1-3.5,4.1-3.6,6c-0.1,2.2,2.5,3.5,7.9,3.7c10.7,0.5,18.2-0.9,22.6-4
			c2.1-1,4.6-1.5,7.4-1.3c2.8,0.1,4.3-0.3,4.3-1.2c0-0.9,2.4-1.3,7-1.1c4.6,0.2,19.4-2.7,44.2-8.6l6.2-0.8c0.3,0,0.6,0.2,0.8,0.6
			l1,0c0.7-1.4,1.2-2.3,1.4-2.4c0.2-0.2,0.4-0.3,0.6-0.2l0.5,0.6l3.1,0.1c0.9,0,4.2-0.7,9.9-2.3l21-4.1c4.7,0.2,14.7-1.6,30-5.3
			l8.3-1.3c4-0.2,8.2-0.7,12.7-1.7c10.8-2.1,17.1-3.9,18.9-5.3c0.7-0.3,2.3-0.6,4.7-0.9l7.8,0.9c8.1,0.4,13.6-0.1,16.7-1.5
			c4.4-1.7,7.8-2.4,10.1-2.3c2.3,0.1,4.9-0.1,7.6-0.8l3.1-0.4c1.2,0.1,2.1,0.9,2.4,2.6c0.4,1.7,0.5,3.3,0.5,4.8
			c-0.8,3-2.9,4.3-6.3,4.2c-0.1-0.4-0.3-0.6-0.7-0.6c-1,0-2.3,0.7-3.8,2.3c-1.5,1.6-3.4,2.4-5.8,2.2c-1.1-0.1-1.8,2.5-2.1,7.7
			c-0.3,6,0.5,9,2.4,9.1c1.9,0.1,2.8,0.9,2.7,2.4l-1.8,5c0,0.4,0,0.6,0.1,0.6l1.4-0.5c2.1-1,3.8-1.5,5.1-1.5c1.3,0.1,2-0.7,2.1-2.4
			c0.1-1.7,0.5-2.5,1.1-2.5l1.5,0.6c3.2,0.1,5.5-2.9,7.1-9.2c0.9-5.5,2.6-8.3,5-8.2c0.9,0.8,1.2,3.6,1,8.4
			c-0.3,6.3-1.1,11.8-2.5,16.4c-1.4,4.6-2.8,6.9-4.1,7.1c-1.3,0.1-5.7,0-13.1-0.3c-2.1,0.3-3.7,0.5-4.8,0.6
			c-1.1,0.1-1.8,0.3-2.1,0.5c-0.2,0.2-0.4,0.4-0.4,0.8l0,0.6c0.2,1.1,2.6,1.8,7.2,2c4.6,0.2,6.9,0.7,6.9,1.4l-3.7,7.1l-0.1,2.2
			l2.4,0.1c2.5-1.4,3.7-2.6,3.8-3.8c0.1-1.1,0.3-2.2,0.7-3.3c0.4-1.1,0.9-1.6,1.6-1.6c0.1,0,0.2,0.2,0.1,0.6c0,0.4-0.1,0.8-0.3,1.4
			c-0.2,0.5-0.3,1.2-0.3,1.9c-0.1,1.5,0.1,2.4,0.4,2.8l0.3,0c0.8,0,1.5-1,2-3c0.5-2,1.1-3.3,1.8-3.8c0.7-0.5,3.4-1.3,8.2-2.2
			c1.5,0.1,2.8,0,4.1-0.4c1.3-0.3,2.2-0.5,2.9-0.4c1.4,0.1,2,0.7,2,1.8c-0.1,1.1,0.3,1.7,1.1,1.7c1.4,0.1,2.3-0.8,2.9-2.7
			c0.6-1.8,1.9-2.7,3.8-2.6c1.9,0.1,3.3-0.5,4-1.8s1.1-2.3,1.2-3c0.1-2.6-2.4-4-7.7-4.3c-4.8-0.2-7.5,0.4-8.3,1.9
			c-0.8,1.5-1.6,2.2-2.7,2.1l-0.5-0.6c-0.6,0-1.3,0.6-2,1.9c-0.8,1.3-1.3,1.9-1.5,1.9c-0.1,0-0.3-0.2-0.6-0.6
			c-0.3-0.4-0.6-1.7-0.8-4c-0.3-2.3-0.4-4.3-0.3-6.2c0.1-1.9,0.5-4.3,1.4-7.2c1.4-4.8,3.1-7.1,5.1-7c1.1,0.1,2.1,1.1,2.8,3.2
			c0.7,2.1,3,3.2,7,3.4c4,0.2,7.2-1.7,9.6-5.7c2.4-4,4.1-6,5.1-5.9c0.3,0,0.7,0.3,1.2,0.9c0.4,0.6,2.4,0.9,5.8,1.1
			c7.4,0.3,11.9,1.5,13.5,3.4c1,1.2,1.7,1.8,2.3,1.8c0.3,0,0.5-0.3,0.6-1.1c0-0.7-0.1-1.3-0.3-1.7c-0.3-0.4-0.6-0.6-1-0.6
			c-0.4,0-0.6-0.2-0.6-0.6c0.1-1.5,1-2.2,2.8-2.1c1.1,0.1,2.3,1,3.6,3c1.3,1.9,2.5,2.9,3.6,3c0.1,0,0.3-0.2,0.6-0.5
			c0.3-0.4,1-0.7,2.2-1l4.2,0.7c6.6,0.3,11.2-0.8,13.8-3.3c0-0.7-0.7-1.4-2.1-2.1c-1.5-0.6-2.2-1.3-2.1-2.1c0-0.4,1.2-0.7,3.6-1
			c2.4,0.1,3.7,0.9,4,2.4c0.3,1.5,0.9,2.5,1.7,2.9l8.2-0.2c1.9,0.1,3.5,0.4,4.8,0.8c1.2,0.4,2.3,0.7,3.2,0.7
			c1.8,0.1,3.9-0.5,6.3-1.7c2.4-1.2,3.6-2.7,3.7-4.6c0.1-1.9,0.8-2.9,2-3.3c1.1,0.1,2.5,0.9,4.2,2.4c0.9,0.8,1.5,1.2,2,1.2
			c0.7,0,1.2-0.3,1.4-1.1c1-1.8,5.1-2.6,12.4-2.2l6.3,0.8c18.7,0.8,28.1-0.8,28.3-4.9c0.1-1.1-0.3-1.7-1.2-1.7
			c-0.9,0-1.2-0.8-1.2-2.3c0-0.4,0.5-0.6,1.3-0.8c0.9-0.1,2-0.2,3.5-0.1c1.6,0.1,2.9-0.1,3.9-0.7c1-0.5,1.8-0.8,2.5-0.7
			c0.8,0,1.6,0.4,2.4,1.2c0.8,0.8,1.6,1.2,2.4,1.2c2.8,0.1,4.3-1.5,4.5-4.8l0.1-1.7c-0.1-0.7-0.8-1.2-2.1-1.2
			c-1.3-0.1-2.7-0.7-4.3-1.9l-0.5-0.6c-0.7,0-1.2,0.7-1.5,2.2c-0.3,1.5-0.8,2.2-1.5,2.2c-0.3,0-0.8-0.3-1.5-0.9
			c-0.7-0.6-1.5-0.9-2.5-1c-0.3-0.4-0.8-0.6-1.3-0.6c-0.3,0-0.9,0.1-1.6,0.5c-0.8,0.3-1.6,0.5-2.7,0.4c-1.1-0.1-2.1-0.5-2.9-1.3
			c-0.8-0.8-1.6-1.2-2.3-1.2c-0.7,0-1.2,0.4-1.6,1.3c-0.4,0.9-1.1,1.3-2.1,1.3c-4.1-0.2-6.4-1-7.1-2.6l0.2-3.3
			c0.1-0.7,0.7-1.1,1.7-1c1,0,1.5-0.8,1.6-2.4c0.1-1.7,0.8-3.2,2.3-4.6c2.5-2.1,4.7-3.1,6.6-3.1c0.7,0,1.4,0.3,2,0.9
			c0.7,0.6,1.6,0.9,2.9,1c1.1,0.1,2.3-0.2,3.4-0.7c1.2-0.5,2.1-0.7,2.9-0.7c0.9,0,1.4,0.3,1.5,0.6l0.3,0c0.1,0,0.2-0.7,0.3-2.2
			c0.2-4.1,1.8-6.1,4.7-5.9c0.1,0,0.1,0.8,0.1,2.2l0,0.6c-0.1,3,2,4.6,6.3,4.8c2.3,0.1,3.5-1.3,3.6-4.3l0.1-1.1c0.1-1.5,0.7-2.5,2-3
			c1.3-0.5,4.9-0.6,10.8-0.4c16.8,0,28.2-1.5,34.4-4.6c4.3-1.3,6.7-2.5,7.3-3.6c0.6-1.1,2.1-1.6,4.5-1.5c2.4,0.1,3.7-1.3,3.9-4.3
			c0.1-3,1.3-4.4,3.6-4.3c0.3,0,0.6,0.2,0.7,0.6c0.1,0.4,0.1,0.8,0.1,1.1l-0.5,3.9c-0.1,2.2,0.5,3.4,1.7,3.4c0.7,0,1.2-0.7,1.6-2.2
			c0.4-1.5,0.8-2.2,1.1-2.2c0.5,0,1.2,0.7,2.3,2.1c1.1,1.4,1.8,2,2.3,2.1l1,0l0-0.6c0.3,0,0.7,0.9,1.2,2.6c0.4,1.7,0.8,2.6,1.2,2.6
			c0.6,0,1.4-1.1,2.5-3.2c1.1-2.2,2.1-3.3,3.1-3.2c1.4,0.1,2.9,0.5,4.6,1.3c4.7,1.7,8.4,2.6,11,2.7c3.8,0.2,5.6-0.1,5.7-0.9
			c0-0.7,0.3-1.1,0.7-1.1c1.4,0.1,2.6,0.5,3.7,1.3c0.3,0.8,0.4,1.5,0.4,2.3c0,0.8,1,1.2,3,1.3s3.1-0.4,3.1-1.5
			c0.1-1.1,0.4-1.7,1.1-1.6c3.8,0.2,5.5,3.8,5.1,10.9c-0.6,12.3-5.5,21.2-14.9,26.7c-3.4,1.7-5.4,4.5-6.1,8.4
			c-0.7,3.9-1.3,5.8-1.8,5.8c-0.5,0-1.8,1-4,3.2c-1.7,2.5-4.3,4.8-7.8,6.9l-2.6,0.4c-0.1-0.4-0.3-0.6-0.7-0.6c-0.9,0-3.2,1-6.9,3
			c-3.7,2.1-6,3.1-7.1,3c-2.4-0.1-3.6,0.4-3.7,1.5l0.3,0.6c0.2,0.8,1.1,1.2,2.8,1.2l1-0.5c0.3,0,0.7,0.1,1,0.3
			c0.3,0.2,0.7,0.7,1,1.4c0.3,0.8,1.4,1.2,3.4,1.3l1.9-1c0.1,0,0.2,0.2,0.1,0.6l-1.3,1.6c-0.7,1.1-1.4,2.1-1.8,3
			c-0.5,0.9-0.8,1.7-0.8,2.5c0,0.8-0.2,1.1-0.4,1.1c-0.3,0-0.7-0.3-1.1-0.9c-0.4-0.6-0.9-0.9-1.6-0.9c-1.3-0.1-3.1,0.8-5.6,2.5
			c-4.2,2-6.8,3-7.7,3c-1.6-0.1-2.6,0.5-2.9,1.8s-0.8,2.1-1.4,2.5c-2.8-0.1-4.3,0.3-4.3,1.2c0,0.9-0.6,1.4-1.6,1.3l-3.9-1.3
			c-1.4-0.1-2.2,0.6-2.6,1.8c-0.3,1.3-0.7,2.1-1.1,2.5l-1,0c-2.3-2.7-3.6-4.1-4.1-4.1c-0.3,0-0.5,0.5-0.6,1.4s-0.9,1.4-2.5,1.3
			c-1.6-0.1-2.6-0.5-2.9-1.3c-0.4-0.8-0.8-1.2-1.4-1.2c-3-0.1-5,1.8-6.1,5.9l0,0.6l0.1,1.7l-2-0.6c-2.8-0.1-4.6,0.1-5.2,0.6
			c-0.7,0.5-1.3,0.8-2,0.7c-1,0-2.1-0.5-3.3-1.3c-1.2-0.8-2.1-1.2-2.8-1.2c-0.7,0-1.4,0.4-2.2,1.3c-0.8,0.9-2,1.3-3.7,1.2
			c-2-0.1-3.1-0.4-3-1c0-0.6-0.2-1.2-0.6-2c-1.5-1.2-2.5-1.8-2.8-1.8c-0.3,0-0.6,0.2-0.9,0.8c-0.3,0.5-0.4,1.9-0.5,4.2
			c-0.1,2.2-0.7,3.3-1.7,3.3c-0.7,0-1.7-0.3-3-0.7c-1.3-0.4-2.5-1-3.6-1.8c-1-0.8-1.7-1.5-1.9-2c-0.2-0.6-0.4-0.9-0.6-0.9
			c-0.1,0-0.2,0.8-0.3,2.5c-0.1,1.7-1.1,2.5-3.2,2.4l-1-0.6c-1.4-0.1-2.1,0.5-2.1,1.6c-0.1,1.1-1.3,1.6-3.7,1.5s-3.7,0.3-3.7,1.2
			c0,0.9-1.8,1.3-5.2,1.2c-3.6-0.2-5.7-1.7-6.3-4.5c-0.6-2.8-1.6-4.3-3.1-4.3l-1.9-0.1c-0.3-0.4-0.5-0.9-0.4-1.4
			c0-0.6,0-0.8-0.1-0.8l-0.9,1.6c-0.7,1.1-2,2-3.9,2.6c-2.3-0.1-3.8-0.6-4.6-1.6c-0.8-1-1.6-1.5-2.2-1.5c-0.6,0-1,0.3-1.2,1.1
			c-0.3,0.7-0.5,1.1-0.7,1.1c-1.1,1.1-2.5,1.6-4.3,1.5c-1.8-0.1-5.8,0.1-12.1,0.6c-7.7,0.4-12.9,1.1-15.8,2.1
			c-2.1,1.4-4.3,2-6.7,1.9c-2.3-0.1-3.9,0.4-4.7,1.5c-0.8,1.1-1.3,1.6-1.5,1.6c-0.1,0-0.1-0.6-0.1-1.7s-0.4-1.7-1.3-1.7
			c-0.7,0-1.1,0.5-1.3,1.6l-0.1,2.2c-0.6,1.1-1.3,1.6-2,1.6c-0.1,0-0.2-0.2-0.1-0.6l0.6-2.2c0-0.7-0.4-1.1-1.3-1.2
			c-1.4-0.1-2.1,0.4-2.1,1.3c0,0.9-0.9,1.4-2.5,1.3l-1.7-0.6c-0.6,0.4-0.9,0.8-0.9,1.4c0,0.6-0.3,1.1-0.8,1.6
			c-0.5,0.5-1.1,0.8-1.8,0.7c-8.2-0.4-12.3,0.2-12.4,1.7l0.1,1.1l-0.5,0.5c-0.1,0-0.4-0.2-0.9-0.6c-0.5-0.4-1-1-1.5-1.7
			c-0.5-0.8-0.9-1.2-1.2-1.2c-0.6,0-1.2,0.9-2,2.7c-0.8,1.8-1.5,2.7-2.2,2.7c-0.3,0-0.7-0.3-1-0.9c-0.3-0.6-0.6-0.9-1-0.9
			c-0.5,0-1,0.8-1.5,2.5c-0.5,1.6-1.3,2.5-2.2,2.4c-0.7,0-1-1.3-0.9-3.7c0.1-2.4-1.4-3.7-4.6-3.9c-3.3-0.1-6.2,1-8.7,3.5l-2.3,4.4
			l0.1,1.1c0,0.8-0.8,1.1-2.3,1c-1.9-0.1-2.9-0.8-2.8-2.1c0.1-1.3-3.2-2.1-9.6-2.4c-6.9,0.4-11.7,1.3-14.7,2.7
			c-2.1,1-3.7,1.5-4.7,1.5c-0.7,0-1.2-0.3-1.6-0.9c-0.4-0.6-0.9-0.9-1.6-0.9c-0.7,0-1.5,0.4-2.5,1.3c-1,0.9-3.3,1.2-6.9,1.1
			c-3.6-0.2-5.8,0.3-6.6,1.4c-0.8,1.1-1.6,1.6-2.3,1.6l-1.5-0.1l-1-0.6l0.6,1.7c-0.1,1.1-1.8,1.6-5.2,1.4c-3.2-0.1-4.8-0.8-4.7-1.9
			l0-0.6l-2.1,1c-2.3,2.1-3.7,3.8-4.2,4.8c-0.6,1.1-1.2,1.6-2,1.6l-3.5-1.3c-0.9,0-1.4,0.5-1.4,1.6c-0.1,1.1-0.1,1.7-0.2,1.7
			l-0.5-0.6c-1.4-0.1-2.4,0.3-3.1,1l-1.9,1l0.2-1.7c0-0.7-0.3-1.1-1.1-1.2l-4.7,0.9c-1.7-0.1-3-0.8-3.8-2.1c-0.8-1.3-1.3-2-1.5-2
			c-0.1,0-0.2,0.2-0.2,0.5l0.3,0.6c0.2,0.8,0.3,1.3,0.3,1.7c0,0.8-0.5,1.1-1.2,1.1c-1.3-0.1-2.2-0.8-2.7-2.4c-0.6-1.5-0.9-2.3-1-2.3
			c-0.3,0-0.8,1.3-1.4,3.9c-0.6,2.6-1.4,4-2.6,4.4c-1.4-0.1-2.4-1-3.2-2.9c-0.8-1.9-1.4-2.9-2-2.9c-0.5,0-1.2,0.7-2.1,2.1
			c-2.3,2.1-4.7,3.5-7.4,4.1c-2.7,0.6-4.4,1.8-5.3,3.7c-0.4,1.9-1.4,2.7-3,2.7c-1.6-0.1-2.7,0.8-3.2,2.6c-0.2,0.4-0.5,0.5-0.9,0.5
			c-0.3,0-0.7-1-1-2.8c-0.3-1.9-0.6-3-1-3.4c-0.6,0-1.5,0.6-2.8,1.8c-1.3,1.2-2,3.1-2.1,5.5c-0.1,2.4-1.4,3.6-3.9,3.5
			c-2.5-0.1-3.8,0.5-3.8,1.8c-0.1,1.3-0.9,1.9-2.6,1.8s-3.4,0.6-5.2,2l-1.6,0.5c-1,0-1.8-0.7-2.4-2.1c-0.6-1.3-0.8-2.6-0.8-3.7
			c0-0.7,0.4-1.7,1.1-2.7s1-1.8,1-2.2c0-0.7-0.2-1.1-0.8-1.2c-0.9,0-2.7,0.8-5.2,2.6c-4.1,2.4-6.2,5.3-6.4,8.7s-0.5,5-1.1,5
			c-0.6,0-1.9,0.7-4,2.1c-2.1,1.4-6.5,2.3-13.1,2.8c-6.8,1.6-10.6,2.7-11.4,3.4c-1.8,1.4-4.4,2.2-8,2.4c-1.8,0.3-2.8,1-2.8,2.1
			s0.9,2.7,2.9,4.6c1,0.8,1.8,1.2,2.5,1.2c1.2,0.1,2.5-0.5,3.7-1.5c2-1.8,5.7-2.9,11.2-3.4c5.4-0.5,8.5-1.4,9.1-2.7
			c0.6-1.3,1.6-1.9,3-1.8l2.5,0.7c3.9,0.2,7.1-0.4,9.7-1.8c3.5-2.4,7.8-4,13-4.7c5.1-0.7,8.5-1.9,10.2-3.7c2.1-1.4,3.7-2.1,4.7-2
			c1,0,2.2-1.2,3.6-3.7c1.6-2.2,4.5-3.6,8.7-4.4c4.2-0.7,7-2,8.2-3.8c1.2-1.8,2.5-2.7,3.7-2.6c1,0,1.5,1,1.4,2.9
			c-0.1,1.9,0.2,2.8,0.9,2.8s1.6-0.8,2.7-2.4c1.1-1.6,3.9-2.4,8.3-2.4c4.4,0,7-0.5,7.6-1.6c1.4-2.5,4.4-4.3,9-5.2l6.2-2
			c1.4,0.1,2.8,1,4.4,2.7c1.6,1.8,3,2.7,4.4,2.7c1.2,0.1,1.9-0.4,1.9-1.3c0-0.9,0.3-1.6,0.8-1.9l3.1,0.1c1.2,0.1,2.9-0.8,5.1-2.6
			c1.4-1.1,2.6-1.7,3.5-2.1c1,0,1.9,0.6,2.6,1.8c0.7,1.1,3.2,1.8,7.5,2c7.1,1.1,10.6,3.8,10.4,8.3c0,0.8-1.7,2.3-5,4.8
			c-2.7,1.4-4.1,2.8-4.1,4.3l0.1,1.1c0.8,1.5,2.3,2.3,4.3,2.4c1.9,0.1,2.9-0.9,3-2.9c0.1-2,1.2-3.4,3.3-4c1.8-1.4,3-3,3.8-4.9
			c0.8-1.8,1.5-2.7,2.2-2.7c1.6,0.1,2.7,1.2,3.2,3.2c0.5,2.1,1.2,3.1,2,3.2l1-0.5c1.4-1.4,4.5-2,9.3-1.8c4.8,0.2,8.1-0.6,9.9-2.4
			c1-1.1,3.3-2.1,7-3c2.1-0.6,5.1-2,9.1-4.1c2-1.4,3.8-2.1,5.4-2l2,0.7c3.2,0.1,5.9-0.5,8.3-1.9c3.5-1.7,6.7-2.7,9.6-2.9
			c2.9-0.2,5.5-0.8,7.7-1.6c2.2-0.8,6-1.5,11.4-2c10.6-1,18.3-1.4,23-1.2c4.2,0.2,7.7,1.3,10.5,3.3c1.7,1.2,3,1.8,4,1.9
			c1.2,0.1,1.9-0.3,2.1-1c1.1-1.1,2.1-1.6,3.1-1.5c1.9,0.1,3,0.8,3.3,2.1s0.6,2.2,0.9,2.6l0.3,0c0.8,0,1.2,0.8,1.1,2.3
			c-0.2,1.9-0.6,2.8-1.2,2.8c-0.6,0-0.8-0.6-0.8-1.7c0.1-1.1-0.5-1.9-1.6-2.3c-3-0.1-6,0.5-9.1,1.8c-0.8,0.7-1.7,1.2-2.6,1.6
			c-0.9,0.3-1.5,0.7-1.6,1l-0.9,0l-2.9,2.7l-0.3,0c-0.4-0.4-0.6-1.1-0.6-2.3l0.3-2.2c0.1-3-0.7-4.5-2.5-4.6c-0.9,0-1.7,0.3-2.4,1
			c-0.7,0.7-1.4,1.1-2.1,1l-2-0.6c-1.3-0.1-2,0.5-2.1,1.6l0,0.6c-0.1,1.5,0.4,3.2,1.3,5.1c0.5,0.8,0.8,1.4,0.8,1.7
			c0,0.4-0.2,0.5-0.5,0.5l-2.8-1.2c-1,0-1.9,0.8-2.6,2.4c-0.7,1.6-3.2,2.5-7.4,2.5c-4.2,0-7.1,0.5-8.6,1.6c-0.6,0.4-1.3,0.5-2.1,0.5
			l-1.5-0.6c-0.2,0.4-0.4,1-0.4,1.9c0,0.9-0.8,1.4-2.4,1.3c-1.5-0.1-3,1.1-4.4,3.4c-1.4,2.4-2.8,3.5-4.2,3.4l-0.5-0.6
			c-0.1,0-0.3,0.1-0.4,0.3c-0.2,0.2-0.3,0.5-0.3,0.8l0,0.6c-0.1,1.5-1.6,2.2-4.5,2c-1.4-0.1-2-0.6-2-1.5c0-0.9-0.4-1.4-1.3-1.5
			c-0.8,0.3-1.8,1.3-3,2.9c-1.2,1.6-2.7,2.4-4.5,2.3l-1.9-0.6c-0.7,0.3-1.2,0.9-1.6,1.6c-0.4,0.7-1.4,1.1-3,1
			c-1.6-0.1-2.6,1.2-3.2,3.8c-0.5,2.6-1.4,3.9-2.7,3.8c-1.3-0.1-2.7,1.2-4.4,3.7c-2.4,2.9-5.5,4.2-9.2,4.1
			c-4.8,1.3-13.5,1.6-25.9,1.1c-3.5-0.2-5.6-0.4-6.1-0.8c-0.4-1.5-1-2.3-1.9-2.3c-1.8-0.1-3.5,1.3-5,4.2c-1,1.8-2.3,2.7-3.9,2.6
			c-2-0.1-3.7-0.5-4.8-1.3c-1.2-0.8-1.9-1.3-2.1-1.5c-0.2-0.2-0.4-0.3-0.7-0.3c-1,0-2,0.8-2.9,2.7c-1.5,1.4-3,2.1-4.4,2l-0.5-0.6
			c-0.7,0-1.7,0.8-2.9,2.4c-1.3,1.6-2.1,2.4-2.6,2.4c-0.3,0-0.9-0.8-1.6-2.3c-0.7-1.5-2.6-2.4-5.5-2.5c-3.9-0.2-6.5,0.6-8,2.4
			c-1.6,2.9-3.5,4.9-5.7,5.9c-1,0-1.6-0.3-1.9-0.6c-0.6-1.5-1.8-2.3-3.7-2.4c-1.9-0.1-2.9,0.5-3,1.8s-0.5,1.9-1.3,1.9
			c-0.6,0-0.8-0.2-0.8-0.6l0.1-2.2c0.1-2.2-0.4-4.1-1.6-5.7c-1.2-1.5-2.2-2.3-3.1-2.4c-0.9,0-1.8,0.3-2.8,1
			c-0.9,0.7-1.8,1.5-2.5,2.4s-1.2,1.6-1.6,2.2c-0.3,0.6-0.5,0.8-0.6,0.8c-0.2,0-0.3-0.6-0.3-1.7c0.1-1.1-0.3-1.7-1.1-1.7
			c-1.1-0.1-2.6,1-4.2,3.2c-1.7,2.2-2.6,4.2-2.7,6l0,0.6c-0.1,1.1-0.5,1.6-1.4,1.6c-1.4-0.1-2.2-0.8-2.5-2.3c-1-1.2-2.2-1.8-3.7-1.8
			c-2.3-0.1-3.9,1.4-4.7,4.5c-0.9,3.1-1.4,4.9-1.7,5.2l-0.3,0c-0.1,0-0.4-0.8-0.8-2.3c-0.4-1.5-1.1-2.3-2.1-2.3
			c-2-0.1-4.1,2.1-6.1,6.4c-1.4,3.7-3,5.5-4.9,5.4l-1.2-0.6c-1,0-1.6,0.6-1.6,1.9c-0.1,1.3-0.5,1.9-1.3,1.9c-0.3,0-0.6-0.2-0.8-0.6
			l0-0.6c0.1-1.9-0.2-3.4-1-4.5c-1.9-2.3-3.7-3.5-5.3-3.6c-0.5,0-1,0.1-1.6,0.5c-0.6,0.3-1.3,0.6-2,0.8s-1.4,0.3-2,0.5
			s-1.6,0.8-2.9,1.8c-1.3,1.1-3.1,1.5-5.5,1.4c-3.7,1-5.6,2-5.6,3.1c-0.1,1.9,1.2,2.8,4,3c0.9,0,2.6-0.2,5-0.9l5.7-1.4
			c0.6,0,0.8,0.2,0.8,0.6l-1.4,1.6c-1,1.5-1.8,2.4-2.6,3c-0.8,0.5-1.5,0.8-2.1,0.7c-0.6,0-1.3,0.2-2.1,0.7c-0.8,0.5-1.7,1.2-2.7,2.1
			c-1,0.9-1.5,1.5-1.5,1.9c0,0.4,0.6,0.6,1.8,0.6c1.2,0.1,1.8,0.3,1.8,0.6c0,0.4-0.6,1.1-1.6,2.2s-1.8,1.6-2.3,1.6l-0.5,0
			c-0.3,0-1-1.1-1.8-3.1c-0.9-2.1-1.8-3.2-2.8-3.2c-0.6,0-1,0.1-1.4,0.5c-1.4,1.4-3,2.1-4.7,2c-2,1-4.6,1.9-7.9,2.4
			c-3.3,0.6-5.5,0.9-6.6,0.8l-0.8-0.6l-0.2,1.1c-0.1,2.2,1.6,3.4,5,3.6c1.4,0.1,2.9-0.2,4.5-0.9L539,546c2,0.1,3,0.7,3,1.8
			c0,0.8-0.4,1.6-1.1,2.5c-0.7,0.9-1.4,1.6-2.2,2.1c-0.8,0.5-1.5,0.8-2.1,0.7c-0.9,0-1.5-0.7-1.6-2c-0.2-1.3-0.4-2-0.8-2
			c-0.2,0-0.6,0.4-1.1,1.3c-0.5,0.9-1.9,1.9-4.1,2.9c-2.3-0.1-3.6,0.1-4,0.7c-0.4,0.5-0.6,0.8-0.7,0.8c-0.2,0-0.5,0-0.9,0
			s-0.7-0.4-1.1-1.2c-0.4-0.8-0.7-1.2-1.1-1.2s-0.6,0.9-0.6,2.8c-0.1,1.9-0.7,3-2,3.5c-1.2,0.5-2.8,1.1-4.8,1.7l-2.4-0.1
			c-1.5-0.1-2.2-0.8-2.1-2.3c0.1-1.9,0.6-2.8,1.7-2.7l2,1.2c1,0,1.9-0.6,2.6-1.8s1.1-2.5,1.2-3.6c0.1-3-0.8-4.5-2.9-4.6
			c-2.6-0.1-5.2,0.7-7.6,2.5c-0.8,0.7-2,1-3.5,1l-1.7-0.6c-0.8,0-1.2,0.8-1.3,2.5c-0.1,1.7-0.9,2.5-2.5,2.4
			c-0.9-0.8-1.8-1.2-2.8-1.2c-0.8,0-2,0.4-3.5,1.2c-1.5,0.9-2.3,2.2-2.4,4.1c-0.1,2.6,0.7,4.1,2.4,4.6c2,0.1,4-0.7,5.9-2.5
			c1.9-1.8,3.9-2.6,5.9-2.5c2.3,0.1,3.4,1.1,3.3,2.9c-0.1,2.2-1.1,3.3-3.1,3.2c-1.9-0.1-3.2,0.8-3.7,2.6c-0.1,1.5-0.8,2.2-2.1,2.1
			c-0.7,0-2.4,0.8-5.2,2.6c-2.8,1.7-7.6,3.2-14.5,4.4c-3.3,0.6-6.4,0.8-9.3,0.7c-1.5-0.1-2.4-0.9-2.9-2.4c-0.4-1.5-0.9-2.3-1.3-2.3
			c-0.3,0-0.8,0.2-1.2,0.8c-0.5,0.5-0.8,2-0.9,4.4s-0.9,3.7-2.4,3.8c-1.5,0.1-3.8,1-6.8,2.8c-2.2,1-4.6,1.5-7.1,1.4
			c-1.7-0.1-2.8,0.4-3.1,1.5c-0.4,1.1-2.1,1.6-5,1.4c-1.9-0.1-3.9,0.2-6,0.8c-3.8,1.7-5.8,3.5-5.9,5.3c0,0.4,0.2,0.8,0.6,1.1
			c0.4,0.4,0.6,0.8,0.6,1.1c0,0.4-0.4,0.5-1,0.5c-0.3,0-0.8-0.3-1.5-0.9c-0.7-0.6-1.3-1.5-2-2.6c-0.7-1.1-1.2-1.9-1.5-2.3
			c-0.3-0.4-0.7-0.6-1-0.6c-0.3,0-1.9,1.2-4.5,3.7c-2.7,2.5-4.2,4.3-4.7,5.4s-0.8,1.6-1.2,1.6c-0.6,0-1.2-0.8-1.8-2.3l-0.9-2.3
			l-0.1,1.1l0.1,0.6c-0.1,1.1-1.2,1.6-3.5,1.5c-2.3-0.1-3.5,0.8-3.5,2.6l0,0.6c-0.1,1.5-0.4,2.2-1.1,2.2c-1.4-0.1-2.6,0.6-3.7,2.1
			c-1.1,1.4-1.7,3.3-1.8,5.5c-0.1,2.2-0.4,3.5-1,3.9l-2.9-0.1c-2.5-0.1-3.8,0-4,0.4c-0.2,0.4-0.6,0.5-1.1,0.5
			c-2.4-0.1-4.4-0.6-6.1-1.4c-4.6-2.1-6.8-3.7-6.8-4.8c0.1-2.6,1.2-3.9,3.2-3.8c0.9,0,1.7,0.6,2.5,1.5c0.8,1,1.9,1.5,3.3,1.5
			c1.7,0.1,3.2-0.6,4.5-2c3.4-3.9,5.2-8.9,5.5-14.9c0.1-1.5-0.1-2.8-0.5-3.9c-0.5,0-1.3,0.8-2.4,2.4c-1.2,1.6-2.5,2.4-4,2.3
			c-1.6-0.1-3.5-0.9-5.9-2.5l-1.5-0.6l0.4,2.3c0,0.8-0.7,1.1-1.9,1c-1.5-0.1-2.5-0.7-3.1-1.8c-0.6-1.1-1-1.7-1.4-1.7
			c-0.3,0-0.6,1.1-0.8,3.3c-0.2,4.1-0.2,6.5-0.2,7.3c-0.1,1.5-0.3,2.2-0.6,2.2l-1.7-0.1c-0.3-0.4-0.6-1.3-0.9-2.8
			c-0.3-1.5-0.8-2.3-1.4-2.3c-1.6-0.1-2.8,1.7-3.5,5.4c-0.2,1.9-0.4,3-0.6,3.3c-0.2,0.4-0.6,0.7-1.2,1.1c-0.9-2.3-2.2-3.5-3.9-3.5
			c-1.4-0.1-2.3,0.6-2.7,1.8s-3.2,1.8-8.2,1.6c-2.4-0.1-3.6-0.6-3.5-1.6c0-0.9-0.1-1.6-0.4-2c-1.1-0.1-2,1.1-2.6,3.5
			c-0.6,2.4-2.4,3.5-5.5,3.4c-3.1-0.1-4.7,0.2-4.7,0.9c0.2,0,0.3,0.2,0.3,0.6l-0.7,1.1c-0.4,0.4-0.9,0.5-1.6,0.5
			c-0.7,0.3-1.1,0-1.1-1.2s-0.6-1.7-1.7-1.8c-1.3-0.1-1.9,0.4-1.9,1.3c0,0.9-0.1,1.6-0.3,1.9l-5,4.8c-6.7,4.5-10.1,7.7-10.2,9.6
			c0,0.4-0.2,0.5-0.5,0.5l-1.3-0.6c-1.7-0.1-3.9,0.2-6.7,0.8c-7.3,1.5-12.1,3.7-14.5,6.6c-2.7,4.4-5.5,6.5-8.5,6.3
			c-0.3,0-0.5-0.2-0.5-0.6c0-0.4,0.6-1.2,1.8-2.4c1.2-1.3,2.6-1.8,4.4-1.8c1.6-1.8,2.4-3.6,2.5-5.5c0-0.4,0-0.6-0.1-0.6
			c-0.9,0-2.1,0.5-3.5,1.5c-1.4,1.1-3.3,1.5-5.6,1.4c-2.3-0.1-3.7,1-4.2,3.5c-0.5,2.4-1.5,3.6-3.1,3.5c-1.6-0.1-2.4,0.4-2.5,1.6
			l-0.1,1.7c-0.1,2.2-0.9,3.3-2.5,3.2c-1.6-0.1-2.9,0.2-4,0.9c-0.7,0-1.4-0.3-2.3-0.9c-0.8-0.6-1.6-1.6-2.3-2.9s-1-2.6-0.9-3.7
			c0-0.4,0.3-0.7,0.8-1.1c0.5-0.3,1.2-0.5,1.9-0.5c0.7,0,2.6-0.5,5.7-1.7c3.1-1.2,6.1-2.4,9.1-3.8c3-1.3,5-2.5,6-3.4
			c1-0.9,2-1.5,3-1.8c1-0.3,1.8-0.5,2.6-0.4c0.7,0,1.5-0.1,2.3-0.5c0.8-0.3,1.6-0.7,2.3-1c0.7-0.3,1.1-0.7,1.2-1.1l0-0.6l-0.5-0.6
			l-10.2-1c-3.3-0.1-5.2,0.1-5.8,0.9c-0.5,0.7-1,1.1-1.5,1.1c-0.6,0-1-0.2-1.3-0.6c-0.3-0.4-0.5-0.6-0.7-0.6l-0.5,0
			c-0.2,0.4-0.4,1-0.4,1.9c0,0.9-2.1,1.7-6.3,2.2c-8.7,0.7-15.3,2.6-19.7,5.5c-4.5,3-7.4,4.4-8.9,4.3c-1.5-0.1-3.1,0.5-4.8,1.7
			c-1.7,1.2-2.6,2.7-2.7,4.4c-0.1,1.7-1.5,2.4-4.1,2.3c-2.7-0.1-4.6,0.4-5.6,1.7c-1.1,1.3-1.7,3.9-1.9,8c-0.3,5.6-1.2,8.7-3,9.4
			c-2-0.1-4.4-1.2-7.2-3.4c-2.8-2.2-4.4-3.3-4.8-3.3c-0.4,0.4-0.6,1.1-0.8,2.2c-0.2,1.1-0.5,2.1-0.9,3s-1,1.6-1.7,2.2
			c-0.7,0.5-1.1,1.2-1.1,1.9c0,0.4,0.2,0.9,0.8,1.4c0.5,0.6,0.8,1.1,0.8,1.4C193.2,672.8,192.6,672.9,191.5,672.9z M219.4,681.4
			l-0.9,0c-2.5-0.1-3.7-1.5-3.6-4.1c0-0.7,1.5-1.6,4.4-2.6l7.6-2.5c1.2,0.1,1.8,1.8,1.6,5.1l-0.2,0.5c-0.2,0-0.5-0.6-0.9-1.7
			c-0.4-1.1-0.9-1.7-1.5-1.8c-0.5,0.4-1.3,1.5-2.6,3.5C222.3,679.9,220.9,681.1,219.4,681.4z M221.8,663.6l-1,0
			c-0.6,0-0.8-0.2-0.8-0.6c0-0.4,0.9-1.1,2.7-2.1c0.7-0.3,1.7-0.5,2.9-0.4l0.1,0.6C225.7,661.4,224.4,662.2,221.8,663.6z
			 M243.1,405.7c-0.2,0-0.5-0.3-0.8-0.9c-0.3-0.6-0.5-1.2-0.6-2c0-0.7,0.6-1.1,1.6-1c0.8,0,1.2,0.4,1.1,1.2c0,0.4-0.1,0.7-0.1,0.8
			C244.2,403.9,243.8,404.6,243.1,405.7z M241.2,653.9l-0.5,0c-0.3,0-0.6,0-0.8,0c-0.2,0-1.4-1.4-3.7-4.1c0-0.4,0.7-0.5,2.1-0.5
			c0.9,0,1.7,0.4,2.4,1c0.7,0.6,1.1,1.4,1.2,2.6L241.2,653.9z M242.1,674.6c-0.2,0-0.6-0.2-1.1-0.6c-0.5-0.4-1.2-0.9-2.1-1.5
			c-0.9-0.6-1.3-1.1-1.3-1.5l0.9,0c2.6,0.1,3.9,0.7,3.8,1.8L242.1,674.6z M245.2,649c-0.2,0-0.3-0.8-0.2-2.2c0-0.7,0.2-1.5,0.6-2.2
			c0.4-0.7,0.8-1.3,1.4-1.6c0.5-0.3,1-0.5,1.3-0.5c0.3,0.4,0.5,0.8,0.5,1.1c0,0.4-0.2,0.9-0.6,1.6c-0.4,0.7-0.9,1.6-1.7,2.5
			C245.7,648.6,245.3,649,245.2,649z M275.5,398.7l-1.7-0.1c-2.5-0.1-3.7-0.7-3.7-1.9c0.2-0.4,0.7-0.5,1.4-0.5
			C274.3,396.5,275.6,397.3,275.5,398.7z M269.4,666.3l-0.9,0c-0.3-0.4-0.8-2.1-1.5-5.1L266,655l0.5-0.5c0.7,0,1.8,0.8,3.2,2.4
			c1.5,1.6,2.5,2.4,3.2,2.4c0.9,0,1.7-0.5,2.5-1.6c0.7-1.1,1.8-2.2,3.2-3.2c2.5-1.4,4-2.1,4.7-2c0.2,0,0.3,0.2,0.3,0.6
			c-0.1,1.5-0.4,2.2-1,2.2c-0.6,0-0.9,0.1-1,0.5c0,0.4,0,0.8-0.1,1.1l0.2,3.9c-0.3,0-0.9-0.6-1.6-1.8c-0.7-1.2-1.3-1.7-1.6-1.7
			c-0.5,0-1,0.6-1.7,1.9c-0.7,1.3-1.5,2.4-2.4,3.5c-0.9,1.1-1.8,2-2.7,2.7C270.8,666,270.1,666.4,269.4,666.3z M293.6,626.6
			c2.6,0.1,5.1-0.8,7.4-2.7c2.3-1.9,3.5-4.2,3.6-6.8c0.1-2.6-0.4-3.9-1.7-4c-0.3,0-0.7,0.7-1.1,2.2c-0.4,1.5-1.4,2.2-2.9,2.1
			c-1.5-0.1-2.6,0.7-3.3,2.4c-0.6,1.6-1.5,2.4-2.6,2.4c-1.1,0-1.7,0.7-1.7,2.2C291.2,625.8,292,626.5,293.6,626.6z M295.8,657.5
			c-0.8,0-1.2-0.6-1.1-1.7c0.1-1.5,0.5-2.2,1.3-2.2c0.7,0.4,1,1.2,1.1,2.3C296.9,657,296.4,657.5,295.8,657.5z M303,652.8l-0.5,0
			c-0.6,0-0.8-0.8-0.8-2.3c0.1-1.9,1.7-3.1,5-3.7c0.1,0,0.3-0.2,0.7-0.5c0.4-0.3,0.7-0.8,1-1.3c0.3-0.6,0.8-0.8,1.5-0.8
			c2.6,0.1,3.9,0.7,3.8,1.8c0,0.4-0.3,0.6-0.7,0.5c-0.5,0-1.3,0.3-2.5,1c-1.2,0.7-2.6,1.8-4.2,3.2
			C304.8,652.1,303.7,652.8,303,652.8z M322.8,625.7l-0.7-0.6c-0.1-0.4,0-1,0.4-1.9s0.7-1.4,1.1-1.4s0.5,0.6,0.6,1.7
			C324.2,625,323.8,625.7,322.8,625.7z M335.7,625.7l-0.5,0c-1.6-0.1-2.3-1.8-2.2-5.1c0.1-3,2.2-4.4,6.2-4.2c3,0.1,4.4,0.8,4.4,1.9
			c-0.1,2.2-0.5,3.3-1.2,3.3c-0.2,0-0.4-0.3-0.5-0.9c-0.1-0.6-0.2-0.9-0.5-0.9c-0.5,0-1.2,1-2.3,3
			C338.1,624.8,336.9,625.8,335.7,625.7z M366.5,612.6l-0.7,0c-0.5,0-0.7-0.6-0.6-1.7c0.1-2.2,0.6-3.3,1.5-3.3c0.7,0,1,0.8,0.9,2.3
			C367.6,611,367.2,611.9,366.5,612.6z M392.9,626.1c-1.4-0.1-2-1.2-1.9-3.4c0.1-1.1,0.7-1.6,2-1.6c1.4,0.1,2,0.6,2,1.8
			C394.9,625,394.2,626.1,392.9,626.1z M396.5,602.8c0.6,0,0.9-0.5,0.9-1.6c-0.1-1.1-0.2-1.7-0.4-1.7c-0.2,0-0.5-0.1-0.9-0.3
			c-0.4-0.2-0.8-0.5-1.3-0.9c-0.5-0.4-0.9-0.6-1.1-0.6c-0.3,0-0.5,0.2-0.5,0.5c0,0.4,0.1,1.2,0.5,2.5c0.3,1.3,1.1,2,2.2,2
			L396.5,602.8z M409.7,388.6c0.4-0.3,0.6-0.7,0.6-1.1c0.1-0.4,0.1-0.7,0.1-1.1c0-0.4-0.1-0.7-0.2-1.1c-0.2-0.4-0.4-0.7-0.7-0.9
			c-0.3-0.2-0.6-0.3-0.7-0.3c-0.6,0-0.9,0.3-1,1.1c-0.1,0.7-0.1,1.3-0.2,1.7C407.7,388,408.3,388.6,409.7,388.6z M402.7,584.9
			c0.9-1.6,2-2.4,3.5-2.4c2.8-1.4,4.2-2.6,4.3-3.7c0-0.4-0.2-0.6-0.7-0.6l-1.6,0.5c-2.7,1-4.5,1.5-5.6,1.4c-1.1,0-1.7,1.4-1.8,4.4
			c-0.1,1.9,0,2.8,0.2,2.8C401.2,587.3,401.8,586.5,402.7,584.9z M409.6,568.7c0.8-0.3,1.8-0.9,3-1.8c1.2-0.9,1.8-1.9,1.8-3
			c0.1-1.1-0.8-1.7-2.7-1.8c-0.3,0-0.9,0.1-1.8,0.2c-0.9,0.1-1.9,0.7-3,1.5c-1.1,0.9-1.7,1.7-1.7,2.4c-0.1,1.5,0.8,2.3,2.5,2.3
			L409.6,568.7z M403.9,622.1l-0.3,0c-0.6,0-0.8-0.2-0.8-0.6c0-0.4,0.2-1.1,0.6-2.2c0.4-1.1,0.8-1.6,1.3-1.6c0.2,0,0.4,0.1,0.4,0.3
			c0,0.2,0.1,0.7,0,1.4C405,620.5,404.6,621.4,403.9,622.1z M411.3,620.8l-0.5,0c-0.6,0-0.8-0.4-0.8-1.2c0.1-1.1,0.4-1.9,1.1-2.5
			c0.7-0.5,1.1-0.8,1.3-0.8l0.3,1.1C412.6,618.6,412.1,619.7,411.3,620.8z M415.7,584.6c1,0,1.9-0.3,2.8-1c0.8-0.7,1.5-1.6,1.9-2.7
			c0.4-1.1,0.7-1.8,0.7-2.2c0-0.4-0.2-0.6-0.7-0.6l-2.6,0.4c-3,0.6-4.5,2-4.6,4.3C413.1,583.9,414,584.5,415.7,584.6z M425.1,564.9
			c3.4-0.2,5.2-1.4,5.3-3.7l0.2-1.1c0-0.7-0.2-1.1-0.8-1.2l-1.4,0.5c-5.7,0.5-8.6,1.8-8.7,4.1C419.7,564.3,421.5,564.7,425.1,564.9z
			 M435,504.4l10.7-2.3c3.1-0.6,5.3-1.8,6.7-3.6c1.3-1.8,2.2-2.7,2.7-2.7c1.4,0.1,3.4-2.4,6-7.6l1.2-4.4c-0.3-1.1-1.2-1.9-2.6-2.4
			c-4.2-0.2-7.6,0.8-10,2.9c-0.8,0.3-1.7,0.5-2.8,0.4l-0.5,0c-1.4-0.1-2.4,0.7-3.1,2.4c-0.7,1.7-2.7,2.4-6,2.2
			c-2.5-0.1-3.8,0.4-3.8,1.5c0,0.8,0,2,0.2,3.6c0.1,1.7,0.2,3.7,0.1,6.2S434,504.4,435,504.4z M444.8,376.8
			c-1.6-0.1-2.8-0.5-3.5-1.3c0-0.4,0.3-0.9,0.9-1.6c2.8-2.1,4.9-3.1,6.3-3.1c0.6,0,0.8,0.2,0.8,0.6
			C449.1,375.1,447.6,376.9,444.8,376.8z M440.6,577.4c0.5,0,0.7-0.9,0.8-2.8c0.1-1.9,1.1-2.7,3-2.7l4.6,0.2c3.3-1,5-1.9,5.1-2.8
			c0-0.9,0.2-1.5,0.6-1.6c0.3-0.2,0.6-0.3,0.7-0.3l1,0.6l2.4,0.1c0.1-0.4,0.2-1.3,0.3-2.8c0.2-3.7-0.3-5.6-1.5-5.7
			c-0.3,0-0.8,0.7-1.3,2.2c-0.5,1.5-4,2.4-10.3,2.9c-6.3,0.5-9.7,1.1-9.9,1.8l-0.1,2.8c1,5.3,2.3,7.9,3.9,8L440.6,577.4z
			 M446.1,497.1c-0.7,0-1.1-0.4-1.1-1.2c0.3-1.1,0.8-2.4,1.7-3.8c2.2-2.5,4.1-3.7,5.8-3.6c0.9,0,1.3,0.6,1.3,1.7
			c-0.1,1.1-0.8,1.6-2.3,1.6c-1.5-0.1-2.7,0.8-3.5,2.6C447.5,496.2,446.9,497.1,446.1,497.1z M461.5,378.1c-0.9,0-1.3-1.6-1.1-4.8
			c0.1-3.2-0.1-4.8-0.6-4.8c-0.6,0-1.4,0.4-2.5,1.3s-1.8,1.3-2.3,1.3c-0.5,0-0.7-0.4-0.6-1.1c0.1-1.1,0.6-1.7,1.6-1.6
			s2.1-0.6,3.1-2.1c1-1.4,2-2.1,2.9-2.1c0.5,0,1.1,0.5,1.9,1.5c0.8,1,1.2,2.4,1.1,4.2c0,0.8-0.3,1.9-0.7,3.3
			C463.3,376.5,462.4,378.2,461.5,378.1z M450.1,609.7c-0.8,0-1.2-0.4-1.1-1.2c0-0.4,0.4-1.1,1.2-2.2c0.8-1.1,1.6-1.6,2.4-1.6
			c0.4,0.8,0.6,1.3,0.6,1.7C453,608.7,452,609.7,450.1,609.7z M450.3,594c-0.3,0-0.5-0.2-0.5-0.6l0-0.6c0-0.4,0.2-0.9,0.5-1.6
			c0.3-0.7,0.8-1.1,1.5-1.1c0.3,0,0.6,0.2,0.8,0.6l0,0.6l-0.6,1.1C451.8,593.5,451.2,594.1,450.3,594z M478.3,373.3
			c-1.3-0.1-2-0.8-2.3-2.3c-1-1.2-2.5-1.8-4.4-1.9c-2-0.1-3-0.7-2.9-1.8s0.3-1.8,0.6-1.9c0.3-0.2,0.6-0.3,0.7-0.2l0.8,0.6
			c1,0,2.3-0.6,3.9-2.1c2.5-2.1,3.8-3.6,3.8-4.6c0-0.9,0.4-1.4,1.1-1.3c0.8,0,1.1,2.7,0.8,7.9C480.1,370.8,479.4,373.3,478.3,373.3z
			 M465.3,565.1c1.6,0.1,2.4-1.2,2.6-3.8c0.1-2.6-0.3-4.3-1.2-5.1c-0.9-0.8-1.4-1.9-1.3-3.4l0.5-3.3c0.1-1.1-0.4-1.7-1.5-1.8
			c-1.3-0.1-1.9,0.5-2,1.6c-0.1,1.1,0.2,2.2,0.6,3.4c0.5,1.1,0.7,2.1,0.6,2.8c-0.1,1.1-0.3,2.1-0.8,3c-0.5,0.9-0.8,1.7-0.8,2.5
			C461.9,563.6,463,565,465.3,565.1z M467.7,499.7c1.1-0.7,2-1,3-1c0.9,0,1.4-1.1,1.5-3.3c0.1-1.9-0.5-2.8-1.8-2.9
			c-1.4-0.1-2.1,0.6-2.1,1.9c-0.1,1.3-0.6,1.9-1.6,1.9s-1.6,0.3-1.6,1C465,498.9,465.9,499.7,467.7,499.7z M473.5,482.1
			c0.7-1.4,1.4-2.5,1.8-3c0.5-0.5,0.7-1,0.7-1.4c0-0.4-0.3-0.6-1-0.6c-1.4-0.1-2.1,1-2.2,3.3c-0.1,1.1,0.1,1.7,0.4,1.7L473.5,482.1z
			 M478,495.7c0.3,0,0.9,0,1.5-0.2c0.7-0.2,1.4-0.2,2.2-0.2c0.8,0,1.2-0.7,1.3-2.2c0.1-1.1-0.6-1.7-2-1.8l-1.9-0.1
			c-1.3-0.1-1.9-0.4-1.8-1.2c0-0.4,0.4-1,1-1.9c0.7-0.9,1-1.5,1-1.9c0-0.7-0.5-1.1-1.7-1.2c-2.4-0.1-3.6,1-3.7,3.2
			c0,0.8,0.1,1.7,0.4,2.8c0.3,1.1,0.7,2.2,1.3,3.1s1.2,1.4,1.7,1.5L478,495.7z M478.3,588l-1.9-0.1c-2.4-0.1-3.6-0.5-3.5-1.3
			c0-0.4,0.4-0.8,1.3-1.3c0.8-0.5,1.8-1,2.8-1.6c1-0.5,1.9-0.8,2.6-1c0.7-0.2,1.2-0.2,1.5-0.2c0.3,0,0.6,0.1,0.8,0.3
			c0.2,0.2,0.2,0.5,0.2,0.9l-0.1,1.1C481.1,586.7,479.9,587.7,478.3,588z M491.5,368.8c-0.3-1.5-0.6-2.9-1.1-4.2
			c-0.5-1.3-0.7-2.6-0.8-3.7l-0.3-1.1c0.9,0,3-0.2,6.4-0.8c3.3-0.6,5.2-1.2,5.6-2c0.4-0.7,1.4-1.1,3-1.3c1.5-0.1,3.3-0.3,5.4-0.6
			c4.9,0.2,11.5-1.1,19.8-4.1c5.6-2,9.6-2.9,12.1-2.8l1.5,0.6c0.6,0,1.3-0.1,2.3-0.4c1-0.3,1.7-0.7,2.3-1c0.5-0.3,0.9-0.5,1.1-0.5
			l0.7,0.6c0.8,0,2.3-0.6,4.5-2c5.7-3.5,17-5.9,33.8-7.4c4.5,0.2,7.7-0.8,9.4-2.9c1.1-1.1,1.8-1.6,2.3-1.6c0.5,0,0.7,0.4,0.6,1.1
			c-0.1,1.1-0.7,3-1.9,5.5c-1.2,2.6-2.4,3.8-3.5,3.8l-3.9-0.7c-0.5,0.4-0.7,1.1-0.8,2.2c-0.1,1.1-0.3,1.9-0.8,2.5
			c-0.5,0.5-1,0.8-1.6,0.8c-0.6,0-1.2,0.2-1.9,0.8c-0.7,0.5-1.4,1.2-2.1,1.9l-1.1,1.1l0.6-1.7c0.1-2.2-0.4-3.6-1.4-4.2
			c-1.1-0.6-1.8-0.9-2.3-0.9c-0.2,0-0.4,0.4-0.4,1.4c0,0.9-6.1,2.8-18,5.6c-2.5,0.6-4.1,1.4-4.8,2.3c-0.7,0.9-1.2,1.3-1.5,1.3
			s-0.7-0.4-1-1.2c-0.3-0.8-1.4-1.2-3.4-1.3c-10.8-0.5-16.3,1.1-16.5,4.8c0,0.4,0.3,0.8,0.9,1.2c0.6,0.4,0.9,1.2,0.8,2.3
			c-0.1,2.6-1.2,3.9-3.2,3.8c-2-0.1-3-0.7-3-1.8c0.1-1.5,0.5-2.2,1.2-2.2s1.1-0.7,1.2-2.2c0.1-1.1-0.4-1.7-1.5-1.7l-2.6,0.4
			c-1.1-0.1-1.7-0.4-1.7-1.2c0-0.7-0.1-1.1-0.4-1.1c-0.1,0-0.4,0.5-0.8,1.4c-0.4,0.9-1.1,1.3-2,1.3l-2.5-0.7c-0.5,0-0.8,0.3-1.2,1.1
			c-0.3,0.7-2.4,1-6.1,0.8c-3.8-0.2-5.7,0.3-5.7,1.4c-0.1,1.1-0.8,1.6-2.4,1.6c-1.5-0.1-2.4,0.5-2.7,1.6c-0.3,1.1-0.6,1.6-1.1,1.6
			c-0.6,0-1.4-0.8-2.6-2.4c-1.2-1.5-2.2-2.3-3-2.4C495.1,361.2,493.7,363.7,491.5,368.8z M492.7,483.5c0.4-0.3,0.9-1.4,1.5-3
			c0.6-1.6,1-3,1-4.1c0-0.7-0.3-1.1-1-1.2c-0.8,0-1.8,0.8-2.9,2.4c-1.2,1.6-1.8,2.8-1.8,3.6c0,0.8,0.3,1.3,0.9,1.7
			c0.6,0.4,1.1,0.6,1.6,0.6L492.7,483.5z M494.9,492.6l2.6-0.4l3.5-1l-5.7-1.9c-1.1-0.1-1.7,0.3-1.8,1
			C493.4,491.8,493.9,492.5,494.9,492.6z M517.6,569.7c-1.6-0.1-2.4-0.8-2.3-2.3c0.1-1.1,0.9-1.6,2.5-1.6c1.7,0.1,2.5,0.7,2.5,1.8
			C520.2,569,519.3,569.7,517.6,569.7z M549.4,387.7c0.6,0,1.4-0.1,2.6-0.4c1.2-0.3,2.4-0.6,3.6-1c1.3-0.3,2.4-0.4,3.3-0.4
			c2,0.1,3.7-0.8,5.1-2.6c1.3-1.8,2-3.4,2.1-4.9c0.2-3.3-0.6-5.1-2.3-5.1c-0.8,0-1.7,0.7-2.7,2.1c-1,1.4-2,2.1-2.7,2.1l-1.2-0.1
			c-1,0-1.9,0.9-2.5,2.7c-1.5,2.9-3,4.3-4.4,4.3c-1.4-0.1-2.2,0.7-2.2,2.1C547.9,387.3,548.4,387.6,549.4,387.7z M554.4,474.6
			l-0.7,0c-0.6,0-0.9-0.4-1-1.2c0-0.7,0.3-1.6,0.9-2.5c0.6-0.9,1.2-1.3,1.9-1.3c0.3,0,0.5,0.2,0.5,0.6
			C555.8,472.1,555.3,473.5,554.4,474.6z M571,502.8c0.9,0,1.9-0.7,2.8-2.1c1-1.4,1.5-2.5,1.5-3.3c-0.1-0.7-0.4-1.1-0.8-1.2
			c-0.5,0-1,0.3-1.6,1c-0.6,0.7-1.3,1.1-2.1,1c-0.8,0-1.8-0.4-2.9-1.3c-1.2-0.8-2-1.2-2.4-1.2c-0.4,0.4-0.6,1.1-0.6,2.2
			c-0.1,3,1.3,4.5,4.4,4.7L571,502.8z M577.4,385.6c1.5,0.1,2.5-0.5,3.2-1.8c0.6-1.3,2.6-1.8,5.8-1.7c3.2,0.1,5.1-0.4,5.7-1.7
			c0.6-1.3,1-1.9,1.4-1.9c0.6,0,1.2,0.5,1.8,1.5s1.1,1.4,1.5,1.5c0.1,0,0.2,0,0.3,0c0.1,0,0.2-0.6,0.3-1.9c0.1-1.3,0.4-1.9,1.1-1.9
			l1,0c0.2-0.4,0.4-1.2,0.5-2.5c0.1-1.3,0.4-1.9,1.1-1.9l2.2,0.7c1.7,0.1,2.6-1.6,2.8-4.9c0.1-1.9-0.4-2.8-1.6-2.9
			c-0.9,0-2,0.3-3.2,1c-1.2,0.7-2.5,1.3-3.9,1.8c-1.4,0.5-2.7,0.7-4,0.7c-2.8,0.6-4.2,1.5-4.2,2.6c0,0.8,0.3,1.4,0.9,2
			c0.7,0.6,1,1.1,1,1.4c0,0.4-0.6,0.5-1.7,0.5c-1.9-0.1-2.9-1-2.8-2.6c0.1-1.7-1.6-2.6-5-2.8c-3-0.1-4.6,0.4-5,1.7
			c-0.4,1.3-0.7,4.2-0.9,8.6C575.4,384,576,385.5,577.4,385.6z M595.1,398.2c0.9,0,1.4-0.9,1.5-2.7c0.1-2.2-0.3-3.4-1.2-3.4
			c-0.8,0-1.2,1.1-1.3,3.3C594,397.2,594.3,398.1,595.1,398.2z M601.5,396.2c2.5-0.6,3.8-1.5,3.9-2.6c-0.1-0.7-0.9-1.2-2.5-1.2
			c-0.7,0-1.5,0.1-2.3,0.4c-0.9,0.3-1.5,0.8-1.9,1.3c-0.4,0.5-0.6,1-0.6,1.4c0,0.4,0.6,0.6,1.9,0.6L601.5,396.2z M600.6,409.6
			c4.5,0.2,7.5-0.6,9-2.4c0.8,0,1.2-0.9,1.3-2.7c0-0.7-0.1-1.1-0.3-1.1c-0.2,0-0.6,0.3-1.1,0.8c-0.5,0.5-1.3,1.1-2.3,1.6
			c-1,0.5-2,0.8-3,1c-1,0.1-1.8,0.5-2.6,1c-0.8,0.5-1.3,1-1.5,1.3l-0.3,0C599.7,409.4,600,409.6,600.6,409.6z M610.3,373.1
			c1.4-1.1,2.2-3.4,2.4-7.2c0.1-1.5-0.5-2.3-1.6-2.3c-0.6,0-1.2,0.6-1.8,1.9c-0.6,1.3-1,2.7-1,4.1c-0.1,2.2,0.3,3.4,1.2,3.4
			L610.3,373.1z M613.1,408.5c0.8,0,1.2-0.5,1.3-1.6c0.1-1.5-0.3-2.3-1.1-2.3c-0.8,0-1.2,0.7-1.3,2.2
			C611.9,407.9,612.3,408.4,613.1,408.5z M622.2,393.2c1.9,0.1,3.2-1.2,3.7-3.8c0.5-2.6,1.1-3.9,1.7-3.8c0.6,0,0.9-0.1,1-0.5
			l-0.6-1.1c-0.3-0.8-1-1.2-2-1.2c-1.7-0.1-3.2,0.7-4.5,2.3c-1.3,1.6-2.4,2.4-3.3,2.4c-1,0-1.8-0.6-2.3-1.8c-0.3,0-0.5,0.2-0.5,0.5
			c0,0.8,0.3,1.7,1.1,2.8c0.7,1.2,1.6,2.1,2.7,2.9C620.1,392.8,621.1,393.2,622.2,393.2z M609.6,538.1c-0.8,0-1.2-0.6-1.1-1.7
			c0.1-1.5,0.5-2.2,1.3-2.2c0.8,0,1.2,0.8,1.1,2.3C610.8,537.6,610.4,538.1,609.6,538.1z M612,516.4l-0.3,0c-0.6,0-0.8-0.6-0.8-1.7
			l0.1-1.1c0.1-0.7,0.4-1.4,0.8-1.9c0.4-0.5,0.7-0.8,1.1-0.8c0.8,0,1.2,0.6,1.1,1.7C613.8,514.4,613.1,515.7,612,516.4z
			 M625.4,379.4l0.2-1.7c0.1-1.1-1-1.7-3.2-1.8l-0.5,0c0,0.4,0.4,1,1.1,1.7c0.8,0.8,1.4,1.4,2,1.8L625.4,379.4z M632.6,539.1
			c-0.1,0-0.4-0.2-0.8-0.6c-0.4-0.4-0.8-1.1-1-2c-0.2-0.9-0.3-2-0.3-3.1c0.1-1.1-0.4-1.7-1.3-1.7c-0.2,0-0.6,0.1-1,0.2
			c-0.5,0.2-0.9,0.6-1.3,1.3c-0.4,0.7-0.6,1.5-0.6,2.2l0.1,0.6c-0.1,1.9-0.9,2.8-2.3,2.7c-1.1-0.1-2.5-0.9-4-2.4
			c-0.9-0.8-1.3-1.5-1.3-2.3c0-0.4,0.4-1,1.3-1.9c0.8-0.9,2.1-1.3,3.8-1.2c1.7,0.1,3.2-0.8,4.6-2.6c0.6-1.5,1.7-2.2,3.2-2.1l4,1.3
			c0.9,0,1.4-0.5,1.4-1.6c0.1-1.1,1.1-2.2,3.1-3.2l6.4-2.5c0.2,0,0.3,0.2,0.3,0.6c0,0.4-0.3,0.9-0.8,1.6c-0.5,0.7-0.9,1.6-1.3,2.7
			c-0.4,1.1-0.6,2.5-0.7,4.2c-0.1,1.7-2.1,3.2-5.9,4.5c-3.9,1.3-5.8,2.5-5.9,3.6L632.6,539.1z M630.9,336.6c-0.3,0-0.8-0.4-1.3-1.2
			c-0.5-0.8-0.8-1.7-0.7-2.8c0.1-1.1,0.6-1.6,1.6-1.6s1.5,1,1.4,2.9C631.8,335.7,631.5,336.6,630.9,336.6z M633.6,393.8
			c1.7,0.1,3.1-0.4,4.1-1.5c1-1.1,3.1-2.3,6.2-3.6c2.1-1.4,3.2-2.5,3.2-3.2c0.1-1.1-0.5-1.7-1.6-1.8l-3.3,0.4
			c0.1-1.1,1.8-4.4,5.4-9.8c5-7.2,8.2-10.8,9.5-10.8c1.4,0.1,2.3-0.8,2.9-2.7c0.5-1.8,1.5-3.1,3-3.8c1.5-0.7,2.2-1.4,2.2-2.1
			c0.1-1.1-0.6-1.7-1.8-1.8l-1.7,0.5c-2.7,1.7-9.8,3.3-21.4,4.6c-4.8-0.2-7.7,0.6-8.7,2.4c-0.7,0.7-1.3,0.9-1.7,0.5l-0.7,0
			c-0.5,0-0.8,1.6-0.9,5c-0.2,3.7,0.1,5.6,0.8,5.6l1.2-0.5c0.9,0,1.3,2.5,1,7.3c-0.2,4.8-0.3,8.6-0.3,11.2
			C631,392.3,631.9,393.7,633.6,393.8z M632.1,419.4c1.2,0.1,1.9-0.5,2-1.6c0.1-1.5-0.8-2.3-2.5-2.3c-1,0-1.6,0.5-1.6,1.6
			C629.9,418.6,630.6,419.3,632.1,419.4z M637,330.7l-0.7,0c-1.5-0.1-2.2-0.3-2.2-0.7l0.5-0.5c1.4,0.1,2.1,0.3,2.4,0.7l0.3,0
			L637,330.7z M635.8,378.2c-0.3,0-0.8-0.4-1.4-1.2c-0.6-0.8-0.8-2.3-0.7-4.5c0.1-3,0.5-5.4,1-7.2c0.5-1.8,1-2.7,1.3-2.7
			c0.8,0,1.1,1.2,1,3.4c-0.1,2.2,0.2,4,0.8,5.4c0.6,1.3,0.9,2.4,0.9,3.1C638.6,377,637.7,378.3,635.8,378.2z M636.3,405.6
			c1.4,0.1,3.3-0.9,5.8-2.8c2.5-1.9,5.4-2.8,8.7-2.7c4.3-0.9,6.4-1.6,6.4-1.9c0-0.7-1.3-1.2-4-1.3c-7.5-0.3-11.7,0.2-12.6,1.7
			c-0.9,1.5-1.6,2.2-2.3,2.1c-0.5,0-1-0.3-1.7-0.9c-0.7-0.6-1.2-0.9-1.5-0.9c-0.5,0-0.7,0.9-0.8,2.8
			C634.2,404.2,634.8,405.5,636.3,405.6z M642.1,372.3c-0.2,0-0.5-0.4-0.8-1.2c-0.3-0.8-0.4-1.5-0.4-2.3l0-0.6
			c0.1-1.1,0.4-1.7,1.1-1.6c0.7,0,1,1,0.9,2.8C642.8,371.4,642.5,372.3,642.1,372.3z M648,333.4c-0.6,0-1.2-0.3-1.8-0.9
			c-0.7-0.6-1-1.3-0.9-2c0-0.7,0.5-1.1,1.4-1.1c1.7,0.1,2.6,1,2.6,2.9C649.2,333.1,648.8,333.5,648,333.4z M649.1,345.3l-0.9,0
			c-1.1-0.1-1.7-0.6-1.6-1.8s0.9-1.6,2.5-1.6c1.1,0.8,1.7,1.4,1.8,1.8C650.9,344.8,650.3,345.3,649.1,345.3z M653.2,335.4l-0.5,0
			c-0.2,0-0.4,0-0.5,0c-0.1,0-0.3-0.3-0.6-0.9c-0.3-0.6-0.4-1-0.4-1.4c0.1-2.2,1.3-3.3,3.6-3.2c1.4,0.1,2,0.6,2,1.8l0,0.6
			c0,0.8-0.6,1.5-1.6,2.2C654.2,335,653.5,335.4,653.2,335.4z M652.9,390.7c0.7,0,1.3-0.3,1.9-1c0.6-0.7,1.2-1.6,1.7-2.7
			c0.5-1.1,0.8-2,0.8-2.8c0.1-1.9-0.3-2.8-1.1-2.8l-1.4,1.1c-0.9,0-1.3-0.4-1.3-1.2c0.1-1.5,0.8-2.2,2.3-2.1
			c1.5,0.1,2.3-1.2,2.4-3.8c0.1-1.9-0.3-2.8-1.1-2.8c-0.3,0-0.8,0.3-1.5,1.1c-0.7,0.7-1.6,1-2.9,1l-1.9-0.6c-0.2,0-0.4,0.2-0.4,0.5
			l0.3,1.7c-0.1,0.7-0.4,1.3-0.8,1.6c-0.4,0.4-0.6,1.3-0.6,2.8c-0.1,1.9,0.3,4,1.1,6.5C651.3,389.4,652.1,390.7,652.9,390.7z
			 M661.1,413.5c1.4,0.1,2.5-0.2,3.4-0.7c0.9-0.5,2.5-0.9,4.7-1.2c0.5,0,0.7-0.1,0.7-0.5c0-0.7-0.6-1.9-1.8-3.4
			c-1.2-1.5-2.8-2.4-4.6-2.4l-2.1,0.5c-2.7-0.1-4.1-0.6-4-1.6s-0.3-1.4-1-1.4c-1.3-0.1-2,2-2.2,6c-0.1,1.5,0.1,2.6,0.6,3.4
			c0.5,0.8,1.9,1.2,4.1,1.3L661.1,413.5z M657.1,526.8c-3.6-0.2-5.4-1.7-5.3-4.7c0.1-2.2,2-3.3,5.6-3.1c3.1,0.1,4.6,0.6,4.7,1.3
			l-0.1,2.8C661.7,525.7,660.1,526.9,657.1,526.8z M664.5,338.7c-1.9-0.1-2.8-1.4-2.7-4c0.2-3.7,1-5.5,2.6-5.5l1.7,1.2l-0.1,1.1
			l0,0.6c0,0.4,0.1,0.6,0.4,0.6c0.3,0,0.5,0.3,0.7,0.9c0.2,0.6,0.3,1.2,0.3,2C667.3,337.3,666.3,338.4,664.5,338.7z M676.5,334.7
			c-0.8,0-1.2-0.6-1.1-1.7c0.1-1.1-0.3-1.7-0.9-1.7l-4,0.9c-0.7,0-1-0.4-1-1.2l0-0.6c0.4-1.5,2.1-2.5,5.1-3.1
			c3.1,0.1,4.6,0.8,4.5,1.9c-0.1,1.1-0.4,1.7-1,1.6c-0.6,0-1,0-1,0.2s-0.1,0.5-0.1,0.8l0.4,2.3C677.3,334.6,677,334.8,676.5,334.7z
			 M671.9,377.6l-1.4-0.1c-1.5-0.1-2.2-0.7-2.1-1.8c0-0.7,0.6-1.7,1.7-3c1.1-1.3,2.4-1.9,3.8-1.8c1.8,0.1,2.7,0.7,2.7,1.8
			c0,0.8-0.6,1.7-1.6,2.7C674,376.6,673,377.3,671.9,377.6z M671.1,528.5c-0.3,0-0.5-0.2-0.5-0.6c0-0.4,0.2-0.7,0.6-1.1
			c1.1-1.8,1.7-3.5,1.8-4.9c-0.2-1.1-0.8-1.7-2-1.8c-0.6,0.4-1.2,0.5-1.9,0.5c-0.5,0-0.8-0.1-1.1-0.3c-0.3-0.2-0.4-0.5-0.4-0.9
			c0-0.4,0.6-1.3,1.7-2.7c3.2-3.2,6.8-5.1,10.9-5.7c3-0.6,4.9-1.4,5.8-2.2c0.9-0.9,3-1.5,6.4-1.9c3.4-0.4,7.2-0.8,11.4-1.2
			c4.2-0.4,7.7-0.5,10.3-0.4c2.6,0.1,4.4-0.4,5.3-1.7c0.9-1.3,1.9-1.9,3.1-1.8c2.1,0.9,3.1,2.9,3,6.3c0,0.4-0.2,1.2-0.5,2.5
			c-0.3,1.3-0.9,1.9-1.7,1.9c-0.5,0-1.2-0.4-2.1-1.2c-0.9-0.8-1.9-1.4-2.9-1.8c-1,0-1.9,0.1-2.6,0.4c-0.7,0.3-1.9,0.6-3.6,0.7
			c-1.7,0.1-3.5,0.1-5.5,0l-2.9-0.7c-2.8-0.1-5.2,0.5-6.9,1.9c-0.9,0.7-2.4,1-4.2,0.9c-1.9-0.1-3.7,0.2-5.4,0.9
			c-5.3,2.8-7.9,4.7-8,5.8c-0.1,1.1-0.2,1.7-0.6,1.7l-1.4-0.1l-0.7-0.6c-0.8,0-1.2,0.7-1.3,2.2c-0.1,1.5-0.5,2.9-1.2,4.1
			S672.2,528.6,671.1,528.5z M676,464.5c0.1,0,0.3-0.2,0.5-0.5c0.2-0.4,0.4-0.7,0.6-1.1c0.2-0.4,0.4-0.7,0.4-1.1
			c0-0.7-0.2-1.1-0.6-1.1c-0.8,0-1.2,0.7-1.3,2.2C675.6,463.9,675.7,464.4,676,464.5z M684.5,352.4c-0.2,0-0.3-0.6-0.3-1.7
			c0.1-1.1,0.5-2.4,1.2-3.9c1.9-3.6,3.5-5.4,4.8-5.4c1.3,0.1,3-3.2,5-9.8c1.3,1.2,2.6,2.4,3.8,3.8c1.2,1.4,2.5,2.4,3.7,3.2
			c1.2,0.8,2.2,1.2,3,1.3c0.8,0,1.6,0.5,2.5,1.2c0.9,0.8,1.7,1.7,2.3,2.9c0.7,1.1,1.2,1.7,1.5,1.8c0.2,0,0.4-0.3,0.4-1.1
			c0.2-4.5,5-6.8,14.5-7.2c4.9-0.9,8.1-1.9,9.6-2.9s2.5-1.6,3.1-1.5c1.3,0.8,1.9,2.7,1.8,5.7c-0.1,1.5-0.5,3-1.4,4.4
			c-0.9,1.5-1.4,2.2-1.5,2.2l0.8-5.6c0.1-1.1-0.1-1.7-0.4-1.7c-0.6,0-1.9,1-3.9,3.2c-2,2.1-3.7,3.2-4.9,3.1l-1.3-0.6
			c-0.8,0-1.7,1-2.7,3.2c-2.7,4-5.9,5.9-9.7,5.7c-1.3-0.1-1.9-0.9-2-2.6c-0.1-1.7-0.6-2.6-1.5-2.6l-2.1,0.5
			c-1.7,0.7-5.2,0.9-10.3,0.7c-5.1-0.2-7.9,0-8.2,0.7c-0.4,0.7-0.7,1.1-1.1,1.1c-0.6,0-1-0.2-1.4-0.6c-0.4-0.4-0.7-0.6-0.9-0.6
			c-0.6,0-1.4,0.5-2.4,1.6C685.6,351.9,684.9,352.5,684.5,352.4z M687.4,335.2c-0.7,0-1-0.6-0.9-1.7c0.1-1.9,0.3-2.9,0.7-3
			c0.4-0.2,0.7-0.2,0.9-0.2c0.5,0,0.6,0.8,0.6,2.3C688.6,334.4,688.2,335.3,687.4,335.2z M698.8,479.5c1.9,0.1,2.9-0.5,3-1.8
			s0.5-1.9,1.5-1.9l3.9,1.3c0.8,0,1.4-0.4,1.7-1.3c0.3-0.9,1.9-1.7,4.6-2.3c2.8-0.6,4.2-1.5,4.2-2.6c0-0.7-4.6-1.3-13.9-1.8
			c-9.1-0.4-13.7-0.2-13.7,0.5c0,0.8-0.1,1.3-0.1,1.7c-0.1,2.2,0.8,3.4,2.7,3.5c1.9,0.1,2.9,0.9,3,2.4
			C695.7,478.6,696.7,479.4,698.8,479.5z M704,346.1c0.8,0,1.2-0.7,1.3-2.2c0.1-1.1-0.3-1.7-1.1-1.7c-0.7,0-1.1,0.5-1.3,1.6
			C702.8,345.3,703.2,346,704,346.1z M704.8,414.3l0.5-0.5l-2-0.7c-1.7-0.1-2.6,0.1-2.6,0.4C700.7,414,702.1,414.2,704.8,414.3z
			 M700,460c-0.7,0-1-0.8-0.9-2.3c0.1-1.1,0.6-1.6,1.8-1.6c1,0,1.5,0.4,1.5,1.2l-0.4,0.5c-0.3,0.7-0.6,1.3-0.9,1.6
			C700.7,459.8,700.4,460,700,460z M707.6,360.2c-0.3-0.4-0.5-1.1-0.4-2.3c0.1-1.1,0.5-1.7,1.3-1.6c0.3,0,0.6,0.2,0.7,0.6
			c0.1,0.4,0,0.9-0.4,1.7C708.3,359.3,708,359.9,707.6,360.2z M720.6,330.6l-0.5,0c-1,0-1.5-0.8-1.4-2.3c0-0.4,0.3-0.9,0.8-1.6
			c0.5-0.7,1.2-1.1,2.1-1c1.2-1.1,2.5-1.6,3.8-1.5c0.3,0,0.5,0.2,0.5,0.6c0,0.8-0.7,1.9-2.1,3.5
			C722.3,329.8,721.3,330.6,720.6,330.6z M721.2,396c4.1,0.2,8.5-2,13.1-6.7l1-0.5c0.7,0,1,1,1,2.8c0,1.9,0.2,2.8,0.8,2.8
			c0.9,0,1.4-0.5,1.4-1.6s0.2-1.7,0.6-1.7c0.1,0,0.4,0.3,0.8,0.9c0.4,0.6,1.1,0.9,2,0.9c1.4,0.1,3.5-0.6,6.5-1.9c3-1.3,5-2,6.2-2
			c0.8,0,1.3,0.3,1.4,0.9c0.1,0.6,0.4,0.8,0.9,0.9c0.9,0,2.3-0.6,4-2.1c2.5-1.4,5.3-2,8.5-1.9c1.9,0.1,3-1.3,3.1-4.3
			c0.1-1.5-0.2-3.4-0.9-5.6c-0.7-2.3-1.6-3.4-2.6-3.5l-6.4,1.9c-3.4-0.2-5.8,0.7-7.1,2.5c-0.7,1.1-1.4,1.6-2,1.6
			c-0.3,0-0.6-0.6-0.8-1.7c-0.2-1.1-1-1.7-2.6-1.8c-1.5-0.1-2.5-0.3-3-0.7c-0.4-0.4-0.9-0.6-1.3-0.6c-0.6,0-1,0.1-1.2,0.2
			c-0.2,0.2-0.7,0.8-1.3,1.9c0.2,0.4,0.3,1.1,0.2,2.2c-0.4,0.7-0.8,1.1-1.4,1.1c-0.3-0.8-0.5-1.3-0.4-1.7c0-0.4-0.5-0.6-1.5-0.6
			c-2.3-0.1-4.2,1.3-5.7,4.2c-0.4,0.7-1.4,1.1-3,1l-6.6-1.4c-1,0-1.8,0.3-2.2,1c-0.4,0.7-1.7,1.8-3.8,3.2c-1.3,0.7-2.1,1.4-2.3,2.1
			c-0.3,0.7-0.4,2-0.5,3.9C716.8,394.6,718.5,395.9,721.2,396z M727.7,321.4c-0.2,0-0.4-0.6-0.4-1.7c0.2-1.5,0.7-2.2,1.5-2.2
			c0.3,0,0.6,0.2,0.7,0.6c0.1,0.4,0,1-0.4,1.9C728.5,321,728.1,321.4,727.7,321.4z M722.8,470.5c0.7,0,1.3-0.1,1.9-0.5
			c0.6-0.3,1.1-0.8,1.4-1.3c0.4-0.5,0.6-1.2,0.6-1.9c-0.1-1.1-0.4-1.7-1.1-1.7c-1.1-0.1-2.3,0.7-3.3,2.1c-1.1,1.4-1.6,2.4-1.7,2.7
			C720.6,470.2,721.3,470.4,722.8,470.5z M734,506.8c-1.3-0.1-2-0.2-2.1-0.4c-0.2-0.2-0.2-0.5-0.2-0.9c0-0.7,0.8-1.8,2.2-3.3
			c0.3,0,0.6,0.2,0.7,0.6c0.2,0.4,0.6,0.6,1.4,0.6l3.8-3.8c0.1,0,0.1,0.5,0.1,1.4c0,0.9,0,1.4,0.3,1.4l0.5-0.5
			c0.7-1.4,3.9-3,9.4-4.6c5.5-1.6,8.6-2.8,9.1-3.5c0.5-0.7,1.1-1.1,1.7-1l0.5,0.6c0.1,0,0.4-0.3,0.7-1.1c1-1.8,3.9-2.9,8.6-3.2
			c4.7-0.4,7.2-0.7,7.4-1.1c0.2-0.4,0.3-0.5,0.5-0.5c0.2,0,0.4,0.1,0.7,0.3c0.2,0.2,0.6,0.7,1.1,1.4c0.5,0.8,1,1.2,1.3,1.2
			c0.1,0,0.2-0.5,0.2-1.7c0.1-1.1,1.5-1.6,4.3-1.5c2.8,0.1,5-0.7,6.6-2.5c1.6-1.8,2.6-2.7,3-2.7c0.3,0,0.6,0.6,0.8,1.7
			c0.2,1.1,0.9,1.7,2.1,1.8c1,0,1.6-0.7,1.6-2.2c0.1-1.5,1.1-2.2,3-2.1c1.7,0.1,3,0.7,4,1.9c1.6,1.9,3.9,3,6.9,3.1
			c2.2,0.1,3.3-0.3,3.3-1.2c0-0.9,1.3-1.3,3.8-1.2c2.5,0.1,4-0.3,4.5-1.2c0.5-0.9,1.5-1.3,3-1.3c1.6,0.1,2.3,2,2.1,5.7
			c-0.3,3.3-0.7,5.7-1.3,6.9c-0.6,1.3-2.2,1.8-4.8,1.7c-2.5-0.1-4.4-0.9-5.8-2.5c-1.4-1.5-2.4-2.3-3.1-2.4c-0.9,0-1.4,0.9-1.5,2.7
			c-0.1,1.9-0.5,2.8-1.2,2.7c-0.7,0-1.2-0.7-1.5-2c-0.3-1.3-0.6-2-0.9-2c-0.1,0-0.5,0.6-1,1.9c-0.6,1.3-1.4,1.9-2.5,1.8
			s-1.6,0.5-1.7,1.6c-0.1,1.1-0.1,1.7-0.2,1.7l-1-1.2c-0.3-1.5-0.5-2.3-0.8-2.3c-0.4,0.4-0.7,1.2-1.1,2.5c-0.4,1.3-0.7,1.9-0.9,1.9
			c-0.2,0-0.4,0-0.5,0c-0.3,0-0.8-0.4-1.3-1.2c-0.5-0.8-1.5-1.2-3-1.3c-0.9,0-2,0.2-3.2,0.7c-1.2,0.5-2.3,0.8-3.4,1
			c-1,0.1-1.7,0.2-2.1,0.2l-0.5-0.6l-0.9,0.5c-1.4,1.4-2.7,2.1-3.7,2.1l-1-0.6c-0.4,0.4-0.8,1.1-1.4,2.2c-0.6,1.1-3.1,1.6-7.5,1.6
			c-4.4,0-6.9,0.3-7.4,1.1c-0.5,0.7-1.9,1-4.1,0.9c-6.1-0.3-10.2-1-12.2-2.2l-4.3,1.5c-1.4-0.1-2.6-0.4-3.7-1c-1.1-0.6-2-0.9-2.7-1
			c-0.6,0-1,0.2-1.2,0.8c-0.3,0.6-0.8,1-1.5,1.3C735.5,506.7,734.8,506.8,734,506.8z M744.8,323.9l-1.4-0.1c-0.9,0-1.4-0.3-1.3-0.6
			c0-0.4,0.7-0.5,2.1-0.5c0.6,0,0.9,0.2,1,0.6L744.8,323.9z M746.5,444.2l-0.5-0.6c-0.3-0.8-0.5-1.5-0.6-2.3c0-0.7,0.4-1.1,1.2-1.1
			c1,0,1.5,0.4,1.5,1.2c0,0.4-0.2,0.9-0.6,1.6C747.2,443.8,746.9,444.2,746.5,444.2z M746.9,493.4c-0.5,0-0.7-0.6-0.6-1.7
			c0-0.4,0.3-0.9,0.8-1.6c1.4-1.4,2.7-2.1,3.7-2.1l0.3,0c0,0.4-0.6,1.4-1.8,3C748.1,492.6,747.3,493.4,746.9,493.4z M755.1,489.9
			c-1.6-0.1-2.4-0.3-2.4-0.7c0-0.4,0.3-0.7,0.7-1.1c0.5-0.3,1.1-0.6,1.7-0.8c0.7-0.2,1.3-0.2,1.7-0.2c0.4,0.4,0.6,0.8,0.6,1.1
			C757.5,489.4,756.7,489.9,755.1,489.9z M772.7,343.6c-0.2,0-0.4-0.4-0.5-1.1c-0.1-0.7,0.1-1.8,0.5-3c0.4-1.3,0.8-1.9,1.1-1.9
			c0.2,0,0.3,0.9,0.2,2.8C773.9,342.5,773.5,343.6,772.7,343.6z M773.7,433.7c-1.4-0.1-2-0.8-1.9-2.3c0-0.4,0.1-0.8,0.3-1.4
			c0.2-0.6,0.6-1.2,1.1-1.9c0.5-0.7,1-1.1,1.3-1.1c0.8,0,1.1,1.2,1,3.4C775.5,432.6,774.8,433.7,773.7,433.7z M776,386.8
			c0.5,0,1-0.7,1.6-2.2c0.3-0.7,0.8-1.4,1.6-2.2c0.8-0.7,1.7-1.4,2.9-2.1c1.2-0.7,1.8-1.6,1.8-2.7c0.1-1.1-0.6-1.7-1.8-1.8l-2-0.1
			c-1,0-1.5-0.4-1.5-1.2c0-0.7-0.1-1.1-0.3-1.1c-0.2,0-0.9,0.7-1.9,2.2c-1,1.4-1.6,3.5-1.7,6.1C774.6,385.1,775.1,386.8,776,386.8z
			 M777.6,347.7c-0.7,0-1-1.2-0.9-3.4l0.3-3.3c1.1-5.9,2-8.9,2.8-8.8c0.5,0,0.9,0.6,1.5,1.7c0,0.8-0.2,1.3-0.4,1.7l0.4,1.7
			c0.8,0.4,1.9,0.7,3.4,0.7c1.5,0.1,2.3-0.1,2.6-0.4c1-1.8,2.5-2.7,4.6-2.6c2.2,0.1,3.2,1.3,3.1,3.5c-0.2,3.7-3.6,5.4-10.3,5.1
			c-3.1-0.1-4.9,0.5-5.5,2C778.6,347,778,347.7,777.6,347.7z M779.9,365.2c-1,0-1.5-1-1.4-2.9c0-0.4,0.1-0.9,0.2-1.7
			c0.1-0.7,0.5-1.1,1.2-1.1c0.6,0,0.8,1,0.7,2.8C780.4,364.3,780.2,365.2,779.9,365.2z M782.6,406.7c0.3,0,0.7-0.4,1.1-1.3
			c0.4-0.9,0.6-1.6,0.6-1.9c-0.1-0.4-0.4-0.6-0.8-0.6c-0.8,0-1.2,0.5-1.3,1.6C782.1,405.9,782.3,406.7,782.6,406.7z M787.8,361
			c-0.3,0-0.5-0.2-0.5-0.6c0.1-1.9,0.6-3.7,1.6-5.5c0.4-0.7,1.2-1.1,2.4-1c3.5,0.2,5.2,1.2,5.2,3c-0.1,1.5-0.2,2.4-0.5,2.8
			c-0.1,0-0.3-0.5-0.6-1.4c-0.3-0.9-0.6-1.4-0.8-1.4c-0.3,0-0.6,0.3-0.8,0.8c-0.2,0.6-0.6,1.1-1.4,1.6c-0.7,0.5-1.5,1-2.5,1.3
			C789.1,360.9,788.3,361.1,787.8,361z M799.1,359.9c-0.1,0-0.3-0.4-0.6-1.1c-0.3-0.8-0.4-1.5-0.4-2.3c0.1-1.5,0.4-2.2,1.1-2.2
			c0.7,0,1,1,0.9,2.8C800,359,799.7,359.9,799.1,359.9z M805.1,343.4l-2.6-0.1c-1.4-0.1-2.2-0.2-2.5-0.4c-0.3-0.2-0.3-3.8,0.1-10.9
			c0.2-4.8,0.5-7.6,0.7-8.4c0.5,0,1,1,1.6,2.9c1.9,3.8,4.1,5.8,6.7,5.9l2.6-0.4c2.1-0.6,3.2-2.1,3.3-4.3c0.1-1.1-0.6-1.9-1.9-2.3
			l-1.5-0.1c0-0.4,0.5-1,1.5-1.9c1-0.9,1.9-1.3,2.7-1.3c1.2,0.1,1.8,1.6,1.7,4.5l-0.4,5c-0.1,1.5-0.1,2.8,0,3.9
			c0.1,1.1,1.5,1.8,4.4,1.9c7.2,0.3,11.5-0.8,13-3.3c0.5-1.1,0.9-1.6,1.3-1.6c0.3,0,0.8,0.9,1.3,2.6c0.5,1.7,1.1,2.6,1.9,2.6
			l0.5-0.5c0.8,0,1.5,0.8,2.1,2.3c0.6,1.5,0.9,2.5,0.9,2.8l-1.5-0.6c-2.7-0.1-4.6,0.2-5.6,0.9c-1,0.7-1.8,1-2.5,1
			c-0.6,0-0.9-0.4-1.1-1.2c-0.1-0.7-0.3-1.2-0.5-1.4c-0.2-0.2-0.4-0.3-0.7-0.3c-0.1,0-0.4,0.3-0.8,0.8c-0.4,0.5-2.1,0.9-5,1.2
			c-2.9,0.2-6.2,0.5-9.9,0.7C811.1,343.5,807.9,343.5,805.1,343.4z M805.2,354.6c-0.3,0-0.6-0.2-0.7-0.6l0-0.6
			c0-0.4,0.2-0.9,0.4-1.7c0.3-0.7,0.6-1.1,1.1-1.1c0.3,0,0.5,0.8,0.4,2.3C806.4,354.1,805.9,354.6,805.2,354.6z M811.7,402.4
			c1.4-1.1,2.1-2.1,2.2-3.3c0.1-1.1-0.6-1.7-1.8-1.8c-0.7,0-1.6,0.4-2.7,1.3c-1.1,0.9-1.7,1.5-1.7,1.9
			C807.6,401.7,809,402.3,811.7,402.4z M818.3,354.6c-3.6-0.2-5.4-1.4-5.3-3.6c0.1,0,0.3,0.2,0.7,0.6c0.3,0.4,0.7,0.6,1,0.6
			c0.3,0,0.5-0.4,0.6-1.4c0-0.9,0.7-1.4,1.9-1.3c1.5,0.1,2.7,0.5,3.6,1.3c0.9,0.8,1.4,1.7,1.3,2.8
			C822.1,354.4,820.8,354.7,818.3,354.6z M826.5,355.5c-2.3-0.1-3.4-1.5-3.2-4.1c0.1-2.2,1.1-3.3,3.1-3.2l4.5,1.9l2.9,0.1
			c0,0.4-0.8,1.4-2.4,3C829.8,354.8,828.2,355.6,826.5,355.5z M833.4,405.6c0.9,0,1.4-1.8,1.6-5.5c0.1-1.5,0-2.6-0.2-3.4
			c-0.2-0.8-1-1.2-2.5-1.2l-1.7,0.5c-2.9,0.6-4.7,0.9-5.4,0.9s-1.1,0.1-1.1,0.5c-0.1,2.2,0.8,3.4,2.7,3.5c1.9,0.1,3.4,0.9,4.4,2.4
			C832.3,404.8,833,405.6,833.4,405.6z M828.3,383c0.3,0,0.7-0.1,1-0.5c0.4-0.3,0.7-0.7,0.9-1.1l0.4-0.5c0.1-1.1-0.4-1.7-1.3-1.7
			c-1.3-0.1-1.9,0.7-2,2.1C827.3,382.4,827.6,383,828.3,383z M827.5,446.2c-1.3-0.1-1.8-0.8-1.8-2.3c0.1-1.1,0.7-1.7,2-1.6
			c1.1,0.1,1.7,0.6,1.6,1.8C829.2,445.5,828.6,446.2,827.5,446.2z M836.8,383.4c4.7,0.2,7-0.8,7.1-3c0.1-1.1-0.9-1.7-2.8-1.8
			c-1.3-0.1-2.5,0.1-3.8,0.4c-1.3,0.3-2.4,0.7-3.5,1.2c-1,0.5-1.6,1-1.6,1.3C832.3,382.6,833.8,383.3,836.8,383.4z M838.3,489.7
			c-0.3,0-0.7-0.3-1-0.9c-0.3-0.6-0.6-1.6-0.8-3.1c-0.2-1.5-0.3-2.4-0.3-2.8l0.2-1.1c0.3,0,0.9,0.8,1.8,2.3c0.8,1.5,1.3,3,1.3,4.5
			C839.6,489.4,839.1,489.8,838.3,489.7z M847.6,350.3l-1.2-0.1c-0.9,0-1.4-0.2-1.3-0.6c0-0.7,0.7-1.1,2.1-1c0.6,0,0.8,0.4,0.8,1.2
			L847.6,350.3z M844.7,433c-1.3-0.1-1.9-0.3-1.9-0.6c0-0.7,0.7-1.1,1.9-1c1.1,0.1,1.7,0.5,1.7,1.2C846.4,432.9,845.8,433,844.7,433
			z M853,354.5l-0.3,0c-1,0-1.5-0.8-1.4-2.3c0.1-1.5,0.7-2.2,2-2.1c0.7,0,1,0.6,0.9,1.7C854.1,353.6,853.7,354.5,853,354.5z
			 M853.4,490.4l-1.2-0.6c0-0.7,0.7-1.1,2.1-1c0.7,0,1,0.4,1,1.2C855.2,490.3,854.6,490.5,853.4,490.4z M863.1,490.3
			c-0.6,0-1.5-0.4-2.8-1.2l-2.1-1.8c0-0.4,0.6-0.5,1.9-0.5c0.8,0,1.6,0.3,2.4,1c0.8,0.6,1.2,1.3,1.2,2
			C863.6,490.1,863.4,490.3,863.1,490.3z M867,490.5l-1.7-0.1l2.4-3.2c1.6-2.5,3.2-3.8,4.8-3.7c1.6,0.1,2.3,1,2.3,2.9
			C874.7,486.7,872.2,488.1,867,490.5z M885.1,356c0.5,0,1.1-0.7,2-2.1c0.9-1.4,1.3-2.7,1.4-3.9c0-0.7-0.1-1.1-0.5-1.1
			c-0.2,0-0.4,0.5-0.4,1.7c-0.1,1.1-0.7,1.6-2,1.6c-1.3-0.1-2,0.7-2.1,2.1c-0.1,1.1,0.2,1.7,0.8,1.7L885.1,356z M934.6,309.6
			c-0.9,0-1.3-0.8-1.3-2.3c0-0.7,0.2-1.1,0.6-1.1l0.4-0.5c0.1,0,0.3,0.2,0.6,0.6c0.3,0.4,0.5,0.8,0.8,1.2c0.3,0.4,0.4,0.8,0.4,1.1
			C936,309.3,935.5,309.6,934.6,309.6z M939.6,299.7l-3-2.4c-1.7-0.8-2.5-1.6-2.5-2.3c0-0.4,1-0.5,2.9-0.4c2,0.1,3,0.9,3,2.4
			L939.6,299.7z"/>
	</g>
	<g>
		<g>
			<path class="st1" d="M152.1,591.4c-2.3,0-4.5-0.8-6.6-2.3c-2.7-2-4.6-4.7-5.5-8.2l-1-3.8c-0.5-1.9,0.6-3.8,2.5-4.3l6.6-1.8
				c0.3-0.1,0.6-0.1,0.9-0.1c1.5,0,3,1,3.4,2.6l0.6,2.1l2-0.5l-4.8-17.8l-5.4,1.5c-0.3,0.1-0.6,0.1-0.9,0.1c-0.6,0-1.2-0.2-1.7-0.5
				c-0.8-0.5-1.4-1.2-1.6-2.1l-2.2-8.2c-0.5-1.9,0.6-3.8,2.5-4.3c1.4-0.4,1.9-1,2.1-1.4c0.4-0.6,0.8-1.9,0.7-4.4
				c0-2.4-0.5-5.5-1.3-9.2c-0.9-3.9-2.1-8.6-3.5-14l-3.2-12l-2,0.5l0.6,2.1c0.5,1.9-0.6,3.8-2.5,4.3l-6.6,1.8
				c-0.3,0.1-0.6,0.1-0.9,0.1c-0.6,0-1.2-0.2-1.7-0.5c-0.8-0.5-1.4-1.2-1.6-2.1l-1-3.8c-0.9-3.5-0.7-6.8,0.6-9.9
				c1.4-3.3,3.9-5.5,7.1-6.3l6.1-1.7c0.9-0.2,1.8-0.4,2.8-0.4c2.3,0,4.5,0.8,6.6,2.3c2.7,2,4.6,4.7,5.5,8.2l4.3,15.9
				c1.2,4.6,2.3,9,3.2,13.1c0.9,4.3,1.5,8.3,1.6,11.8c0.1,1.8,0,3.5-0.2,5.1c1,0.7,1.8,1.5,2.6,2.5c1.4,1.7,2.5,3.8,3.1,6.1
				l5.7,21.2c0.9,3.5,0.7,6.8-0.6,9.9c-1.4,3.3-3.9,5.5-7.1,6.3l-6.1,1.7C154,591.3,153,591.4,152.1,591.4z"/>
			<path class="st0" d="M136.3,490.4c1.5,0,3,0.5,4.5,1.6c2,1.5,3.4,3.6,4.2,6.3l4.3,15.9c1.2,4.5,2.3,8.9,3.2,12.9
				c0.9,4.1,1.4,7.8,1.5,11.2c0.1,2.5-0.1,4.8-0.6,6.9c1.5,0.5,2.8,1.4,3.9,2.8c1.1,1.4,1.9,2.9,2.4,4.8l5.7,21.2
				c0.7,2.7,0.6,5.2-0.4,7.6c-1,2.3-2.6,3.8-4.8,4.4l-6.1,1.7c-0.6,0.2-1.2,0.3-1.9,0.3c-1.5,0-3-0.5-4.5-1.6
				c-2.1-1.5-3.4-3.6-4.2-6.3l-1-3.8l6.6-1.8l0.7,2.7c0.2,0.7,0.6,1.3,1.2,1.7c0.4,0.3,0.9,0.5,1.3,0.5c0.2,0,0.3,0,0.5-0.1l4.4-1.2
				c0.6-0.2,1-0.6,1.3-1.2c0.3-0.7,0.3-1.4,0.1-2.1l-5.1-19.1c-0.2-0.7-0.6-1.3-1.2-1.7c-0.4-0.3-0.9-0.5-1.3-0.5
				c-0.2,0-0.3,0-0.5,0.1l-6.6,1.8l-2.2-8.2c2-0.5,3.4-1.5,4.2-3c0.9-1.5,1.3-3.6,1.2-6.2c-0.1-2.7-0.5-6-1.4-9.9
				c-0.9-3.9-2.1-8.6-3.6-14.1l-3.4-12.7c-0.2-0.7-0.6-1.3-1.2-1.7c-0.4-0.3-0.9-0.5-1.3-0.5c-0.2,0-0.3,0-0.5,0.1l-4.4,1.2
				c-0.6,0.2-1,0.6-1.3,1.2c-0.3,0.7-0.3,1.4-0.1,2.1l0.7,2.7l-6.6,1.8l-1-3.8c-0.7-2.7-0.6-5.2,0.4-7.6c1-2.3,2.6-3.8,4.8-4.4
				l6.1-1.7C135,490.5,135.7,490.4,136.3,490.4 M136.3,483.4c-1.2,0-2.5,0.2-3.7,0.5l-6.1,1.7c-4.3,1.2-7.5,4-9.4,8.3
				c-1.7,3.8-1.9,7.9-0.8,12.2l1,3.8c0.5,1.8,1.7,3.3,3.3,4.2c1.1,0.6,2.3,0.9,3.5,0.9c0.6,0,1.2-0.1,1.8-0.2l6.6-1.8
				c0.7-0.2,1.3-0.5,1.9-0.9l0.9,3.5c1.4,5.3,2.6,10,3.5,13.8c0.8,3.5,1.2,6.3,1.3,8.5c0,1.3-0.1,2-0.2,2.4c0,0,0,0-0.1,0
				c-3.7,1-5.9,4.8-4.9,8.6l2.2,8.2c0.8,3.1,3.7,5.2,6.8,5.2c0.6,0,1.2-0.1,1.8-0.2l2-0.5l1.6,5.9c-0.1,0-0.2,0-0.3,0
				c-0.6,0-1.2,0.1-1.8,0.2l-6.6,1.8c-3.7,1-5.9,4.8-4.9,8.6l1,3.8c1.2,4.3,3.5,7.7,6.8,10.2c2.7,2,5.6,2.9,8.6,2.9
				c1.2,0,2.5-0.2,3.7-0.5l6.1-1.7c4.3-1.2,7.5-4,9.4-8.3c1.7-3.8,1.9-7.9,0.8-12.2l-5.7-21.2c-0.7-2.8-2-5.2-3.7-7.4
				c-0.5-0.7-1.1-1.2-1.7-1.8c0.1-1.2,0.1-2.5,0-3.7c-0.1-3.8-0.7-7.9-1.7-12.4c-0.9-4.2-2-8.6-3.3-13.3l-4.3-15.9
				c-1.2-4.3-3.5-7.7-6.8-10.2C142.2,484.4,139.3,483.4,136.3,483.4L136.3,483.4z"/>
		</g>
		<g>
			<path class="st1" d="M196,579.6c-2.3,0-4.5-0.8-6.6-2.3c-2.7-2-4.6-4.7-5.5-8.2l-20.4-75.7c-0.9-3.5-0.7-6.8,0.6-9.9
				c1.4-3.3,3.9-5.5,7.1-6.3l14-3.8c0.3-0.1,0.6-0.1,0.9-0.1c1.5,0,3,1,3.4,2.6l2.2,8.2c0.5,1.9-0.6,3.8-2.5,4.3l-12,3.2L188,531
				l4.1-1.1c0.9-0.2,1.8-0.4,2.8-0.4c2.3,0,4.5,0.8,6.6,2.3c2.7,2,4.6,4.7,5.5,8.2l5.7,21.2c0.9,3.5,0.7,6.8-0.6,9.9
				c-1.4,3.3-3.9,5.5-7.1,6.3l-6.1,1.7C197.9,579.4,196.9,579.6,196,579.6z M196.8,563.7l2-0.5l-4.8-17.8l-2,0.5L196.8,563.7z"/>
			<path class="st0" d="M186.2,476.7l2.2,8.2l-13.2,3.6c-0.6,0.2-1,0.6-1.3,1.2c-0.3,0.7-0.3,1.4-0.1,2.1l11.8,43.6l7.5-2
				c0.6-0.2,1.2-0.3,1.9-0.3c1.5,0,3,0.5,4.5,1.6c2,1.5,3.4,3.6,4.2,6.3l5.7,21.2c0.7,2.7,0.6,5.2-0.4,7.6c-1,2.3-2.6,3.8-4.8,4.4
				l-6.1,1.7c-0.6,0.2-1.2,0.3-1.9,0.3c-1.5,0-3-0.5-4.5-1.6c-2.1-1.5-3.4-3.6-4.2-6.3l-20.4-75.7c-0.7-2.7-0.6-5.2,0.4-7.6
				c1-2.3,2.6-3.8,4.8-4.4L186.2,476.7 M196.1,567.5c0.2,0,0.3,0,0.5-0.1l4.4-1.2c0.6-0.2,1-0.6,1.3-1.2c0.3-0.7,0.3-1.4,0.1-2.1
				l-5.1-19.1c-0.2-0.7-0.6-1.3-1.2-1.7c-0.4-0.3-0.9-0.5-1.3-0.5c-0.2,0-0.3,0-0.5,0.1l-6.6,1.8l5.9,21.8c0.2,0.7,0.6,1.3,1.2,1.7
				C195.2,567.3,195.6,567.5,196.1,567.5 M186.2,469.7c-0.6,0-1.2,0.1-1.8,0.2l-14,3.8c-4.3,1.2-7.5,4-9.4,8.3
				c-1.7,3.8-1.9,7.9-0.8,12.2l20.4,75.7c1.2,4.3,3.5,7.7,6.8,10.2c2.7,2,5.6,2.9,8.6,2.9c1.2,0,2.5-0.2,3.7-0.5l6.1-1.7
				c4.3-1.2,7.5-4,9.4-8.3c1.7-3.8,1.9-7.9,0.8-12.2l-5.7-21.2c-1.2-4.3-3.5-7.7-6.8-10.2c-2.7-2-5.6-2.9-8.6-2.9
				c-1.2,0-2.5,0.2-3.7,0.5l-0.7,0.2l-8.8-32.8l8.6-2.3c1.8-0.5,3.3-1.7,4.2-3.3c0.9-1.6,1.2-3.5,0.7-5.3l-2.2-8.2
				C192.1,471.8,189.3,469.7,186.2,469.7L186.2,469.7z"/>
		</g>
		<g>
			<path class="st1" d="M224.5,571.9c-2.3,0-4.5-0.8-6.6-2.3c-2.7-2-4.6-4.7-5.5-8.2l-20.4-75.7c-0.9-3.5-0.7-6.8,0.6-9.9
				c1.4-3.3,3.9-5.5,7.1-6.3l6.1-1.7c0.9-0.2,1.8-0.4,2.8-0.4c2.3,0,4.5,0.8,6.6,2.3c2.7,2,4.6,4.7,5.5,8.2l4.2,15.7
				c1.3,4.6,2.4,9.1,3.3,13.3c1,4.4,1.5,8.4,1.6,12c0.3,11.4-4.4,16.7-9.4,19.1l4.9,18.1l2-0.5l-0.6-2.1c-0.2-0.9-0.1-1.9,0.3-2.7
				s1.2-1.4,2.1-1.6l6.6-1.8c0.3-0.1,0.6-0.1,0.9-0.1c0.6,0,1.2,0.2,1.7,0.5c0.8,0.5,1.4,1.2,1.6,2.1l1,3.8c0.9,3.5,0.7,6.8-0.6,9.9
				c-1.4,3.3-3.9,5.5-7.1,6.3l-6.1,1.7C226.4,571.7,225.5,571.9,224.5,571.9z M215.9,520.9c0.1-0.7,0.2-1.5,0.1-2.5
				c0-2.4-0.5-5.5-1.3-9.2c-0.9-3.9-2.1-8.6-3.5-14l-3.2-12l-2,0.5L215.9,520.9z"/>
			<path class="st0" d="M208.7,470.9c1.5,0,3,0.5,4.5,1.6c2,1.5,3.4,3.6,4.2,6.3l4.2,15.7c1.2,4.6,2.4,9,3.3,13.1
				c1,4.1,1.5,7.9,1.5,11.3c0.3,9.4-3.1,15-10.2,16.9l5.9,21.8c0.2,0.7,0.6,1.3,1.2,1.7c0.4,0.3,0.9,0.5,1.3,0.5
				c0.2,0,0.3,0,0.5-0.1l4.4-1.2c0.6-0.2,1-0.6,1.3-1.2c0.3-0.7,0.3-1.4,0.1-2.1l-0.7-2.7l6.6-1.8l1,3.8c0.7,2.7,0.6,5.2-0.4,7.6
				c-1,2.3-2.6,3.8-4.8,4.4l-6.1,1.7c-0.6,0.2-1.2,0.3-1.9,0.3c-1.5,0-3-0.5-4.5-1.6c-2.1-1.5-3.4-3.6-4.2-6.3l-20.4-75.7
				c-0.7-2.7-0.6-5.2,0.4-7.6c1-2.3,2.6-3.8,4.8-4.4l6.1-1.7C207.5,471,208.1,470.9,208.7,470.9 M214.1,527.6c2-0.5,3.4-1.5,4.2-3
				c0.9-1.5,1.3-3.6,1.2-6.2c-0.1-2.7-0.5-6-1.4-9.9c-0.9-3.9-2.1-8.6-3.6-14.1l-3.4-12.7c-0.2-0.7-0.6-1.3-1.2-1.7
				c-0.4-0.3-0.9-0.5-1.3-0.5c-0.2,0-0.3,0-0.5,0.1l-4.4,1.2c-0.6,0.2-1,0.6-1.3,1.2c-0.3,0.7-0.3,1.4-0.1,2.1L214.1,527.6
				 M208.7,463.9C208.7,463.9,208.7,463.9,208.7,463.9c-1.2,0-2.5,0.2-3.7,0.5l-6.1,1.7c-4.3,1.2-7.5,4-9.4,8.3
				c-1.7,3.8-1.9,7.9-0.8,12.2l20.4,75.7c1.2,4.3,3.5,7.7,6.8,10.2c2.7,2,5.6,2.9,8.6,2.9c1.2,0,2.5-0.2,3.7-0.5l6.1-1.7
				c4.3-1.2,7.5-4,9.4-8.3c1.7-3.8,1.9-7.9,0.8-12.2l-1-3.8c-0.8-3.1-3.7-5.2-6.8-5.2c-0.6,0-1.2,0.1-1.8,0.2l-6.6,1.8
				c-0.7,0.2-1.4,0.5-1.9,0.9l-1.9-7c4.7-3.2,9.2-9.3,8.9-20.9c-0.1-3.9-0.6-8.1-1.7-12.7c-1-4.2-2.1-8.7-3.4-13.4l-4.2-15.7
				c-1.2-4.3-3.5-7.7-6.8-10.2C214.6,464.9,211.7,463.9,208.7,463.9L208.7,463.9z"/>
		</g>
		<g>
			<path class="st1" d="M253.1,564.2c-2.3,0-4.5-0.8-6.6-2.3c-2.7-2-4.6-4.7-5.5-8.2l-20.4-75.7c-0.9-3.5-0.7-6.8,0.6-9.9
				c1.4-3.3,3.9-5.5,7.1-6.3l6.1-1.7c0.9-0.2,1.8-0.4,2.8-0.4c2.3,0,4.5,0.8,6.6,2.3c2.7,2,4.6,4.7,5.5,8.2l1,3.8
				c0.5,1.9-0.6,3.8-2.5,4.3l-6.6,1.8c-0.3,0.1-0.6,0.1-0.9,0.1c-0.6,0-1.2-0.2-1.7-0.5c-0.8-0.5-1.4-1.2-1.6-2.1l-0.6-2.1l-2,0.5
				l19.5,72.2l2-0.5l-0.6-2.1c-0.5-1.9,0.6-3.8,2.5-4.3l6.6-1.8c0.3-0.1,0.6-0.1,0.9-0.1c0.6,0,1.2,0.2,1.7,0.5
				c0.8,0.5,1.4,1.2,1.6,2.1l1,3.8c0.9,3.5,0.7,6.8-0.6,9.9c-1.4,3.3-3.9,5.5-7.1,6.3l-6.1,1.7C254.9,564,254,564.2,253.1,564.2z"/>
			<path class="st0" d="M237.2,463.2c1.5,0,3,0.5,4.5,1.6c2,1.5,3.4,3.6,4.2,6.3l1,3.8l-6.6,1.8l-0.7-2.7c-0.2-0.7-0.6-1.3-1.2-1.7
				c-0.4-0.3-0.9-0.5-1.3-0.5c-0.2,0-0.3,0-0.5,0.1l-4.4,1.2c-0.6,0.2-1,0.6-1.3,1.2c-0.3,0.7-0.3,1.4-0.1,2.1l19.8,73.5
				c0.2,0.7,0.6,1.3,1.2,1.7c0.4,0.3,0.9,0.5,1.3,0.5c0.2,0,0.3,0,0.5-0.1l4.4-1.2c0.6-0.2,1-0.6,1.3-1.2c0.3-0.7,0.3-1.4,0.1-2.1
				l-0.7-2.7l6.6-1.8l1,3.8c0.7,2.7,0.6,5.2-0.4,7.6c-1,2.3-2.6,3.8-4.8,4.4l-6.1,1.7c-0.6,0.2-1.2,0.3-1.9,0.3
				c-1.5,0-3-0.5-4.5-1.6c-2.1-1.5-3.4-3.6-4.2-6.3L224,477c-0.7-2.7-0.6-5.2,0.4-7.6c1-2.3,2.6-3.8,4.8-4.4l6.1-1.7
				C236,463.3,236.6,463.2,237.2,463.2 M237.2,456.2c-1.2,0-2.5,0.2-3.7,0.5l-6.1,1.7c-4.3,1.2-7.5,4-9.4,8.3
				c-1.7,3.8-1.9,7.9-0.8,12.2l20.4,75.7c1.2,4.3,3.5,7.7,6.8,10.2c2.7,2,5.6,2.9,8.6,2.9c1.2,0,2.5-0.2,3.7-0.5l6.1-1.7
				c4.3-1.2,7.5-4,9.4-8.3c1.7-3.8,1.9-7.9,0.8-12.2l-1-3.8c-0.8-3.1-3.7-5.2-6.8-5.2c-0.6,0-1.2,0.1-1.8,0.2l-6.6,1.8
				c-0.7,0.2-1.4,0.5-1.9,0.9l-14.9-55.2c0.1,0,0.2,0,0.3,0c0.6,0,1.2-0.1,1.8-0.2l6.6-1.8c1.8-0.5,3.3-1.7,4.2-3.3
				c0.9-1.6,1.2-3.5,0.7-5.3l-1-3.8c-1.2-4.3-3.5-7.7-6.8-10.2C243.2,457.2,240.3,456.2,237.2,456.2L237.2,456.2z"/>
		</g>
		<g>
			<path class="st1" d="M274.5,558.6c-1.5,0-3-1-3.4-2.6L248,470.5c-0.9-3.5-0.7-6.8,0.6-9.9c1.4-3.3,3.9-5.5,7.1-6.3l6.1-1.7
				c0.9-0.2,1.8-0.4,2.8-0.4c2.3,0,4.5,0.8,6.6,2.3c2.7,2,4.6,4.7,5.5,8.2l23.1,85.5c0.2,0.9,0.1,1.9-0.3,2.7s-1.2,1.4-2.1,1.6
				l-6.6,1.8c-0.3,0.1-0.6,0.1-0.9,0.1c-1.5,0-3-1-3.4-2.6l-22.6-83.8l-2,0.5l22.6,83.8c0.2,0.9,0.1,1.9-0.3,2.7s-1.2,1.4-2.1,1.6
				l-6.6,1.8C275.1,558.6,274.8,558.6,274.5,558.6z"/>
			<path class="st0" d="M264.7,455.8c1.5,0,3,0.5,4.5,1.6c2,1.5,3.4,3.6,4.2,6.3l23.1,85.5l-6.6,1.8l-22.8-84.4
				c-0.2-0.7-0.6-1.3-1.2-1.7c-0.4-0.3-0.9-0.5-1.3-0.5c-0.2,0-0.3,0-0.5,0.1l-4.4,1.2c-0.6,0.2-1,0.6-1.3,1.2
				c-0.3,0.7-0.3,1.4-0.1,2.1l22.8,84.4l-6.6,1.8l-23.1-85.5c-0.7-2.7-0.6-5.2,0.4-7.6c1-2.3,2.6-3.8,4.8-4.4l6.1-1.7
				C263.4,455.9,264,455.8,264.7,455.8 M264.7,448.8c-1.2,0-2.5,0.2-3.7,0.5l-6.1,1.7c-4.3,1.2-7.5,4-9.4,8.3
				c-1.7,3.8-1.9,7.9-0.8,12.2l23.1,85.5c0.8,3.1,3.7,5.2,6.8,5.2c0.6,0,1.2-0.1,1.8-0.2l6.6-1.8c1.6-0.4,3-1.4,4-2.8
				c0.9,0.4,2,0.7,3,0.7c0.6,0,1.2-0.1,1.8-0.2l6.6-1.8c3.7-1,5.9-4.8,4.9-8.6l-23.1-85.5c-1.2-4.3-3.5-7.7-6.8-10.2
				C270.6,449.8,267.7,448.8,264.7,448.8L264.7,448.8z"/>
		</g>
		<g>
			<path class="st1" d="M300.8,551.5c-0.6,0-1.2-0.2-1.7-0.5c-0.8-0.5-1.4-1.2-1.6-2.1l-2.2-8.2c-0.5-1.9,0.6-3.8,2.5-4.3l1-0.3
				l-20.1-74.4c-0.9-3.3-0.7-6.5,0.6-9.5c1.4-3.2,3.8-5.4,6.9-6.2l12.2-3.3c0.3-0.1,0.6-0.1,0.9-0.1c0.6,0,1.2,0.2,1.7,0.5
				c0.8,0.5,1.4,1.2,1.6,2.1l25.7,95.3c0.5,1.9-0.6,3.8-2.5,4.3l-6.6,1.8c-0.3,0.1-0.6,0.1-0.9,0.1c-0.6,0-1.2-0.2-1.7-0.5
				c-0.8-0.5-1.4-1.2-1.6-2.1l-2-7.4c0.3,2.6-0.1,5.1-1.1,7.4c-1.4,3.3-3.9,5.5-7.1,6.3l-3.1,0.8
				C301.4,551.5,301.1,551.5,300.8,551.5z"/>
			<path class="st0" d="M299.2,446.2l25.7,95.3l-6.6,1.8l-23.5-87.1l-4.4,1.2c-0.6,0.2-1,0.6-1.3,1.2c-0.3,0.7-0.3,1.4-0.1,2.1
				l20.1,74.6c0.7,2.7,0.6,5.2-0.4,7.6c-1,2.3-2.6,3.8-4.8,4.4l-3.1,0.8l-2.2-8.2l2.2-0.6c0.6-0.2,1-0.6,1.3-1.2
				c0.3-0.7,0.3-1.4,0.1-2.1l-20.2-75c-0.7-2.5-0.5-4.9,0.4-7.2c1-2.3,2.5-3.7,4.6-4.2L299.2,446.2 M299.2,439.2
				c-0.6,0-1.2,0.1-1.8,0.2l-12.2,3.3c-4.2,1.1-7.4,4-9.2,8.3c-1.6,3.7-1.8,7.7-0.7,11.8l19.3,71.4c-0.8,0.6-1.5,1.3-2,2.2
				c-0.9,1.6-1.2,3.5-0.7,5.3l2.2,8.2c0.8,3.1,3.7,5.2,6.8,5.2c0.6,0,1.2-0.1,1.8-0.2l3.1-0.8c3.3-0.9,6-2.8,7.9-5.6
				c1.3,1.2,3,1.9,4.8,1.9c0.6,0,1.2-0.1,1.8-0.2l6.6-1.8c1.8-0.5,3.3-1.7,4.2-3.3c0.9-1.6,1.2-3.5,0.7-5.3L306,444.4
				C305.2,441.3,302.3,439.2,299.2,439.2L299.2,439.2z"/>
		</g>
		<g>
			<path class="st1" d="M331.5,543.3c-0.6,0-1.2-0.2-1.7-0.5c-0.8-0.5-1.4-1.2-1.6-2.1l-23.1-85.5c-0.9-3.5-0.7-6.8,0.6-9.9
				c1.4-3.3,3.9-5.5,7.1-6.3l6.1-1.7c0.9-0.2,1.8-0.4,2.8-0.4c2.3,0,4.5,0.8,6.6,2.3c2.7,2,4.6,4.7,5.5,8.2l23.1,85.5
				c0.5,1.9-0.6,3.8-2.5,4.3l-6.6,1.8c-0.3,0.1-0.6,0.1-0.9,0.1c-0.6,0-1.2-0.2-1.7-0.5c-0.8-0.5-1.4-1.2-1.6-2.1l-7.9-29.3l-2,0.5
				l7.9,29.3c0.5,1.9-0.6,3.8-2.5,4.3l-6.6,1.8C332.1,543.2,331.8,543.3,331.5,543.3z M329.6,492.8l2-0.5l-10.7-39.5l-2,0.5
				L329.6,492.8z"/>
			<path class="st0" d="M321.7,440.4c1.5,0,3,0.5,4.5,1.6c2,1.5,3.4,3.6,4.2,6.3l23.1,85.5l-6.6,1.8l-8.8-32.7l-8.8,2.4l8.8,32.7
				l-6.6,1.8l-23.1-85.5c-0.7-2.7-0.6-5.2,0.4-7.6c1-2.3,2.6-3.8,4.8-4.4l6.1-1.7C320.5,440.5,321.1,440.4,321.7,440.4 M327.1,497.1
				l8.8-2.4l-11.8-43.6c-0.2-0.7-0.6-1.3-1.2-1.7c-0.4-0.3-0.9-0.5-1.3-0.5c-0.2,0-0.3,0-0.5,0.1l-4.4,1.2c-0.6,0.2-1,0.6-1.3,1.2
				c-0.3,0.7-0.3,1.4-0.1,2.1L327.1,497.1 M321.7,433.4c-1.2,0-2.5,0.2-3.7,0.5l-6.1,1.7c-4.3,1.2-7.5,4-9.4,8.3
				c-1.7,3.8-1.9,7.9-0.8,12.2l23.1,85.5c0.8,3.1,3.7,5.2,6.8,5.2c0.6,0,1.2-0.1,1.8-0.2l6.6-1.8c1.6-0.4,3-1.4,4-2.8
				c0.9,0.4,2,0.7,3,0.7c0.6,0,1.2-0.1,1.8-0.2l6.6-1.8c3.7-1,5.9-4.8,4.9-8.6l-23.1-85.5c-1.2-4.3-3.5-7.7-6.8-10.2
				C327.7,434.4,324.8,433.4,321.7,433.4L321.7,433.4z"/>
		</g>
		<g>
			<path class="st1" d="M367.2,533.6c-1.5,0-3-1-3.4-2.6l-22.6-83.8l-4.3,1.2c-0.3,0.1-0.6,0.1-0.9,0.1c-1.5,0-3-1-3.4-2.6l-2.2-8.2
				c-0.2-0.9-0.1-1.9,0.3-2.7c0.5-0.8,1.2-1.4,2.1-1.6l21.9-5.9c0.3-0.1,0.6-0.1,0.9-0.1c0.6,0,1.2,0.2,1.7,0.5
				c0.8,0.5,1.4,1.2,1.6,2.1l2.2,8.2c0.5,1.9-0.6,3.8-2.5,4.3l-4.3,1.2l22.6,83.8c0.2,0.9,0.1,1.9-0.3,2.7s-1.2,1.4-2.1,1.6
				l-6.6,1.8C367.8,533.6,367.5,533.6,367.2,533.6z"/>
			<path class="st0" d="M355.8,431l2.2,8.2l-7.7,2.1l23.5,87.1l-6.6,1.8L343.7,443l-7.7,2.1l-2.2-8.2L355.8,431 M355.8,424
				c-0.6,0-1.2,0.1-1.8,0.2l-21.9,5.9c-1.8,0.5-3.3,1.7-4.2,3.3c-0.9,1.6-1.2,3.5-0.7,5.3l2.2,8.2c0.8,3.1,3.7,5.2,6.8,5.2
				c0.6,0,1.2-0.1,1.8-0.2l0.9-0.2l21.7,80.4c0.8,3.1,3.7,5.2,6.8,5.2c0.6,0,1.2-0.1,1.8-0.2l6.6-1.8c1.8-0.5,3.3-1.7,4.2-3.3
				c0.9-1.6,1.2-3.5,0.7-5.3l-21.7-80.4l0.9-0.2c3.7-1,5.9-4.8,4.9-8.6l-2.2-8.2c-0.5-1.8-1.7-3.3-3.3-4.2
				C358.2,424.3,357,424,355.8,424L355.8,424z"/>
		</g>
		<g>
			<path class="st1" d="M387.5,528.2c-1.5,0-3-1-3.4-2.6l-25.7-95.3c-0.2-0.9-0.1-1.9,0.3-2.7s1.2-1.4,2.1-1.6l6.6-1.8
				c0.3-0.1,0.6-0.1,0.9-0.1c1.5,0,3,1,3.4,2.6l13.8,51.1l2-0.5l-13.8-51.1c-0.5-1.9,0.6-3.8,2.5-4.3l6.6-1.8
				c0.3-0.1,0.6-0.1,0.9-0.1c0.6,0,1.2,0.2,1.7,0.5c0.8,0.5,1.4,1.2,1.6,2.1l25.7,95.3c0.2,0.9,0.1,1.9-0.3,2.7
				c-0.5,0.8-1.2,1.4-2.1,1.6l-6.6,1.8c-0.3,0.1-0.6,0.1-0.9,0.1c-1.5,0-3-1-3.4-2.6l-7.9-29.3l-2,0.5l7.9,29.3
				c0.2,0.9,0.1,1.9-0.3,2.7c-0.5,0.8-1.2,1.4-2.1,1.6l-6.6,1.8C388.1,528.1,387.8,528.2,387.5,528.2z"/>
			<path class="st0" d="M383.7,423.4l14.7,54.5l11,40.9l-6.6,1.8l-8.8-32.7l-8.8,2.4l8.8,32.7l-6.6,1.8l-25.7-95.3l6.6-1.8
				l14.7,54.5l8.8-2.4l-14.7-54.5L383.7,423.4 M383.7,416.4c-0.6,0-1.2,0.1-1.8,0.2l-6.6,1.8c-1.6,0.4-3,1.4-4,2.8
				c-0.9-0.4-2-0.7-3-0.7c-0.6,0-1.2,0.1-1.8,0.2l-6.6,1.8c-3.7,1-5.9,4.8-4.9,8.6l25.7,95.3c0.8,3.1,3.7,5.2,6.8,5.2
				c0.6,0,1.2-0.1,1.8-0.2l6.6-1.8c1.6-0.4,3-1.4,4-2.8c0.9,0.4,2,0.7,3,0.7c0.6,0,1.2-0.1,1.8-0.2l6.6-1.8c3.7-1,5.9-4.8,4.9-8.6
				l-11-40.9l-14.7-54.5C389.7,418.5,386.8,416.4,383.7,416.4L383.7,416.4z"/>
		</g>
		<g>
			<path class="st1" d="M416,520.5c-0.6,0-1.2-0.2-1.7-0.5c-0.8-0.5-1.4-1.2-1.6-2.1l-25.7-95.3c-0.2-0.9-0.1-1.9,0.3-2.7
				s1.2-1.4,2.1-1.6l6.6-1.8c0.3-0.1,0.6-0.1,0.9-0.1c1.5,0,3,1,3.4,2.6l13.8,51.1l4.1-1.1c0.9-0.2,1.8-0.4,2.8-0.4
				c2.3,0,4.5,0.8,6.6,2.3c2.1,1.5,3.6,3.5,4.7,5.9l-16.7-61.8c-0.2-0.9-0.1-1.9,0.3-2.7s1.2-1.4,2.1-1.6l6.6-1.8
				c0.3-0.1,0.6-0.1,0.9-0.1c1.5,0,3,1,3.4,2.6l25.7,95.3c0.2,0.9,0.1,1.9-0.3,2.7s-1.2,1.4-2.1,1.6l-6.6,1.8
				c-0.3,0.1-0.6,0.1-0.9,0.1c-1.5,0-3-1-3.4-2.6l-2-7.4c0.3,2.6-0.1,5.1-1.1,7.4c-1.4,3.3-3.9,5.5-7.1,6.3l-14,3.8
				C416.6,520.4,416.3,520.5,416,520.5z M422.9,502.7l2-0.5l-4.8-17.8l-2,0.5L422.9,502.7z"/>
			<path class="st0" d="M425.4,412.2l25.7,95.3l-6.6,1.8L418.9,414L425.4,412.2 M396.9,419.9l14.7,54.5l7.5-2
				c0.6-0.2,1.2-0.3,1.9-0.3c1.5,0,3,0.5,4.5,1.6c2,1.5,3.4,3.6,4.2,6.3l5.7,21.2c0.7,2.7,0.6,5.2-0.4,7.6c-1,2.3-2.6,3.8-4.8,4.4
				l-14,3.8l-25.7-95.3L396.9,419.9 M420.4,507l6.6-1.8c0.6-0.2,1-0.6,1.3-1.2c0.3-0.7,0.3-1.4,0.1-2.1l-5.1-19.1
				c-0.2-0.7-0.6-1.3-1.2-1.7c-0.4-0.3-0.9-0.5-1.3-0.5c-0.2,0-0.3,0-0.5,0.1l-6.6,1.8L420.4,507 M425.4,405.2
				c-0.6,0-1.2,0.1-1.8,0.2l-6.6,1.8c-3.7,1-5.9,4.8-4.9,8.6l13.5,50.1c-1.5-0.6-3.1-0.8-4.7-0.8c-1.2,0-2.5,0.2-3.7,0.5l-0.7,0.2
				l-12.9-47.7c-0.8-3.1-3.7-5.2-6.8-5.2c-0.6,0-1.2,0.1-1.8,0.2l-6.6,1.8c-1.8,0.5-3.3,1.7-4.2,3.3s-1.2,3.5-0.7,5.3l25.7,95.3
				c0.5,1.8,1.7,3.3,3.3,4.2c1.1,0.6,2.3,0.9,3.5,0.9c0.6,0,1.2-0.1,1.8-0.2l14-3.8c3.3-0.9,6-2.8,7.9-5.6c1.3,1.2,3,1.9,4.8,1.9
				c0.6,0,1.2-0.1,1.8-0.2l6.6-1.8c1.8-0.5,3.3-1.7,4.2-3.3c0.9-1.6,1.2-3.5,0.7-5.3l-25.7-95.3c-0.5-1.8-1.7-3.3-3.3-4.2
				C427.9,405.5,426.7,405.2,425.4,405.2L425.4,405.2z"/>
		</g>
		<g>
			<path class="st1" d="M457.7,509.1c-1.5,0-3-1-3.4-2.6l-8.3-30.9c-0.6-2.3-0.7-4.6-0.4-6.8c0.2-1.2,0.6-2.4,1.1-3.5
				c-1-1.3-1.9-2.8-2.7-4.3c-1.7-3.2-3.2-7-4.6-11.2c-1.3-4.1-2.6-8.5-3.8-13.1l-6.8-25.3c-0.5-1.9,0.6-3.8,2.5-4.3l6.6-1.8
				c0.3-0.1,0.6-0.1,0.9-0.1c0.6,0,1.2,0.2,1.7,0.5c0.8,0.5,1.4,1.2,1.6,2.1l6.4,23.6c2.3,8.4,4.3,14.9,6,19.4
				c0.3,0.8,0.6,1.6,0.9,2.2c-0.1-0.7-0.2-1.5-0.3-2.4c-0.8-4.8-2.3-11.4-4.6-19.8l-6.4-23.6c-0.5-1.9,0.6-3.8,2.5-4.3l6.6-1.8
				c0.3-0.1,0.6-0.1,0.9-0.1c0.6,0,1.2,0.2,1.7,0.5c0.8,0.5,1.4,1.2,1.6,2.1l6.8,25.3c1.3,4.6,2.4,9.1,3.3,13.3
				c1,4.3,1.5,8.4,1.7,12c0.1,1.8,0,3.5-0.2,5.1c1,0.7,1.8,1.5,2.6,2.5c1.4,1.7,2.5,3.8,3.1,6.1l8.3,30.9c0.2,0.9,0.1,1.9-0.3,2.7
				s-1.2,1.4-2.1,1.6l-6.6,1.8c-0.3,0.1-0.6,0.1-0.9,0.1c-1.5,0-3-1-3.4-2.6l-7.9-29.2l-2,0.5l7.9,29.2c0.2,0.9,0.1,1.9-0.3,2.7
				c-0.5,0.8-1.2,1.4-2.1,1.6l-6.6,1.8C458.3,509,458,509.1,457.7,509.1z"/>
			<path class="st0" d="M454,404.5l6.8,25.3c1.2,4.6,2.3,9,3.3,13.1c0.9,4.1,1.5,7.9,1.6,11.4c0.1,2.5-0.1,4.8-0.6,6.9
				c1.5,0.5,2.8,1.4,3.9,2.8c1.1,1.4,1.9,2.9,2.4,4.8l8.3,30.9l-6.6,1.8l-8-29.8c-0.2-0.7-0.6-1.3-1.2-1.7c-0.4-0.3-0.9-0.5-1.3-0.5
				c-0.2,0-0.3,0-0.5,0.1l-4.4,1.2c-0.6,0.2-1,0.6-1.3,1.2s-0.3,1.4-0.1,2.1l8,29.8l-6.6,1.8l-8.3-30.9c-0.5-1.8-0.6-3.6-0.3-5.3
				c0.3-1.7,0.9-3.2,2-4.3c-1.5-1.5-2.8-3.4-4-5.6c-1.6-3.1-3.1-6.6-4.3-10.7c-1.3-4-2.6-8.4-3.8-13l-6.8-25.3l6.6-1.8l6.4,23.6
				c2.3,8.5,4.3,15.1,6.1,19.8c1.8,4.6,3.8,7.5,6.3,8.6c1.5-2.2,1.9-5.7,1.1-10.6c-0.8-4.9-2.4-11.6-4.7-20.1l-6.4-23.6L454,404.5
				 M454,397.5c-0.6,0-1.2,0.1-1.8,0.2l-6.6,1.8c-1.6,0.4-3,1.4-4,2.8c-0.9-0.4-1.9-0.7-3-0.7c-0.6,0-1.2,0.1-1.8,0.2l-6.6,1.8
				c-1.8,0.5-3.3,1.7-4.2,3.3c-0.9,1.6-1.2,3.5-0.7,5.3l6.8,25.3c1.3,4.7,2.6,9.2,3.9,13.3c1.4,4.4,3,8.4,4.8,11.8
				c0.6,1.1,1.2,2.2,1.9,3.2c-0.2,0.8-0.4,1.6-0.6,2.4c-0.4,2.7-0.3,5.5,0.5,8.3l8.3,30.9c0.8,3.1,3.7,5.2,6.8,5.2
				c0.6,0,1.2-0.1,1.8-0.2l6.6-1.8c1.6-0.4,3-1.4,4-2.8c0.9,0.4,1.9,0.7,3,0.7c0.6,0,1.2-0.1,1.8-0.2l6.6-1.8
				c1.8-0.5,3.3-1.7,4.2-3.3c0.9-1.6,1.2-3.5,0.7-5.3l-8.3-30.9c-0.7-2.8-2-5.2-3.7-7.4c-0.5-0.7-1.1-1.2-1.7-1.8
				c0.1-1.2,0.1-2.5,0-3.8c-0.2-3.8-0.8-8.1-1.8-12.6c-0.9-4.2-2.1-8.8-3.3-13.5l-6.8-25.3C459.9,399.5,457.1,397.5,454,397.5
				L454,397.5z"/>
		</g>
		<g>
			<path class="st1" d="M507.7,495.5c-2.3,0-4.5-0.8-6.6-2.3c-2.7-2-4.6-4.7-5.5-8.2l-1-3.8c-0.5-1.9,0.6-3.8,2.5-4.3l6.6-1.8
				c0.3-0.1,0.6-0.1,0.9-0.1c1.5,0,3,1,3.4,2.6l0.6,2.1l2-0.5l-4.8-17.8l-5.4,1.5c-0.3,0.1-0.6,0.1-0.9,0.1c-0.6,0-1.2-0.2-1.7-0.5
				c-0.8-0.5-1.4-1.2-1.6-2.1l-2.2-8.2c-0.2-0.9-0.1-1.9,0.3-2.7c0.5-0.8,1.2-1.4,2.1-1.6c1.4-0.4,1.9-1,2.1-1.4
				c0.4-0.6,0.8-1.9,0.7-4.4c0-2.4-0.5-5.5-1.3-9.2c-0.9-3.9-2.1-8.6-3.5-14l-3.2-12l-2,0.5l0.6,2.1c0.5,1.9-0.6,3.8-2.5,4.3
				l-6.6,1.8c-0.3,0.1-0.6,0.1-0.9,0.1c-0.6,0-1.2-0.2-1.7-0.5c-0.8-0.5-1.4-1.2-1.6-2.1l-1-3.8c-0.9-3.5-0.7-6.8,0.6-9.9
				c1.4-3.3,3.9-5.5,7.1-6.3l6.1-1.7c0.9-0.2,1.8-0.4,2.8-0.4c2.3,0,4.5,0.8,6.6,2.3c2.7,2,4.6,4.7,5.5,8.2l4.3,15.9
				c1.2,4.6,2.3,9,3.2,13.1c0.9,4.3,1.5,8.3,1.6,11.8c0.1,1.8,0,3.5-0.2,5.1c1,0.7,1.8,1.5,2.6,2.5c1.4,1.7,2.5,3.8,3.1,6.1
				l5.7,21.2c0.9,3.5,0.7,6.8-0.6,9.9c-1.4,3.3-3.9,5.5-7.1,6.3l-6.1,1.7C509.5,495.4,508.6,495.5,507.7,495.5z"/>
			<path class="st0" d="M491.8,394.5c1.5,0,3,0.5,4.5,1.6c2,1.5,3.4,3.6,4.2,6.3l4.3,15.9c1.2,4.5,2.3,8.9,3.2,12.9
				c0.9,4.1,1.4,7.8,1.5,11.2c0.1,2.5-0.1,4.8-0.6,6.9c1.5,0.5,2.8,1.4,3.9,2.8c1.1,1.4,1.9,2.9,2.4,4.8l5.7,21.2
				c0.7,2.7,0.6,5.2-0.4,7.6c-1,2.3-2.6,3.8-4.8,4.4l-6.1,1.7c-0.6,0.2-1.2,0.3-1.9,0.3c-1.5,0-3-0.5-4.5-1.6
				c-2.1-1.5-3.4-3.6-4.2-6.3l-1-3.8l6.6-1.8l0.7,2.7c0.2,0.7,0.6,1.3,1.2,1.7c0.4,0.3,0.9,0.5,1.3,0.5c0.2,0,0.3,0,0.5-0.1l4.4-1.2
				c0.6-0.2,1-0.6,1.3-1.2c0.3-0.7,0.3-1.4,0.1-2.1l-5.1-19.1c-0.2-0.7-0.6-1.3-1.2-1.7c-0.4-0.3-0.9-0.5-1.3-0.5
				c-0.2,0-0.3,0-0.5,0.1l-6.6,1.8l-2.2-8.2c2-0.5,3.4-1.5,4.2-3c0.9-1.5,1.3-3.6,1.2-6.2c-0.1-2.7-0.5-6-1.4-9.9
				c-0.9-3.9-2.1-8.6-3.6-14.1l-3.4-12.7c-0.2-0.7-0.6-1.3-1.2-1.7c-0.4-0.3-0.9-0.5-1.3-0.5c-0.2,0-0.3,0-0.5,0.1l-4.4,1.2
				c-0.6,0.2-1,0.6-1.3,1.2c-0.3,0.7-0.3,1.4-0.1,2.1l0.7,2.7l-6.6,1.8l-1-3.8c-0.7-2.7-0.6-5.2,0.4-7.6c1-2.3,2.6-3.8,4.8-4.4
				l6.1-1.7C490.6,394.6,491.2,394.5,491.8,394.5 M491.8,387.5c-1.2,0-2.5,0.2-3.7,0.5l-6.1,1.7c-4.3,1.2-7.5,4-9.4,8.3
				c-1.7,3.8-1.9,7.9-0.8,12.2l1,3.8c0.5,1.8,1.7,3.3,3.3,4.2c1.1,0.6,2.3,0.9,3.5,0.9c0.6,0,1.2-0.1,1.8-0.2l6.6-1.8
				c0.7-0.2,1.4-0.5,1.9-0.9l0.9,3.5c1.4,5.3,2.6,10,3.5,13.8c0.8,3.5,1.2,6.3,1.3,8.5c0,1.3-0.1,2-0.2,2.4c0,0,0,0-0.1,0
				c-3.7,1-5.9,4.8-4.9,8.6l2.2,8.2c0.8,3.1,3.7,5.2,6.8,5.2c0.6,0,1.2-0.1,1.8-0.2l2-0.5l1.6,5.9c-0.1,0-0.2,0-0.3,0
				c-0.6,0-1.2,0.1-1.8,0.2l-6.6,1.8c-3.7,1-5.9,4.8-4.9,8.6l1,3.8c1.2,4.3,3.5,7.7,6.8,10.2c2.7,2,5.6,2.9,8.6,2.9
				c1.2,0,2.5-0.2,3.7-0.5l6.1-1.7c4.3-1.2,7.5-4,9.4-8.3c1.7-3.8,1.9-7.9,0.8-12.2l-5.7-21.2c-0.7-2.8-2-5.2-3.7-7.4
				c-0.5-0.7-1.1-1.2-1.7-1.8c0.1-1.2,0.1-2.5,0-3.7c-0.1-3.8-0.7-7.9-1.7-12.4c-0.9-4.2-2-8.6-3.3-13.3l-4.3-15.9
				c-1.2-4.3-3.5-7.7-6.8-10.2C497.8,388.5,494.9,387.5,491.8,387.5L491.8,387.5z"/>
		</g>
		<g>
			<path class="st1" d="M530.1,489.7c-1.5,0-3-1-3.4-2.6l-23.1-85.5c-0.9-3.5-0.7-6.8,0.6-9.9c1.4-3.3,3.9-5.5,7.1-6.3l6.1-1.7
				c0.9-0.2,1.8-0.4,2.8-0.4c2.3,0,4.5,0.8,6.6,2.3c2.7,2,4.6,4.7,5.5,8.2l23.1,85.5c0.2,0.9,0.1,1.9-0.3,2.7s-1.2,1.4-2.1,1.6
				l-6.6,1.8c-0.3,0.1-0.6,0.1-0.9,0.1c-1.5,0-3-1-3.4-2.6l-7.9-29.3l-2,0.5l7.9,29.3c0.2,0.9,0.1,1.9-0.3,2.7s-1.2,1.4-2.1,1.6
				l-6.6,1.8C530.8,489.7,530.4,489.7,530.1,489.7z M528.2,439.3l2-0.5l-10.7-39.5l-2,0.5L528.2,439.3z"/>
			<path class="st0" d="M520.3,386.8c1.5,0,3,0.5,4.5,1.6c2,1.5,3.4,3.6,4.2,6.3l23.1,85.5l-6.6,1.8l-8.8-32.7l-8.8,2.4l8.8,32.7
				l-6.6,1.8l-23.1-85.5c-0.7-2.7-0.6-5.2,0.4-7.6c1-2.3,2.6-3.8,4.8-4.4l6.1-1.7C519.1,386.9,519.7,386.8,520.3,386.8 M525.7,443.6
				l8.8-2.4l-11.8-43.6c-0.2-0.7-0.6-1.3-1.2-1.7c-0.4-0.3-0.9-0.5-1.3-0.5c-0.2,0-0.3,0-0.5,0.1l-4.4,1.2c-0.6,0.2-1,0.6-1.3,1.2
				c-0.3,0.7-0.3,1.4-0.1,2.1L525.7,443.6 M520.3,379.8c-1.2,0-2.5,0.2-3.7,0.5l-6.1,1.7c-4.3,1.2-7.5,4-9.4,8.3
				c-1.7,3.8-1.9,7.9-0.8,12.2l23.1,85.5c0.8,3.1,3.7,5.2,6.8,5.2c0.6,0,1.2-0.1,1.8-0.2l6.6-1.8c1.6-0.4,3-1.4,4-2.8
				c0.9,0.4,2,0.7,3,0.7c0.6,0,1.2-0.1,1.8-0.2l6.6-1.8c3.7-1,5.9-4.8,4.9-8.6l-23.1-85.5c-1.2-4.3-3.5-7.7-6.8-10.2
				C526.3,380.8,523.4,379.8,520.3,379.8L520.3,379.8z"/>
		</g>
		<g>
			<path class="st1" d="M558.7,482c-1.5,0-3-1-3.4-2.6l-25.7-95.3c-0.2-0.9-0.1-1.9,0.3-2.7c0.5-0.8,1.2-1.4,2.1-1.6l6.6-1.8
				c0.3-0.1,0.6-0.1,0.9-0.1c1.5,0,3,1,3.4,2.6l13.8,51.1l2-0.5L545,379.9c-0.2-0.9-0.1-1.9,0.3-2.7c0.5-0.8,1.2-1.4,2.1-1.6
				l6.6-1.8c0.3-0.1,0.6-0.1,0.9-0.1c1.5,0,3,1,3.4,2.6l25.7,95.3c0.2,0.9,0.1,1.9-0.3,2.7s-1.2,1.4-2.1,1.6l-6.6,1.8
				c-0.3,0.1-0.6,0.1-0.9,0.1c-1.5,0-3-1-3.4-2.6l-7.9-29.3l-2,0.5l7.9,29.3c0.2,0.9,0.1,1.9-0.3,2.7s-1.2,1.4-2.1,1.6l-6.6,1.8
				C559.3,482,559,482,558.7,482z"/>
			<path class="st0" d="M554.9,377.3l14.7,54.5l11,40.9l-6.6,1.8l-8.8-32.7l-8.8,2.4l8.8,32.7l-6.6,1.8L533,383.2l6.6-1.8l14.7,54.5
				l8.8-2.4L548.3,379L554.9,377.3 M554.9,370.3c-0.6,0-1.2,0.1-1.8,0.2l-6.6,1.8c-1.6,0.4-3,1.4-4,2.8c-0.9-0.4-2-0.7-3-0.7
				c-0.6,0-1.2,0.1-1.8,0.2l-6.6,1.8c-3.7,1-5.9,4.8-4.9,8.6l25.7,95.3c0.8,3.1,3.7,5.2,6.8,5.2c0.6,0,1.2-0.1,1.8-0.2l6.6-1.8
				c1.6-0.4,3-1.4,4-2.8c0.9,0.4,2,0.7,3,0.7c0.6,0,1.2-0.1,1.8-0.2l6.6-1.8c3.7-1,5.9-4.8,4.9-8.6l-11-40.9l-14.7-54.5
				C560.8,372.3,558,370.3,554.9,370.3L554.9,370.3z"/>
		</g>
		<g>
			<path class="st1" d="M587.2,474.3c-0.6,0-1.2-0.2-1.7-0.5c-0.8-0.5-1.4-1.2-1.6-2.1l-8.4-31c-0.6-2.3-0.7-4.6-0.4-6.8
				c0.2-1.2,0.6-2.4,1.1-3.5c-1-1.3-1.9-2.8-2.7-4.4c-1.8-3.3-3.4-7.2-4.8-11.7c-1.3-4.3-2.6-8.8-3.9-13.6l-3.9-14.6
				c-0.9-3.5-0.7-6.8,0.6-9.9c1.4-3.3,3.9-5.5,7.1-6.3l6.1-1.7c0.9-0.2,1.8-0.4,2.8-0.4c2.3,0,4.5,0.8,6.6,2.3
				c2.7,2,4.6,4.7,5.5,8.2l23.1,85.5c0.2,0.9,0.1,1.9-0.3,2.7s-1.2,1.4-2.1,1.6l-6.6,1.8c-0.3,0.1-0.6,0.1-0.9,0.1
				c-1.5,0-3-1-3.4-2.6l-7.9-29.3l-2,0.5l7.9,29.3c0.5,1.9-0.6,3.8-2.5,4.3l-6.6,1.8C587.8,474.3,587.5,474.3,587.2,474.3z
				 M577.8,396.4c1.5,5.4,2.8,10.1,4,13.8c1.1,3.6,2.3,6.5,3.5,8.6c0.5,0.9,0.9,1.6,1.4,2.1l-10-37.1l-2,0.5L577.8,396.4z"/>
			<path class="st0" d="M577.4,371.4c1.5,0,3,0.5,4.5,1.6c2,1.5,3.4,3.6,4.2,6.3l23.1,85.5l-6.6,1.8l-8.8-32.7l-6.6,1.8
				c-0.6,0.2-1,0.6-1.3,1.2c-0.3,0.7-0.3,1.4-0.1,2.1l8.1,30l-6.6,1.8l-8.4-31c-0.5-1.8-0.6-3.6-0.3-5.3c0.3-1.7,0.9-3.2,2-4.3
				c-1.5-1.5-2.8-3.4-4-5.6c-1.7-3.1-3.2-6.8-4.5-11.1c-1.3-4.3-2.6-8.8-3.9-13.5l-3.9-14.6c-0.7-2.7-0.6-5.2,0.4-7.6
				c1-2.3,2.6-3.8,4.8-4.4l6.1-1.7C576.2,371.5,576.8,371.4,577.4,371.4 M589.4,426.1c0.7,0,1.4-0.1,2.2-0.3l-11.8-43.6
				c-0.2-0.7-0.6-1.3-1.2-1.7c-0.4-0.3-0.9-0.5-1.3-0.5c-0.2,0-0.3,0-0.5,0.1l-4.4,1.2c-0.6,0.2-1,0.6-1.3,1.2
				c-0.3,0.7-0.3,1.4-0.1,2.1l3.4,12.7c1.5,5.4,2.8,10.1,4,14c1.2,3.9,2.4,7,3.7,9.3c1.3,2.3,2.7,3.9,4.2,4.8
				C587.3,425.8,588.3,426.1,589.4,426.1 M577.4,364.4C577.4,364.4,577.4,364.4,577.4,364.4c-1.2,0-2.5,0.2-3.7,0.5l-6.1,1.7
				c-4.3,1.2-7.5,4-9.4,8.3c-1.7,3.8-1.9,7.9-0.8,12.2l3.9,14.6c1.3,4.8,2.6,9.4,3.9,13.7c1.4,4.7,3.1,8.8,5,12.3
				c0.6,1.1,1.2,2.2,1.9,3.2c-0.2,0.8-0.4,1.6-0.6,2.4c-0.4,2.7-0.3,5.5,0.5,8.3l8.4,31c0.5,1.8,1.7,3.3,3.3,4.2
				c1.1,0.6,2.3,0.9,3.5,0.9c0.6,0,1.2-0.1,1.8-0.2l6.6-1.8c1.7-0.5,3-1.5,4-2.8c0.9,0.4,1.9,0.7,3,0.7c0.6,0,1.2-0.1,1.8-0.2
				l6.6-1.8c3.7-1,5.9-4.8,4.9-8.6l-23.1-85.5c-1.2-4.3-3.5-7.7-6.8-10.2C583.4,365.4,580.5,364.4,577.4,364.4L577.4,364.4z"/>
		</g>
		<g>
			<path class="st1" d="M622.9,464.7c-1.5,0-3-1-3.4-2.6l-22.6-83.8l-4.3,1.2c-0.3,0.1-0.6,0.1-0.9,0.1c-1.5,0-3-1-3.4-2.6l-2.2-8.2
				c-0.5-1.9,0.6-3.8,2.5-4.3l21.9-5.9c0.3-0.1,0.6-0.1,0.9-0.1c0.6,0,1.2,0.2,1.7,0.5c0.8,0.5,1.4,1.2,1.6,2.1l2.2,8.2
				c0.5,1.9-0.6,3.8-2.5,4.3l-4.3,1.2l22.6,83.8c0.2,0.9,0.1,1.9-0.3,2.7s-1.2,1.4-2.1,1.6l-6.6,1.8
				C623.5,464.6,623.2,464.7,622.9,464.7z"/>
			<path class="st0" d="M611.4,362l2.2,8.2l-7.7,2.1l23.5,87.1l-6.6,1.8L599.4,374l-7.7,2.1l-2.2-8.2L611.4,362 M611.4,355
				c-0.6,0-1.2,0.1-1.8,0.2l-21.9,5.9c-1.8,0.5-3.3,1.7-4.2,3.3c-0.9,1.6-1.2,3.5-0.7,5.3l2.2,8.2c0.8,3.1,3.7,5.2,6.8,5.2
				c0.6,0,1.2-0.1,1.8-0.2l0.9-0.2l21.7,80.4c0.8,3.1,3.7,5.2,6.8,5.2c0.6,0,1.2-0.1,1.8-0.2l6.6-1.8c1.8-0.5,3.3-1.7,4.2-3.3
				c0.9-1.6,1.2-3.5,0.7-5.3l-21.7-80.4l0.9-0.2c1.8-0.5,3.3-1.7,4.2-3.3s1.2-3.5,0.7-5.3l-2.2-8.2C617.4,357.1,614.5,355,611.4,355
				L611.4,355z"/>
		</g>
		<g>
			<path class="st1" d="M649.2,457.3c-2.3,0-4.5-0.8-6.6-2.3c-2.7-2-4.6-4.7-5.5-8.2l-23.1-85.5c-0.5-1.9,0.6-3.8,2.5-4.3l6.6-1.8
				c0.3-0.1,0.6-0.1,0.9-0.1c0.6,0,1.2,0.2,1.7,0.5c0.8,0.5,1.4,1.2,1.6,2.1l22.6,83.8l2-0.5l-22.6-83.8c-0.5-1.9,0.6-3.8,2.5-4.3
				l6.6-1.8c0.3-0.1,0.6-0.1,0.9-0.1c0.6,0,1.2,0.2,1.7,0.5c0.8,0.5,1.4,1.2,1.6,2.1l25.7,95.3c0.5,1.9-0.6,3.8-2.5,4.3l-14,3.8
				C651.1,457.2,650.1,457.3,649.2,457.3z"/>
			<path class="st0" d="M639.4,354.5l25.7,95.3l-14,3.8c-0.6,0.2-1.2,0.3-1.9,0.3c-1.5,0-3-0.5-4.5-1.6c-2.1-1.5-3.4-3.6-4.2-6.3
				l-23.1-85.5l6.6-1.8l22.8,84.4c0.2,0.7,0.6,1.3,1.2,1.7c0.4,0.3,0.9,0.5,1.3,0.5c0.2,0,0.3,0,0.5-0.1l6.6-1.8l-23.5-87.1
				L639.4,354.5 M639.4,347.5c-0.6,0-1.2,0.1-1.8,0.2l-6.6,1.8c-1.6,0.4-3,1.4-4,2.8c-0.9-0.4-2-0.7-3-0.7c-0.6,0-1.2,0.1-1.8,0.2
				l-6.6,1.8c-3.7,1-5.9,4.8-4.9,8.6l23.1,85.5c1.2,4.3,3.5,7.7,6.8,10.2c2.7,2,5.6,2.9,8.6,2.9c1.2,0,2.5-0.2,3.7-0.5l14-3.8
				c3.7-1,5.9-4.8,4.9-8.6l-25.7-95.3C645.3,349.5,642.5,347.5,639.4,347.5L639.4,347.5z"/>
		</g>
		<g>
			<path class="st1" d="M671.7,451.5c-1.5,0-3-1-3.4-2.6l-8.4-31c-0.6-2.3-0.8-4.6-0.4-6.8c0.2-1.2,0.6-2.4,1-3.5
				c-1-1.3-1.9-2.8-2.7-4.4c-1.8-3.3-3.4-7.2-4.8-11.7c-1.3-4.2-2.6-8.8-3.9-13.6l-3.9-14.6c-0.9-3.5-0.7-6.8,0.6-9.9
				c1.4-3.3,3.9-5.5,7.1-6.3l6.1-1.7c0.9-0.2,1.8-0.4,2.8-0.4c2.3,0,4.5,0.8,6.6,2.3c2.7,2,4.6,4.7,5.5,8.2l23.1,85.5
				c0.5,1.9-0.6,3.8-2.5,4.3l-6.6,1.8c-0.3,0.1-0.6,0.1-0.9,0.1c-0.6,0-1.2-0.2-1.7-0.5c-0.8-0.5-1.4-1.2-1.6-2.1l-7.9-29.3l-2,0.5
				l7.9,29.3c0.2,0.9,0.1,1.9-0.3,2.7s-1.2,1.4-2.1,1.6l-6.6,1.8C672.3,451.5,672,451.5,671.7,451.5z M662.3,373.6
				c1.5,5.4,2.8,10.1,4,13.8c1.1,3.6,2.3,6.5,3.5,8.6c0.5,0.9,0.9,1.6,1.4,2.1l-10-37.1l-2,0.5L662.3,373.6z"/>
			<path class="st0" d="M661.9,348.7c1.5,0,3,0.5,4.5,1.6c2,1.5,3.4,3.6,4.2,6.3l23.1,85.5l-6.6,1.8l-8.8-32.7l-6.6,1.8
				c-0.6,0.2-1,0.6-1.3,1.2c-0.3,0.7-0.3,1.4-0.1,2.1l8.1,30l-6.6,1.8l-8.4-31c-0.5-1.8-0.6-3.6-0.3-5.3c0.3-1.7,0.9-3.2,2-4.3
				c-1.5-1.5-2.8-3.4-4-5.6c-1.7-3.1-3.2-6.8-4.5-11.1c-1.3-4.3-2.6-8.8-3.9-13.5l-3.9-14.6c-0.7-2.7-0.6-5.2,0.4-7.6
				c1-2.3,2.6-3.8,4.8-4.4l6.1-1.7C660.7,348.7,661.3,348.7,661.9,348.7 M673.9,403.3c0.7,0,1.4-0.1,2.2-0.3l-11.8-43.6
				c-0.2-0.7-0.6-1.3-1.2-1.7c-0.4-0.3-0.9-0.5-1.3-0.5c-0.2,0-0.3,0-0.5,0.1l-4.4,1.2c-0.6,0.2-1,0.6-1.3,1.2
				c-0.3,0.7-0.3,1.4-0.1,2.1l3.4,12.7c1.5,5.4,2.8,10.1,4,14c1.2,3.9,2.4,7,3.7,9.3c1.3,2.3,2.7,3.9,4.2,4.8
				C671.8,403.1,672.8,403.3,673.9,403.3 M661.9,341.7c-1.2,0-2.5,0.2-3.7,0.5l-6.1,1.7c-4.3,1.2-7.5,4-9.4,8.3
				c-1.7,3.8-1.9,7.9-0.8,12.2l3.9,14.6c1.3,4.8,2.6,9.4,3.9,13.7c1.4,4.7,3.1,8.8,5,12.4c0.6,1.1,1.2,2.2,1.9,3.2
				c-0.2,0.8-0.4,1.6-0.6,2.4c-0.4,2.7-0.3,5.5,0.5,8.3l8.4,31c0.5,1.8,1.7,3.3,3.3,4.2c1.1,0.6,2.3,0.9,3.5,0.9
				c0.6,0,1.2-0.1,1.8-0.2l6.6-1.8c1.7-0.5,3-1.5,4-2.8c0.9,0.4,2,0.7,3,0.7c0.6,0,1.2-0.1,1.8-0.2l6.6-1.8c3.7-1,5.9-4.8,4.9-8.6
				l-23.1-85.5c-1.2-4.3-3.5-7.7-6.8-10.2C667.9,342.6,664.9,341.7,661.9,341.7L661.9,341.7z"/>
		</g>
		<g>
			<path class="st1" d="M700.2,443.8c-1.5,0-3-1-3.4-2.6l-2.2-8.2c-0.2-0.9-0.1-1.9,0.3-2.7s1.2-1.4,2.1-1.6l6.6-1.8
				c0.3-0.1,0.6-0.1,0.9-0.1c1.5,0,3,1,3.4,2.6l2.2,8.2c0.2,0.9,0.1,1.9-0.3,2.7s-1.2,1.4-2.1,1.6l-6.6,1.8
				C700.8,443.8,700.5,443.8,700.2,443.8z M695.8,427.5c-1.5,0-3-1-3.4-2.6l-21.3-79c-0.2-0.9-0.1-1.9,0.3-2.7s1.2-1.4,2.1-1.6
				l6.6-1.8c0.3-0.1,0.6-0.1,0.9-0.1c1.5,0,3,1,3.4,2.6l21.3,79c0.2,0.9,0.1,1.9-0.3,2.7s-1.2,1.4-2.1,1.6l-6.6,1.8
				C696.4,427.4,696.1,427.5,695.8,427.5z"/>
			<path class="st0" d="M681.1,343.2l21.3,79l-6.6,1.8l-21.3-79L681.1,343.2 M704.6,430.4l2.2,8.2l-6.6,1.8l-2.2-8.2L704.6,430.4
				 M681.1,336.2c-0.6,0-1.2,0.1-1.8,0.2l-6.6,1.8c-3.7,1-5.9,4.8-4.9,8.6l21.3,79c0.4,1.5,1.3,2.8,2.5,3.7
				c-0.6,1.4-0.7,2.9-0.3,4.5l2.2,8.2c0.5,1.8,1.7,3.3,3.3,4.2c1.1,0.6,2.3,0.9,3.5,0.9c0.6,0,1.2-0.1,1.8-0.2l6.6-1.8
				c3.7-1,5.9-4.8,4.9-8.6l-2.2-8.2c-0.4-1.5-1.3-2.8-2.5-3.7c0.6-1.4,0.7-2.9,0.3-4.5l-21.3-79c-0.5-1.8-1.7-3.3-3.3-4.2
				C683.5,336.5,682.3,336.2,681.1,336.2L681.1,336.2z"/>
		</g>
	</g>
</g>
</svg>
