<svg id="Слой_1" data-name="Слой 1" xmlns="http://www.w3.org/2000/svg" viewBox="0 0 430.59999 430.59999"><title>putb</title><circle cx="250.0012" cy="245.10321" r="208.79798" transform="translate(-134.79048 218.76661) rotate(-45)"/><path d="M250,42.8A202.19365,202.19365,0,0,1,452.3,245.1,202.1936,202.1936,0,0,1,250,447.4,202.19362,202.19362,0,0,1,47.7,245.1,202.19364,202.19364,0,0,1,250,42.8m0-13c-118.9,0-215.3,96.4-215.3,215.3S131.1,460.4,250,460.4,465.3,364,465.3,245.1,368.9,29.8,250,29.8Z" transform="translate(-34.7 -29.8)" style="fill:#770015"/><path d="M250,83.3a161.8,161.8,0,0,1,0,323.6A161.786,161.786,0,0,1,135.6,130.7,160.49058,160.49058,0,0,1,250,83.3m0-7A168.8,168.8,0,1,0,418.8,245.1,168.83287,168.83287,0,0,0,250,76.3Z" transform="translate(-34.7 -29.8)" style="fill:#770015"/><path d="M180.2,247.4q6-12.45,6-30.3v-1.5l-.7-1.4a4.47588,4.47588,0,0,1,0-3.6,3.03618,3.03618,0,0,1,1.5-1.5,1.70162,1.70162,0,0,1,.7-.1,6.799,6.799,0,0,1,4.3,2.3c2.3,2.5,2.2,6.6,2.2,8.8-.1,9.5-5.9,17-10.1,22.5C183.2,243.7,181.9,245.4,180.2,247.4Z" transform="translate(-34.7 -29.8)" style="fill:#fff"/><path d="M187.7,202.5a8.94779,8.94779,0,0,0-3.1.6,10.0196,10.0196,0,0,0-4.9,4.5,11.0963,11.0963,0,0,0,0,9.4c0,11.5-2,26.9-12.2,37.5-9.3,9.6-22.6,12.1-22.1,14.1.1.7,1.6,1,3.9,1a44.54363,44.54363,0,0,0,12.3-2.1c15-4.7,24-16.2,27.8-21.1,4.6-6,11.3-14.7,11.5-26.3,0-3.1,0-9-3.9-13.3-2.2-2.1-5.6-4.3-9.3-4.3Z" transform="translate(-34.7 -29.8)" style="fill:#fff"/><path d="M216,235c-5.5-7.3-13.6-13.8-24.2-19.3l-1.3-.7H189a4.61838,4.61838,0,0,1-3.2-1.6,3.38888,3.38888,0,0,1-.6-2c.2-1.5,2.3-3,4.3-3.5a4.954,4.954,0,0,1,1.7-.2c2.7,0,5.5,1.5,7.1,2.3,8.3,4.5,12.3,13.1,15.3,19.3C214.1,230.7,215,232.6,216,235Z" transform="translate(-34.7 -29.8)" style="fill:#fff"/><path d="M191.2,201.2a13.16745,13.16745,0,0,0-3.4.4c-3.7,1-8.5,4.1-9,9a9.67882,9.67882,0,0,0,1.8,6.5c2.9,4.1,7.8,4.3,8.3,4.4,10.1,5.3,23,14.2,27.6,28.1,4.2,12.7.3,25.6,2.3,26.2h.1c1.7,0,5-7.2,6.4-14.9,2.7-15.4-3.3-28.8-5.9-34.3-3.2-6.8-7.9-16.8-18.1-22.3-2.2-1.2-5.9-3.1-10.1-3.1Z" transform="translate(-34.7 -29.8)" style="fill:#fff"/><path d="M232.6,188.7c-.8-.2-1.6-.4-2.2-.6-6.4-1.7-15.1-3.9-20.9-10.8-1.3-1.6-3.8-4.5-3.6-7.4.1-1.6.9-3.6,2-3.9.1,0,.3-.1.4-.1a4.87719,4.87719,0,0,1,1.4.3,4.2665,4.2665,0,0,1,2,2.5l.3,1.4.9,1.1C219.3,179,225.8,184.7,232.6,188.7Z" transform="translate(-34.7 -29.8)" style="fill:#fff"/><path d="M208.3,159.4a9.69267,9.69267,0,0,0-2.3.3c-4.5,1.3-6.4,6.2-6.6,9.7-.3,5.4,3.2,9.7,5.1,12,7.1,8.5,17.3,11.1,24.2,12.9a67.28232,67.28232,0,0,0,17.3,2.5,46.05546,46.05546,0,0,0,15.8-2.7c7-2.6,13.2-7,12.5-8.4q-.15-.3-.9-.3c-2.6,0-9.9,2.8-18.6,2.8a31.15523,31.15523,0,0,1-5.2-.4c-13.9-2-24.6-12.3-31.5-20.7a10.873,10.873,0,0,0-5.7-6.9,15.254,15.254,0,0,0-4.1-.8Z" transform="translate(-34.7 -29.8)" style="fill:#fff"/><path d="M229.9,159.9a9.97887,9.97887,0,0,1-9.9-9.5,9.791,9.791,0,0,1,2.6-7.1,9.96287,9.96287,0,0,1,6.9-3.2h.5a9.97887,9.97887,0,0,1,9.9,9.5,9.79107,9.79107,0,0,1-2.6,7.1,9.56658,9.56658,0,0,1-6.9,3.2Z" transform="translate(-34.7 -29.8)" style="fill:#fff"/><path d="M229.9,146.6a3.41467,3.41467,0,0,1,3.4,3.3,3.4592,3.4592,0,0,1-3.3,3.6h-.2a3.46617,3.46617,0,0,1-2.5-5.8,3.03877,3.03877,0,0,1,2.4-1.1h.2m0-13h-.8a16.4095,16.4095,0,0,0,.8,32.8h.8a16.4095,16.4095,0,0,0-.8-32.8Z" transform="translate(-34.7 -29.8)" style="fill:#fff"/><path d="M302.6,179.2c-1.4,0-3.3-1.6-4.2-3.2-1.8-2.9-.9-6.9-.4-9,2-9.3,9.1-15.5,14.3-20.1,1.1-1,2.7-2.4,4.8-4-5.5,7.4-9.4,16.9-11.7,28.6l-.3,1.5.4,1.5a4.613,4.613,0,0,1-.6,3.5,3.15269,3.15269,0,0,1-1.7,1.1A2.142,2.142,0,0,1,302.6,179.2Z" transform="translate(-34.7 -29.8)" style="fill:#3d0db6"/><path d="M344.4,126.5a45.32934,45.32934,0,0,0-5.2.3c-15.6,1.7-26.7,11.2-31.3,15.3-5.6,5-13.9,12.3-16.3,23.6-.6,3-1.8,8.8,1.3,13.8,1.8,2.9,5.5,6.3,9.8,6.3a7.56794,7.56794,0,0,0,1.5-.1,10.14968,10.14968,0,0,0,5.7-3.5,10.81265,10.81265,0,0,0,1.8-9.2c2.2-11.2,7.1-26.1,19.2-34.4,11-7.6,24.5-7.5,24.4-9.6-.1-1.5-5-2.5-10.9-2.5Z" transform="translate(-34.7 -29.8)" style="fill:#3d0db6"/><path d="M299.8,179.9c-3.2,0-6.2-2.5-7.8-3.8-7.3-6-9.6-15.2-11.3-21.9a50.86,50.86,0,0,1-1.3-6.1c4,8.3,10.7,16.2,20,23.6l1.2.9,1.5.3a4.35391,4.35391,0,0,1,2.8,2.2,3.52824,3.52824,0,0,1,.2,2.1c-.5,1.4-2.9,2.5-4.9,2.6C300.1,179.9,300,179.9,299.8,179.9Z" transform="translate(-34.7 -29.8)" style="fill:#3d0db6"/><path d="M284.3,107.6c-1.7,0-6.2,6.3-9,13.4-5.7,14.6-2.3,28.8-.8,34.8,1.8,7.3,4.5,18,13.4,25.4,2.3,1.9,6.5,5.3,11.9,5.3h.9c3.8-.3,9.1-2.4,10.6-7.1a9.9304,9.9304,0,0,0-.5-6.7,11.31357,11.31357,0,0,0-7.3-5.9c-8.9-7.2-19.8-18.3-21.7-32.9-1.7-13.3,4.6-25.2,2.7-26.1,0-.2-.1-.2-.2-.2Z" transform="translate(-34.7 -29.8)" style="fill:#3d0db6"/><path d="M298.6,257.4c-.7-.5-1.3-.9-1.9-1.3-5.4-3.8-12.8-8.9-15.9-17.3-.7-1.9-2-5.5-.8-8.2.6-1.4,2-3,3.1-3a2.58779,2.58779,0,0,1,1.7.9,4.20187,4.20187,0,0,1,1,3.1l-.2,1.5.5,1.4C289.5,243.7,293.6,251.4,298.6,257.4Z" transform="translate(-34.7 -29.8)" style="fill:#3d0db6"/><path d="M283.1,221.1c-4.4,0-7.7,3.7-9.1,6.9-2.1,5-.3,10.2.7,13,3.7,10.4,12.4,16.4,18.3,20.5,4.8,3.4,16.4,11.2,31.1,11.2h.1c7.4,0,14.7-2,14.5-3.6-.2-2-12.7-.5-23.9-6.5-12.3-6.6-18.8-20-22.4-30.3a10.49172,10.49172,0,0,0-2.9-8.4,9.32054,9.32054,0,0,0-5.7-2.7,1.95243,1.95243,0,0,0-.7-.1Z" transform="translate(-34.7 -29.8)" style="fill:#3d0db6"/><path d="M249.8,230.9a10.47316,10.47316,0,0,1-3-.5,9.9301,9.9301,0,0,1,3-19.4,10.47351,10.47351,0,0,1,3,.5,9.93442,9.93442,0,0,1,6.5,12.4A10.05436,10.05436,0,0,1,249.8,230.9Z" transform="translate(-34.7 -29.8)" style="fill:#3d0db6"/><path d="M249.7,217.5h0a3.5534,3.5534,0,0,1,1,.2,3.49122,3.49122,0,0,1,2,1.7,3.17055,3.17055,0,0,1,.2,2.6,3.4256,3.4256,0,0,1-3.3,2.4,3.55331,3.55331,0,0,1-1-.2,3.4912,3.4912,0,0,1-2-1.7,3.17055,3.17055,0,0,1-.2-2.6,3.65916,3.65916,0,0,1,3.3-2.4m0-13a16.41862,16.41862,0,0,0-4.9,32.1,16.74111,16.74111,0,0,0,4.9.8,16.41862,16.41862,0,0,0,4.9-32.1,13.62219,13.62219,0,0,0-4.9-.8Z" transform="translate(-34.7 -29.8)" style="fill:#3d0db6"/><rect x="91.60001" y="250.30001" width="247.49998" height="9.20001" style="fill:#3d0db6"/><path d="M126.3,340.1V296.7c8.7,0,13.1.1,21.8.1-.3,17.5-.7,34.9-1,52.4-2-.8-3-1.2-5-2,.2-15.1.5-30.2.7-45.3-4.5-.2-6.8-.3-11.4-.5-.1,13.7-.2,27.4-.3,41C129.2,341.5,128.2,341,126.3,340.1Z" transform="translate(-34.7 -29.8)" style="fill:#fff"/><path d="M151.9,296.8h5.2c1.7,7.7,2.5,11.7,4.1,19.9,1.2,5.9,1.8,8.9,3,15,1.2-5.7,1.8-8.5,3.1-14.4,1.9-8,2.8-12.1,4.7-20.5h5.4c-3.5,15.4-7.2,30.7-11,46a31.16958,31.16958,0,0,1-1.6,5.5,9.2895,9.2895,0,0,1-2.3,3.4A4.75223,4.75223,0,0,1,159,353a13.537,13.537,0,0,1-5.2-1.3c0-2.2.1-3.3.1-5.5,2,.7,3.4.8,4.4.3s1.8-1.8,2.2-3.9c.5-1.4.7-2.1,1.1-3.5C158.6,325,155.4,310.9,151.9,296.8Z" transform="translate(-34.7 -29.8)" style="fill:#fff"/><path d="M179.5,303.2c.1-2.5.1-3.8.1-6.4h22.3c-.1,2.7-.1,4.1-.1,6.8-3.4-.1-5.1-.1-8.6-.2-.4,19.6-.8,39.3-1.2,58.9-2.1-.4-3.1-.7-5.2-1.1.4-19.3.8-38.6,1.3-57.9C184.6,303.4,182.9,303.3,179.5,303.2Z" transform="translate(-34.7 -29.8)" style="fill:#fff"/><path d="M204.6,364.8c.4-22.6.8-45.3,1.2-67.9H211c-.2,10.8-.3,16.3-.4,27.1,1.9.1,2.8.2,4.6.3,7.3.4,10.9,6.1,10.8,17.5,0,3.4,0,5.1-.1,8.5-.1,5.5-1,9.7-2.8,12.5s-4.5,4-8.1,3.6C210.9,365.8,208.8,365.5,204.6,364.8Zm5.4-6.1c2,.3,3,.4,5.1.6a3.97623,3.97623,0,0,0,4.2-1.9c.9-1.5,1.3-3.9,1.4-7.1,0-3.7.1-5.6.1-9.3,0-3.4-.4-5.8-1.3-7.3a5.4045,5.4045,0,0,0-4.4-2.5c-1.9-.1-2.8-.2-4.6-.3C210.3,342,210.2,347.6,210,358.7Z" transform="translate(-34.7 -29.8)" style="fill:#fff"/><path d="M241.1,368.3q.15-35.7.3-71.4h5.2c0,11.5,0,23-.1,34.5,4.2-11.5,8.3-23,12.4-34.5h5.2c-3.9,10.9-7.8,21.7-11.7,32.6,4.1,12.9,8.3,25.7,12.6,38.5-2.2.1-3.3.2-5.5.2-3.5-10.3-6.9-20.6-10.3-30.9-1.1,2.8-1.7,4.2-2.8,7.1v24C244.3,368.4,243.3,368.4,241.1,368.3Z" transform="translate(-34.7 -29.8)" style="fill:#fff"/><path d="M279.1,350.1c-.1-12.1-.3-24.1-.4-36.2-.1-5.5.8-9.8,2.5-12.9a8.34185,8.34185,0,0,1,7.7-4.7,8.63721,8.63721,0,0,1,7.9,4.5c1.8,3,2.8,7.1,2.9,12.3,0,2.4.1,3.6.1,6-2,.1-2.9.2-4.9.3,0-2.6-.1-3.9-.1-6.5-.1-6.5-2-9.8-5.6-9.7a4.39034,4.39034,0,0,0-4.1,2.7,16.6411,16.6411,0,0,0-1.3,7.4c.2,12.2.3,24.5.5,36.7,0,3.2.5,5.6,1.5,7.3a4.10359,4.10359,0,0,0,4.2,2.1c3.7-.5,5.5-4,5.4-10.6-.1-3.5-.1-5.3-.2-8.8,2-.2,3-.3,4.9-.5.1,3.3.1,5,.2,8.3.1,5.2-.7,9.5-2.4,12.8a10.25781,10.25781,0,0,1-7.9,5.8,7.46536,7.46536,0,0,1-8-3.6C280.1,359.8,279.1,355.5,279.1,350.1Z" transform="translate(-34.7 -29.8)" style="fill:#fff"/><path d="M305.4,363c-.4-22-.9-44.1-1.3-66.1h19.1c.1,2.5.1,3.8.1,6.3-5.6.2-8.4.2-14,.4.2,8.9.3,13.3.5,22.2,4.6-.4,6.8-.7,11.4-1.2.1,2.5.1,3.8.1,6.3-4.5.7-6.8,1-11.4,1.5.2,9.3.3,13.9.5,23.1,5.6-1.1,8.4-1.7,14-3.1.1,2.5.1,3.7.1,6.2C317,360.6,313.2,361.5,305.4,363Z" transform="translate(-34.7 -29.8)" style="fill:#fff"/><path d="M329.5,357.2c-.5-20.1-.9-40.2-1.4-60.3,7.8,0,11.8,0,19.6-.1,0,2.2.1,3.3.1,5.5-5.7.2-8.6.3-14.4.5.2,7.3.3,11,.4,18.3,2.2-.3,3.2-.4,5.4-.7,7.2-1,10.9,2.6,11.1,10.9,0,2.3.1,3.5.1,5.9.2,8.6-3.2,14.3-10.2,16.7C336,355.2,333.8,355.9,329.5,357.2Zm5-7.5c2.3-.6,3.4-1,5.6-1.6a6.90584,6.90584,0,0,0,4.1-3.1,12.78513,12.78513,0,0,0,1.2-6c-.1-2.7-.1-4.1-.1-6.8-.1-2.6-.6-4.3-1.5-5.2s-2.4-1.1-4.4-.8c-2.2.4-3.2.5-5.4.9C334.2,336.1,334.3,340.6,334.5,349.7Z" transform="translate(-34.7 -29.8)" style="fill:#fff"/><path d="M355.6,348.2c-.3-17.1-.6-34.3-.9-51.4,7.7,0,11.5,0,19.1-.1v4.4c-5.5.3-8.3.4-13.9.7.1,6.7.1,10.1.2,16.8,4.5-.8,6.7-1.3,11.1-2.2v4.5c-4.4,1.1-6.6,1.6-11.1,2.7.1,7,.2,10.5.3,17.6,5.4-2,8-3.1,13.3-5.4v4.4C366.6,343.6,363,345.2,355.6,348.2Z" transform="translate(-34.7 -29.8)" style="fill:#fff"/></svg>